<svg xmlns="http://www.w3.org/2000/svg" width="1052.0013427734375" height="319.2333984375" viewBox="-447.4676818847656 -52.77312469482422 1052.0013427734375 319.2333984375"><title>Neo4j Graph Visualization</title><desc>Created using Neo4j (http://www.neo4j.com/)</desc><g class="layer relationships"><g class="relationship" transform="translate(92.31854926862125 110.54671641006676) rotate(497.28993819595553)"><path class="outline" fill="#A5ABB6" stroke="none" d="M 25 0.5 L 42.26089395095982 0.5 L 42.26089395095982 -0.5 L 25 -0.5 Z M 65.15933145095983 0.5 L 82.42022540191964 0.5 L 82.42022540191964 3.5 L 89.42022540191964 0 L 82.42022540191964 -3.5 L 82.42022540191964 -0.5 L 65.15933145095983 -0.5 Z"/><text text-anchor="middle" pointer-events="none" font-size="8px" fill="#000000" x="53.71011270095982" y="3" transform="rotate(180 53.71011270095982 0)" font-family="sans-serif">uses</text></g><g class="relationship" transform="translate(92.31854926862125 110.54671641006676) rotate(457.09988297246355)"><path class="outline" fill="#A5ABB6" stroke="none" d="M 25 0.5 L 48.99788758203638 0.5 L 48.99788758203638 -0.5 L 25 -0.5 Z M 71.89632508203638 0.5 L 95.89421266407275 0.5 L 95.89421266407275 3.5 L 102.89421266407275 0 L 95.89421266407275 -3.5 L 95.89421266407275 -0.5 L 71.89632508203638 -0.5 Z"/><text text-anchor="middle" pointer-events="none" font-size="8px" fill="#000000" x="60.44710633203638" y="3" transform="rotate(180 60.44710633203638 0)" font-family="sans-serif">uses</text></g><g class="relationship" transform="translate(92.31854926862125 110.54671641006676) rotate(421.79725702725494)"><path class="outline" fill="#A5ABB6" stroke="none" d="M 25 0.5 L 47.334978164374746 0.5 L 47.334978164374746 -0.5 L 25 -0.5 Z M 70.23341566437475 0.5 L 92.56839382874949 0.5 L 92.56839382874949 3.5 L 99.56839382874949 0 L 92.56839382874949 -3.5 L 92.56839382874949 -0.5 L 70.23341566437475 -0.5 Z"/><text text-anchor="middle" pointer-events="none" font-size="8px" fill="#000000" x="58.784196914374746" y="3" font-family="sans-serif">uses</text></g><g class="relationship" transform="translate(92.31854926862125 110.54671641006676) rotate(266.61592927539556)"><path class="outline" fill="#A5ABB6" stroke="none" d="M 25 0.5 L 48.80150794605149 0.5 L 48.80150794605149 -0.5 L 25 -0.5 Z M 71.69994544605149 0.5 L 95.50145339210297 0.5 L 95.50145339210297 3.5 L 102.50145339210297 0 L 95.50145339210297 -3.5 L 95.50145339210297 -0.5 L 71.69994544605149 -0.5 Z"/><text text-anchor="middle" pointer-events="none" font-size="8px" fill="#000000" x="60.25072669605149" y="3" transform="rotate(180 60.25072669605149 0)" font-family="sans-serif">uses</text></g><g class="relationship" transform="translate(92.31854926862125 110.54671641006676) rotate(370.2545513879358)"><path class="outline" fill="#A5ABB6" stroke="none" d="M 25 0.5 L 39.603568713123764 0.5 L 39.603568713123764 -0.5 L 25 -0.5 Z M 62.502006213123764 0.5 L 77.10557492624753 0.5 L 77.10557492624753 3.5 L 84.10557492624753 0 L 77.10557492624753 -3.5 L 77.10557492624753 -0.5 L 62.502006213123764 -0.5 Z"/><text text-anchor="middle" pointer-events="none" font-size="8px" fill="#000000" x="51.052787463123764" y="3" font-family="sans-serif">uses</text></g><g class="relationship" transform="translate(92.31854926862125 110.54671641006676) rotate(303.8356422476989)"><path class="outline" fill="#A5ABB6" stroke="none" d="M 25 0.5 L 45.83765265263615 0.5 L 45.83765265263615 -0.5 L 25 -0.5 Z M 68.73609015263615 0.5 L 89.5737428052723 0.5 L 89.5737428052723 3.5 L 96.5737428052723 0 L 89.5737428052723 -3.5 L 89.5737428052723 -0.5 L 68.73609015263615 -0.5 Z"/><text text-anchor="middle" pointer-events="none" font-size="8px" fill="#000000" x="57.28687140263615" y="3" font-family="sans-serif">uses</text></g><g class="relationship" transform="translate(92.31854926862125 110.54671641006676) rotate(227.29866382824792)"><path class="outline" fill="#A5ABB6" stroke="none" d="M 25 0.5 L 41.937424537739844 0.5 L 41.937424537739844 -0.5 L 25 -0.5 Z M 64.83586203773984 0.5 L 81.77328657547969 0.5 L 81.77328657547969 3.5 L 88.77328657547969 0 L 81.77328657547969 -3.5 L 81.77328657547969 -0.5 L 64.83586203773984 -0.5 Z"/><text text-anchor="middle" pointer-events="none" font-size="8px" fill="#000000" x="53.386643287739844" y="3" transform="rotate(180 53.386643287739844 0)" font-family="sans-serif">uses</text></g><g class="relationship" transform="translate(559.5250468942991 100.66533748402271) rotate(443.78274665111496)"><path class="outline" fill="#A5ABB6" stroke="none" d="M 25 0.5 L 42.200864723725196 0.5 L 42.200864723725196 -0.5 L 25 -0.5 Z M 65.0993022237252 0.5 L 82.30016694745039 0.5 L 82.30016694745039 3.5 L 89.30016694745039 0 L 82.30016694745039 -3.5 L 82.30016694745039 -0.5 L 65.0993022237252 -0.5 Z"/><text text-anchor="middle" pointer-events="none" font-size="8px" fill="#000000" x="53.650083473725196" y="3" font-family="sans-serif">uses</text></g><g class="relationship" transform="translate(559.5250468942991 100.66533748402271) rotate(278.08460849304356)"><path class="outline" fill="#A5ABB6" stroke="none" d="M 25 0.5 L 41.96609508676747 0.5 L 41.96609508676747 -0.5 L 25 -0.5 Z M 64.86453258676747 0.5 L 81.83062767353493 0.5 L 81.83062767353493 3.5 L 88.83062767353493 0 L 81.83062767353493 -3.5 L 81.83062767353493 -0.5 L 64.86453258676747 -0.5 Z"/><text text-anchor="middle" pointer-events="none" font-size="8px" fill="#000000" x="53.41531383676747" y="3" font-family="sans-serif">uses</text></g><g class="relationship" transform="translate(559.5250468942991 100.66533748402271) rotate(212.7301299366979)"><path class="outline" fill="#A5ABB6" stroke="none" d="M 25 0.5 L 51.29362133384922 0.5 L 51.29362133384922 -0.5 L 25 -0.5 Z M 74.19205883384922 0.5 L 100.48568016769843 0.5 L 100.48568016769843 3.5 L 107.48568016769843 0 L 100.48568016769843 -3.5 L 100.48568016769843 -0.5 L 74.19205883384922 -0.5 Z"/><text text-anchor="middle" pointer-events="none" font-size="8px" fill="#000000" x="62.74284008384922" y="3" transform="rotate(180 62.74284008384922 0)" font-family="sans-serif">uses</text></g><g class="relationship" transform="translate(559.5250468942991 100.66533748402271) rotate(242.2661574071824)"><path class="outline" fill="#A5ABB6" stroke="none" d="M 25 0.5 L 50.50738449497308 0.5 L 50.50738449497308 -0.5 L 25 -0.5 Z M 73.40582199497308 0.5 L 98.91320648994616 0.5 L 98.91320648994616 3.5 L 105.91320648994616 0 L 98.91320648994616 -3.5 L 98.91320648994616 -0.5 L 73.40582199497308 -0.5 Z"/><text text-anchor="middle" pointer-events="none" font-size="8px" fill="#000000" x="61.95660324497308" y="3" transform="rotate(180 61.95660324497308 0)" font-family="sans-serif">uses</text></g><g class="relationship" transform="translate(559.5250468942991 100.66533748402271) rotate(479.34586459354045)"><path class="outline" fill="#A5ABB6" stroke="none" d="M 25 0.5 L 50.97736393183801 0.5 L 50.97736393183801 -0.5 L 25 -0.5 Z M 73.87580143183801 0.5 L 99.85316536367603 0.5 L 99.85316536367603 3.5 L 106.85316536367603 0 L 99.85316536367603 -3.5 L 99.85316536367603 -0.5 L 73.87580143183801 -0.5 Z"/><text text-anchor="middle" pointer-events="none" font-size="8px" fill="#000000" x="62.42658268183801" y="3" transform="rotate(180 62.42658268183801 0)" font-family="sans-serif">uses</text></g><g class="relationship" transform="translate(559.5250468942991 100.66533748402271) rotate(180.983470973912)"><path class="outline" fill="#A5ABB6" stroke="none" d="M 25 0.5 L 49.64779742728386 0.5 L 49.64779742728386 -0.5 L 25 -0.5 Z M 72.54623492728386 0.5 L 97.19403235456772 0.5 L 97.19403235456772 3.5 L 104.19403235456772 0 L 97.19403235456772 -3.5 L 97.19403235456772 -0.5 L 72.54623492728386 -0.5 Z"/><text text-anchor="middle" pointer-events="none" font-size="8px" fill="#000000" x="61.09701617728386" y="3" transform="rotate(180 61.09701617728386 0)" font-family="sans-serif">uses</text></g><g class="relationship" transform="translate(559.5250468942991 100.66533748402271) rotate(508.6393510021857)"><path class="outline" fill="#A5ABB6" stroke="none" d="M 25 0.5 L 51.435660308408586 0.5 L 51.435660308408586 -0.5 L 25 -0.5 Z M 74.33409780840859 0.5 L 100.76975811681717 0.5 L 100.76975811681717 3.5 L 107.76975811681717 0 L 100.76975811681717 -3.5 L 100.76975811681717 -0.5 L 74.33409780840859 -0.5 Z"/><text text-anchor="middle" pointer-events="none" font-size="8px" fill="#000000" x="62.884879058408586" y="3" transform="rotate(180 62.884879058408586 0)" font-family="sans-serif">uses</text></g><g class="relationship" transform="translate(-409.955339267622 94.4460485938016) rotate(326.9032912101865)"><path class="outline" fill="#A5ABB6" stroke="none" d="M 25 0.5 L 57.90370994698411 0.5 L 57.90370994698411 -0.5 L 25 -0.5 Z M 80.80214744698411 0.5 L 113.70585739396822 0.5 L 113.70585739396822 3.5 L 120.70585739396822 0 L 113.70585739396822 -3.5 L 113.70585739396822 -0.5 L 80.80214744698411 -0.5 Z"/><text text-anchor="middle" pointer-events="none" font-size="8px" fill="#000000" x="69.35292869698411" y="3" font-family="sans-serif">uses</text></g><g class="relationship" transform="translate(-409.955339267622 94.4460485938016) rotate(302.5457101756159)"><path class="outline" fill="#A5ABB6" stroke="none" d="M 25 0.5 L 53.4029748349772 0.5 L 53.4029748349772 -0.5 L 25 -0.5 Z M 76.3014123349772 0.5 L 104.7043871699544 0.5 L 104.7043871699544 3.5 L 111.7043871699544 0 L 104.7043871699544 -3.5 L 104.7043871699544 -0.5 L 76.3014123349772 -0.5 Z"/><text text-anchor="middle" pointer-events="none" font-size="8px" fill="#000000" x="64.8521935849772" y="3" font-family="sans-serif">uses</text></g><g class="relationship" transform="translate(-409.955339267622 94.4460485938016) rotate(271.7691469633043)"><path class="outline" fill="#A5ABB6" stroke="none" d="M 25 0.5 L 44.18855610924232 0.5 L 44.18855610924232 -0.5 L 25 -0.5 Z M 67.08699360924231 0.5 L 86.27554971848464 0.5 L 86.27554971848464 3.5 L 93.27554971848464 0 L 86.27554971848464 -3.5 L 86.27554971848464 -0.5 L 67.08699360924231 -0.5 Z"/><text text-anchor="middle" pointer-events="none" font-size="8px" fill="#000000" x="55.63777485924232" y="3" font-family="sans-serif">uses</text></g><g class="relationship" transform="translate(-409.955339267622 94.4460485938016) rotate(454.2820307899401)"><path class="outline" fill="#A5ABB6" stroke="none" d="M 25 0.5 L 42.053627691995246 0.5 L 42.053627691995246 -0.5 L 25 -0.5 Z M 64.95206519199525 0.5 L 82.00569288399049 0.5 L 82.00569288399049 3.5 L 89.00569288399049 0 L 82.00569288399049 -3.5 L 82.00569288399049 -0.5 L 64.95206519199525 -0.5 Z"/><text text-anchor="middle" pointer-events="none" font-size="8px" fill="#000000" x="53.502846441995246" y="3" transform="rotate(180 53.502846441995246 0)" font-family="sans-serif">uses</text></g><g class="relationship" transform="translate(-409.955339267622 94.4460485938016) rotate(399.29606533314654)"><path class="outline" fill="#A5ABB6" stroke="none" d="M 25 0.5 L 55.39371095664761 0.5 L 55.39371095664761 -0.5 L 25 -0.5 Z M 78.29214845664761 0.5 L 108.68585941329522 0.5 L 108.68585941329522 3.5 L 115.68585941329522 0 L 108.68585941329522 -3.5 L 108.68585941329522 -0.5 L 78.29214845664761 -0.5 Z"/><text text-anchor="middle" pointer-events="none" font-size="8px" fill="#000000" x="66.84292970664761" y="3" font-family="sans-serif">uses</text></g><g class="relationship" transform="translate(-409.955339267622 94.4460485938016) rotate(424.4259582256477)"><path class="outline" fill="#A5ABB6" stroke="none" d="M 25 0.5 L 51.45334203315879 0.5 L 51.45334203315879 -0.5 L 25 -0.5 Z M 74.35177953315879 0.5 L 100.80512156631758 0.5 L 100.80512156631758 3.5 L 107.80512156631758 0 L 100.80512156631758 -3.5 L 100.80512156631758 -0.5 L 74.35177953315879 -0.5 Z"/><text text-anchor="middle" pointer-events="none" font-size="8px" fill="#000000" x="62.90256078315879" y="3" font-family="sans-serif">uses</text></g><g class="relationship" transform="translate(-409.955339267622 94.4460485938016) rotate(351.1359979854951)"><path class="outline" fill="#A5ABB6" stroke="none" d="M 25 0.5 L 53.8581359244277 0.5 L 53.8581359244277 -0.5 L 25 -0.5 Z M 76.7565734244277 0.5 L 105.6147093488554 0.5 L 105.6147093488554 3.5 L 112.6147093488554 0 L 105.6147093488554 -3.5 L 105.6147093488554 -0.5 L 76.7565734244277 -0.5 Z"/><text text-anchor="middle" pointer-events="none" font-size="8px" fill="#000000" x="65.3073546744277" y="3" font-family="sans-serif">uses</text></g><g class="relationship" transform="translate(-409.955339267622 94.4460485938016) rotate(375.27969817131964)"><path class="outline" fill="#A5ABB6" stroke="none" d="M 25 0.5 L 58.24220943744345 0.5 L 58.24220943744345 -0.5 L 25 -0.5 Z M 81.14064693744345 0.5 L 114.3828563748869 0.5 L 114.3828563748869 3.5 L 121.3828563748869 0 L 114.3828563748869 -3.5 L 114.3828563748869 -0.5 L 81.14064693744345 -0.5 Z"/><text text-anchor="middle" pointer-events="none" font-size="8px" fill="#000000" x="69.69142818744345" y="3" font-family="sans-serif">uses</text></g></g><g class="layer nodes"><g class="node" transform="translate(92.31854926862125,110.54671641006676)"><circle class="outline" cx="0" cy="0" r="25" fill="#569480" stroke="#447666" stroke-width="2px"/><text text-anchor="middle" pointer-events="none" font-family="sans-serif" dy="1.5625" font-size="25" fill="#FFFFFF"/><text text-anchor="middle" pointer-events="none" x="0" y="5" font-size="10px" fill="#FFFFFF" font-family="sans-serif"> scene-te…</text></g><g class="node" transform="translate(8.2430835517948,188.15666451934484)"><circle class="outline" cx="0" cy="0" r="25" fill="#F16667" stroke="#eb2728" stroke-width="2px"/><text text-anchor="middle" pointer-events="none" font-family="sans-serif" dy="1.5625" font-size="25" fill="#FFFFFF"/><text text-anchor="middle" pointer-events="none" x="0" y="5" font-size="10px" fill="#FFFFFF" font-family="sans-serif"> cute80</text></g><g class="node" transform="translate(76.51089493966884,237.46026059499377)"><circle class="outline" cx="0" cy="0" r="25" fill="#F16667" stroke="#eb2728" stroke-width="2px"/><text text-anchor="middle" pointer-events="none" font-family="sans-serif" dy="1.5625" font-size="25" fill="#FFFFFF"/><text text-anchor="middle" pointer-events="none" x="0" y="5" font-size="10px" fill="#FFFFFF" font-family="sans-serif"> iiit5k</text></g><g class="node" transform="translate(151.1886947031566,220.32645369154824)"><circle class="outline" cx="0" cy="0" r="25" fill="#F16667" stroke="#eb2728" stroke-width="2px"/><text text-anchor="middle" pointer-events="none" font-family="sans-serif" dy="1.5625" font-size="25" fill="#FFFFFF"/><text text-anchor="middle" pointer-events="none" x="0" y="5" font-size="10px" fill="#FFFFFF" font-family="sans-serif"> icdar2015</text></g><g class="node" transform="translate(84.79228607764892,-16.732409841957843)"><circle class="outline" cx="0" cy="0" r="25" fill="#F16667" stroke="#eb2728" stroke-width="2px"/><text text-anchor="middle" pointer-events="none" font-family="sans-serif" dy="1.5625" font-size="25" fill="#FFFFFF"/><text text-anchor="middle" pointer-events="none" x="0" y="5" font-size="10px" fill="#FFFFFF" font-family="sans-serif"> icdar2013</text></g><g class="node" transform="translate(199.68133276294114,129.96987785044016)"><circle class="outline" cx="0" cy="0" r="25" fill="#F16667" stroke="#eb2728" stroke-width="2px"/><text text-anchor="middle" pointer-events="none" font-family="sans-serif" dy="1.5625" font-size="25" fill="#FFFFFF"/><text text-anchor="middle" pointer-events="none" x="0" y="5" font-size="10px" fill="#FFFFFF" font-family="sans-serif"> svt</text></g><g class="node" transform="translate(160.01232190023603,9.562915300276183)"><circle class="outline" cx="0" cy="0" r="25" fill="#F16667" stroke="#eb2728" stroke-width="2px"/><text text-anchor="middle" pointer-events="none" font-family="sans-serif" dy="1.5625" font-size="25" fill="#FFFFFF"/><text text-anchor="middle" pointer-events="none" x="0" y="5" font-size="10px" fill="#FFFFFF" font-family="sans-serif"> svtp</text></g><g class="node" transform="translate(15.160144905607467,26.93486692484198)"><circle class="outline" cx="0" cy="0" r="25" fill="#F16667" stroke="#eb2728" stroke-width="2px"/><text text-anchor="middle" pointer-events="none" font-family="sans-serif" dy="1.5625" font-size="25" fill="#FFFFFF"/><text text-anchor="middle" pointer-events="none" x="0" y="5" font-size="10px" fill="#FFFFFF" font-family="sans-serif"> msda</text></g><g class="node" transform="translate(559.5250468942991,100.66533748402271)"><circle class="outline" cx="0" cy="0" r="25" fill="#569480" stroke="#447666" stroke-width="2px"/><text text-anchor="middle" pointer-events="none" font-family="sans-serif" dy="1.5625" font-size="25" fill="#FFFFFF"/><text text-anchor="middle" pointer-events="none" x="0" y="5" font-size="10px" fill="#FFFFFF" font-family="sans-serif"> sign-lan…</text></g><g class="node" transform="translate(571.9036083553607,214.2932362605545)"><circle class="outline" cx="0" cy="0" r="25" fill="#F16667" stroke="#eb2728" stroke-width="2px"/><text text-anchor="middle" pointer-events="none" font-family="sans-serif" dy="1.5625" font-size="25" fill="#FFFFFF"/><text text-anchor="middle" pointer-events="none" x="0" y="5" font-size="10px" fill="#FFFFFF" font-family="sans-serif"> wlasl-20…</text></g><g class="node" transform="translate(575.5336484469515,-12.033981382061613)"><circle class="outline" cx="0" cy="0" r="25" fill="#F16667" stroke="#eb2728" stroke-width="2px"/><text text-anchor="middle" pointer-events="none" font-family="sans-serif" dy="1.5625" font-size="25" fill="#FFFFFF"/><text text-anchor="middle" pointer-events="none" x="0" y="5" font-size="10px" fill="#FFFFFF" font-family="sans-serif"> lsa64</text></g><g class="node" transform="translate(448.07457242515943,29.03261318778129)"><circle class="outline" cx="0" cy="0" r="25" fill="#F16667" stroke="#eb2728" stroke-width="2px"/><text text-anchor="middle" pointer-events="none" font-family="sans-serif" dy="1.5625" font-size="25" fill="#FFFFFF"/><text text-anchor="middle" pointer-events="none" x="0" y="5" font-size="10px" fill="#FFFFFF" font-family="sans-serif"> wlasl100</text></g><g class="node" transform="translate(498.6026310207335,-15.208416565837991)"><circle class="outline" cx="0" cy="0" r="25" fill="#F16667" stroke="#eb2728" stroke-width="2px"/><text text-anchor="middle" pointer-events="none" font-family="sans-serif" dy="1.5625" font-size="25" fill="#FFFFFF"/><text text-anchor="middle" pointer-events="none" x="0" y="5" font-size="10px" fill="#FFFFFF" font-family="sans-serif"> csl-daily</text></g><g class="node" transform="translate(494.9063980341736,215.5987418359025)"><circle class="outline" cx="0" cy="0" r="25" fill="#F16667" stroke="#eb2728" stroke-width="2px"/><text text-anchor="middle" pointer-events="none" font-family="sans-serif" dy="1.5625" font-size="25" fill="#FFFFFF"/><text text-anchor="middle" pointer-events="none" x="0" y="5" font-size="10px" fill="#FFFFFF" font-family="sans-serif"> rwth-pho…</text></g><g class="node" transform="translate(430.35004632913433,98.44785579914114)"><circle class="outline" cx="0" cy="0" r="25" fill="#F16667" stroke="#eb2728" stroke-width="2px"/><text text-anchor="middle" pointer-events="none" font-family="sans-serif" dy="1.5625" font-size="25" fill="#FFFFFF"/><text text-anchor="middle" pointer-events="none" x="0" y="5" font-size="10px" fill="#FFFFFF" font-family="sans-serif"> autsl</text></g><g class="node" transform="translate(446.1518314914886,169.76181134214434)"><circle class="outline" cx="0" cy="0" r="25" fill="#F16667" stroke="#eb2728" stroke-width="2px"/><text text-anchor="middle" pointer-events="none" font-family="sans-serif" dy="1.5625" font-size="25" fill="#FFFFFF"/><text text-anchor="middle" pointer-events="none" x="0" y="5" font-size="10px" fill="#FFFFFF" font-family="sans-serif"> rwth-pho…</text></g><g class="node" transform="translate(-409.955339267622,94.4460485938016)"><circle class="outline" cx="0" cy="0" r="25" fill="#569480" stroke="#447666" stroke-width="2px"/><text text-anchor="middle" pointer-events="none" font-family="sans-serif" dy="1.5625" font-size="25" fill="#FFFFFF"/><text text-anchor="middle" pointer-events="none" x="0" y="5" font-size="10px" fill="#FFFFFF" font-family="sans-serif"> handwrit…</text></g><g class="node" transform="translate(-287.8902448981548,14.882805726982328)"><circle class="outline" cx="0" cy="0" r="25" fill="#F16667" stroke="#eb2728" stroke-width="2px"/><text text-anchor="middle" pointer-events="none" font-family="sans-serif" dy="1.5625" font-size="25" fill="#FFFFFF"/><text text-anchor="middle" pointer-events="none" x="0" y="5" font-size="10px" fill="#FFFFFF" font-family="sans-serif"> bentham</text></g><g class="node" transform="translate(-336.41216716708186,-20.790626596448178)"><circle class="outline" cx="0" cy="0" r="25" fill="#F16667" stroke="#eb2728" stroke-width="2px"/><text text-anchor="middle" pointer-events="none" font-family="sans-serif" dy="1.5625" font-size="25" fill="#FFFFFF"/><text text-anchor="middle" pointer-events="none" x="0" y="5" font-size="10px" fill="#FFFFFF" font-family="sans-serif"> iam-b</text></g><g class="node" transform="translate(-406.30387343380266,-23.77312268765418)"><circle class="outline" cx="0" cy="0" r="25" fill="#F16667" stroke="#eb2728" stroke-width="2px"/><text text-anchor="middle" pointer-events="none" font-family="sans-serif" dy="1.5625" font-size="25" fill="#FFFFFF"/><text text-anchor="middle" pointer-events="none" x="0" y="5" font-size="10px" fill="#FFFFFF" font-family="sans-serif"> iam-d</text></g><g class="node" transform="translate(-418.46768651618635,208.1335059243208)"><circle class="outline" cx="0" cy="0" r="25" fill="#F16667" stroke="#eb2728" stroke-width="2px"/><text text-anchor="middle" pointer-events="none" font-family="sans-serif" dy="1.5625" font-size="25" fill="#FFFFFF"/><text text-anchor="middle" pointer-events="none" x="0" y="5" font-size="10px" fill="#FFFFFF" font-family="sans-serif"> iam</text></g><g class="node" transform="translate(-301.0808452847539,183.54630447913496)"><circle class="outline" cx="0" cy="0" r="25" fill="#F16667" stroke="#eb2728" stroke-width="2px"/><text text-anchor="middle" pointer-events="none" font-family="sans-serif" dy="1.5625" font-size="25" fill="#FFFFFF"/><text text-anchor="middle" pointer-events="none" x="0" y="5" font-size="10px" fill="#FFFFFF" font-family="sans-serif"> read-2016</text></g><g class="node" transform="translate(-352.62640642001213,214.24001243505126)"><circle class="outline" cx="0" cy="0" r="25" fill="#F16667" stroke="#eb2728" stroke-width="2px"/><text text-anchor="middle" pointer-events="none" font-family="sans-serif" dy="1.5625" font-size="25" fill="#FFFFFF"/><text text-anchor="middle" pointer-events="none" x="0" y="5" font-size="10px" fill="#FFFFFF" font-family="sans-serif"> saint-gall</text></g><g class="node" transform="translate(-273.9841799064146,73.24104797745876)"><circle class="outline" cx="0" cy="0" r="25" fill="#F16667" stroke="#eb2728" stroke-width="2px"/><text text-anchor="middle" pointer-events="none" font-family="sans-serif" dy="1.5625" font-size="25" fill="#FFFFFF"/><text text-anchor="middle" pointer-events="none" x="0" y="5" font-size="10px" fill="#FFFFFF" font-family="sans-serif"> hkr</text></g><g class="node" transform="translate(-268.7469914106294,133.02250690673307)"><circle class="outline" cx="0" cy="0" r="25" fill="#F16667" stroke="#eb2728" stroke-width="2px"/><text text-anchor="middle" pointer-events="none" font-family="sans-serif" dy="1.5625" font-size="25" fill="#FFFFFF"/><text text-anchor="middle" pointer-events="none" x="0" y="5" font-size="10px" fill="#FFFFFF" font-family="sans-serif"> digital-p…</text></g></g></svg>