<svg xmlns="http://www.w3.org/2000/svg" width="920.789794921875" height="834.7918090820312" viewBox="-344.6225280761719 -361.1602783203125 920.789794921875 834.7918090820312"><title>Neo4j Graph Visualization</title><desc>Created using Neo4j (http://www.neo4j.com/)</desc><g class="layer relationships"><g class="relationship" transform="translate(447.6947948423781 114.5251617538027) rotate(241.64723872470148)"><path class="outline" fill="#A5ABB6" stroke="none" d="M 25 0.5 L 26.498290466154067 0.5 L 26.498290466154067 -0.5 L 25 -0.5 Z M 49.39672796615407 0.5 L 50.895018432308134 0.5 L 50.895018432308134 3.5 L 57.895018432308134 0 L 50.895018432308134 -3.5 L 50.895018432308134 -0.5 L 49.39672796615407 -0.5 Z"/><text text-anchor="middle" pointer-events="none" font-size="8px" fill="#000000" x="37.94750921615407" y="3" transform="rotate(180 37.94750921615407 0)" font-family="sans-serif">uses</text></g><g class="relationship" transform="translate(406.599861921686 179.51358083084756) rotate(493.1341305444981)"><path class="outline" fill="#A5ABB6" stroke="none" d="M 25 0.5 L 86.42806911803142 0.5 L 86.42806911803142 -0.5 L 25 -0.5 Z M 109.32650661803142 0.5 L 170.75457573606283 0.5 L 170.75457573606283 3.5 L 177.75457573606283 0 L 170.75457573606283 -3.5 L 170.75457573606283 -0.5 L 109.32650661803142 -0.5 Z"/><text text-anchor="middle" pointer-events="none" font-size="8px" fill="#000000" x="97.87728786803142" y="3" transform="rotate(180 97.87728786803142 0)" font-family="sans-serif">uses</text></g><g class="relationship" transform="translate(154.57671192383165 -174.1111497254435) rotate(466.15229574667694)"><path class="outline" fill="#A5ABB6" stroke="none" d="M 25 0.5 L 34.65367442717631 0.5 L 34.65367442717631 -0.5 L 25 -0.5 Z M 57.55211192717631 0.5 L 67.20578635435263 0.5 L 67.20578635435263 3.5 L 74.20578635435263 0 L 67.20578635435263 -3.5 L 67.20578635435263 -0.5 L 57.55211192717631 -0.5 Z"/><text text-anchor="middle" pointer-events="none" font-size="8px" fill="#000000" x="46.10289317717631" y="3" transform="rotate(180 46.10289317717631 0)" font-family="sans-serif">uses</text></g><g class="relationship" transform="translate(-93.30379540605273 349.29262788333574) rotate(417.8612803620327)"><path class="outline" fill="#A5ABB6" stroke="none" d="M 25 0.5 L 28.17098577591453 0.5 L 28.17098577591453 -0.5 L 25 -0.5 Z M 28.17098577591453 0.5 L 31.34197155182906 0.5 L 31.34197155182906 3.5 L 38.34197155182906 0 L 31.34197155182906 -3.5 L 31.34197155182906 -0.5 L 28.17098577591453 -0.5 Z"/><text text-anchor="middle" pointer-events="none" font-size="8px" fill="#000000" x="28.17098577591453" y="3" font-family="sans-serif"/></g><g class="relationship" transform="translate(-93.30379540605273 349.29262788333574) rotate(200.7265420733304)"><path class="outline" fill="#A5ABB6" stroke="none" d="M 25 0.5 L 26.217268418670947 0.5 L 26.217268418670947 -0.5 L 25 -0.5 Z M 49.11570591867095 0.5 L 50.332974337341895 0.5 L 50.332974337341895 3.5 L 57.332974337341895 0 L 50.332974337341895 -3.5 L 50.332974337341895 -0.5 L 49.11570591867095 -0.5 Z"/><text text-anchor="middle" pointer-events="none" font-size="8px" fill="#000000" x="37.66648716867095" y="3" transform="rotate(180 37.66648716867095 0)" font-family="sans-serif">uses</text></g><g class="relationship" transform="translate(-93.30379540605273 349.29262788333574) rotate(306.4061918714249)"><path class="outline" fill="#A5ABB6" stroke="none" d="M 25 0.5 L 24.634067088733172 0.5 L 24.634067088733172 -0.5 L 25 -0.5 Z M 24.634067088733172 0.5 L 24.268134177466344 0.5 L 24.268134177466344 3.5 L 31.268134177466344 0 L 24.268134177466344 -3.5 L 24.268134177466344 -0.5 L 24.634067088733172 -0.5 Z"/><text text-anchor="middle" pointer-events="none" font-size="8px" fill="#000000" x="24.634067088733172" y="3" font-family="sans-serif"/></g><g class="relationship" transform="translate(-179.85676853552903 8.54039326071047) rotate(363.04091483772424)"><path class="outline" fill="#A5ABB6" stroke="none" d="M 25 0.5 L 85.71769585316058 0.5 L 85.71769585316058 -0.5 L 25 -0.5 Z M 108.61613335316058 0.5 L 169.33382920632116 0.5 L 169.33382920632116 3.5 L 176.33382920632116 0 L 169.33382920632116 -3.5 L 169.33382920632116 -0.5 L 108.61613335316058 -0.5 Z"/><text text-anchor="middle" pointer-events="none" font-size="8px" fill="#000000" x="97.16691460316058" y="3" font-family="sans-serif">uses</text></g><g class="relationship" transform="translate(-179.85676853552903 8.54039326071047) rotate(303.38905031250016)"><path class="outline" fill="#A5ABB6" stroke="none" d="M 25 0.5 L 33.26364348522913 0.5 L 33.26364348522913 -0.5 L 25 -0.5 Z M 56.16208098522913 0.5 L 64.42572447045826 0.5 L 64.42572447045826 3.5 L 71.42572447045826 0 L 64.42572447045826 -3.5 L 64.42572447045826 -0.5 L 56.16208098522913 -0.5 Z"/><text text-anchor="middle" pointer-events="none" font-size="8px" fill="#000000" x="44.71286223522913" y="3" font-family="sans-serif">uses</text></g><g class="relationship" transform="translate(290.52312675683015 234.24732614537822) rotate(525.0498872136468)"><path class="outline" fill="#A5ABB6" stroke="none" d="M 25 0.5 L 40.57847327147084 0.5 L 40.57847327147084 -0.5 L 25 -0.5 Z M 63.47691077147084 0.5 L 79.05538404294168 0.5 L 79.05538404294168 3.5 L 86.05538404294168 0 L 79.05538404294168 -3.5 L 79.05538404294168 -0.5 L 63.47691077147084 -0.5 Z"/><text text-anchor="middle" pointer-events="none" font-size="8px" fill="#000000" x="52.02769202147084" y="3" transform="rotate(180 52.02769202147084 0)" font-family="sans-serif">uses</text></g><g class="relationship" transform="translate(39.10734199729427 87.14153851628924) rotate(411.9749381639702)"><path class="outline" fill="#A5ABB6" stroke="none" d="M 25 0.5 L 64.20002614658316 0.5 L 64.20002614658316 -0.5 L 25 -0.5 Z M 87.09846364658316 0.5 L 126.29848979316631 0.5 L 126.29848979316631 3.5 L 133.2984897931663 0 L 126.29848979316631 -3.5 L 126.29848979316631 -0.5 L 87.09846364658316 -0.5 Z"/><text text-anchor="middle" pointer-events="none" font-size="8px" fill="#000000" x="75.64924489658316" y="3" font-family="sans-serif">uses</text></g><g class="relationship" transform="translate(39.10734199729427 87.14153851628924) rotate(402.70712504284654)"><path class="outline" fill="#A5ABB6" stroke="none" d="M 25 0.5 L 25.124570495561017 0.5 L 25.124570495561017 -0.5 L 25 -0.5 Z M 47.57378924556102 0.5 L 47.69835974112203 0.5 L 47.69835974112203 3.5 L 54.69835974112203 0 L 47.69835974112203 -3.5 L 47.69835974112203 -0.5 L 47.57378924556102 -0.5 Z"/><text text-anchor="middle" pointer-events="none" font-size="8px" fill="#000000" x="36.34917987056102" y="3" font-family="sans-serif">us…</text></g><g class="relationship" transform="translate(39.10734199729427 87.14153851628924) rotate(439.08180706285805)"><path class="outline" fill="#A5ABB6" stroke="none" d="M 25 0.5 L 57.50967162776742 0.5 L 57.50967162776742 -0.5 L 25 -0.5 Z M 80.40810912776742 0.5 L 112.91778075553484 0.5 L 112.91778075553484 3.5 L 119.91778075553484 0 L 112.91778075553484 -3.5 L 112.91778075553484 -0.5 L 80.40810912776742 -0.5 Z"/><text text-anchor="middle" pointer-events="none" font-size="8px" fill="#000000" x="68.95889037776742" y="3" font-family="sans-serif">uses</text></g><g class="relationship" transform="translate(197.991505531587 193.82897606359523) rotate(239.87905419040976)"><path class="outline" fill="#A5ABB6" stroke="none" d="M 25 0.5 L 29.247719550653706 0.5 L 29.247719550653706 -0.5 L 25 -0.5 Z M 52.146157050653706 0.5 L 56.39387660130741 0.5 L 56.39387660130741 3.5 L 63.39387660130741 0 L 56.39387660130741 -3.5 L 56.39387660130741 -0.5 L 52.146157050653706 -0.5 Z"/><text text-anchor="middle" pointer-events="none" font-size="8px" fill="#000000" x="40.696938300653706" y="3" transform="rotate(180 40.696938300653706 0)" font-family="sans-serif">uses</text></g><g class="relationship" transform="translate(-196.29363154107492 -49.1760041359252) rotate(377.4577013165816)"><path class="outline" fill="#A5ABB6" stroke="none" d="M 25 0.5 L 99.04510728871944 0.5 L 99.04510728871944 -0.5 L 25 -0.5 Z M 121.94354478871944 0.5 L 195.98865207743887 0.5 L 195.98865207743887 3.5 L 202.98865207743887 0 L 195.98865207743887 -3.5 L 195.98865207743887 -0.5 L 121.94354478871944 -0.5 Z"/><text text-anchor="middle" pointer-events="none" font-size="8px" fill="#000000" x="110.49432603871944" y="3" font-family="sans-serif">uses</text></g><g class="relationship" transform="translate(-196.29363154107492 -49.1760041359252) rotate(341.84206868064075)"><path class="outline" fill="#A5ABB6" stroke="none" d="M 25 0.5 L 33.07224778309804 0.5 L 33.07224778309804 -0.5 L 25 -0.5 Z M 33.07224778309804 0.5 L 41.144495566196085 0.5 L 41.144495566196085 3.5 L 48.144495566196085 0 L 41.144495566196085 -3.5 L 41.144495566196085 -0.5 L 33.07224778309804 -0.5 Z"/><text text-anchor="middle" pointer-events="none" font-size="8px" fill="#000000" x="33.07224778309804" y="3" font-family="sans-serif"/></g><g class="relationship" transform="translate(275.6114231110531 77.07536110567852) rotate(389.5540078335332)"><path class="outline" fill="#A5ABB6" stroke="none" d="M 25 0.5 L 25.693875139188975 0.5 L 25.693875139188975 -0.5 L 25 -0.5 Z M 48.592312639188975 0.5 L 49.28618777837795 0.5 L 49.28618777837795 3.5 L 56.28618777837795 0 L 49.28618777837795 -3.5 L 49.28618777837795 -0.5 L 48.592312639188975 -0.5 Z"/><text text-anchor="middle" pointer-events="none" font-size="8px" fill="#000000" x="37.143093889188975" y="3" font-family="sans-serif">uses</text></g><g class="relationship" transform="translate(117.85726906152513 -10.526788571146113) rotate(356.9342310238403)"><path class="outline" fill="#A5ABB6" stroke="none" d="M 25 0.5 L 37.06536097416385 0.5 L 37.06536097416385 -0.5 L 25 -0.5 Z M 59.96379847416385 0.5 L 72.0291594483277 0.5 L 72.0291594483277 3.5 L 79.0291594483277 0 L 72.0291594483277 -3.5 L 72.0291594483277 -0.5 L 59.96379847416385 -0.5 Z"/><text text-anchor="middle" pointer-events="none" font-size="8px" fill="#000000" x="48.51457972416385" y="3" font-family="sans-serif">uses</text></g><g class="relationship" transform="translate(453.6088531978721 1.8551416570776311) rotate(196.99901423041297)"><path class="outline" fill="#A5ABB6" stroke="none" d="M 25 0.5 L 31.526497804630154 0.5 L 31.526497804630154 -0.5 L 25 -0.5 Z M 54.424935304630154 0.5 L 60.95143310926031 0.5 L 60.95143310926031 3.5 L 67.95143310926031 0 L 60.95143310926031 -3.5 L 60.95143310926031 -0.5 L 54.424935304630154 -0.5 Z"/><text text-anchor="middle" pointer-events="none" font-size="8px" fill="#000000" x="42.975716554630154" y="3" transform="rotate(180 42.975716554630154 0)" font-family="sans-serif">uses</text></g><g class="relationship" transform="translate(312.8100546384694 -219.2322265857094) rotate(501.1828609193201)"><path class="outline" fill="#A5ABB6" stroke="none" d="M 25 0.5 L 36.59701935343612 0.5 L 36.59701935343612 -0.5 L 25 -0.5 Z M 59.49545685343612 0.5 L 71.09247620687223 0.5 L 71.09247620687223 3.5 L 78.09247620687223 0 L 71.09247620687223 -3.5 L 71.09247620687223 -0.5 L 59.49545685343612 -0.5 Z"/><text text-anchor="middle" pointer-events="none" font-size="8px" fill="#000000" x="48.04623810343612" y="3" transform="rotate(180 48.04623810343612 0)" font-family="sans-serif">uses</text></g><g class="relationship" transform="translate(312.8100546384694 -219.2322265857094) rotate(488.6053559829879)"><path class="outline" fill="#A5ABB6" stroke="none" d="M 25 0.5 L 69.87256464670634 0.5 L 69.87256464670634 -0.5 L 25 -0.5 Z M 92.77100214670634 0.5 L 137.64356679341267 0.5 L 137.64356679341267 3.5 L 144.64356679341267 0 L 137.64356679341267 -3.5 L 137.64356679341267 -0.5 L 92.77100214670634 -0.5 Z"/><text text-anchor="middle" pointer-events="none" font-size="8px" fill="#000000" x="81.32178339670634" y="3" transform="rotate(180 81.32178339670634 0)" font-family="sans-serif">uses</text></g><g class="relationship" transform="translate(312.8100546384694 -219.2322265857094) rotate(467.89924198377213)"><path class="outline" fill="#A5ABB6" stroke="none" d="M 25 0.5 L 51.28994445109193 0.5 L 51.28994445109193 -0.5 L 25 -0.5 Z M 74.18838195109193 0.5 L 100.47832640218385 0.5 L 100.47832640218385 3.5 L 107.47832640218385 0 L 100.47832640218385 -3.5 L 100.47832640218385 -0.5 L 74.18838195109193 -0.5 Z"/><text text-anchor="middle" pointer-events="none" font-size="8px" fill="#000000" x="62.73916320109193" y="3" transform="rotate(180 62.73916320109193 0)" font-family="sans-serif">uses</text></g><g class="relationship" transform="translate(172.8706064004707 42.00605649002213) rotate(417.0644104296619)"><path class="outline" fill="#A5ABB6" stroke="none" d="M 25 0.5 L 62.094157549242084 0.5 L 62.094157549242084 -0.5 L 25 -0.5 Z M 84.99259504924208 0.5 L 122.08675259848417 0.5 L 122.08675259848417 3.5 L 129.08675259848417 0 L 122.08675259848417 -3.5 L 122.08675259848417 -0.5 L 84.99259504924208 -0.5 Z"/><text text-anchor="middle" pointer-events="none" font-size="8px" fill="#000000" x="73.54337629924208" y="3" font-family="sans-serif">uses</text></g><g class="relationship" transform="translate(172.8706064004707 42.00605649002213) rotate(422.89632197808464)"><path class="outline" fill="#A5ABB6" stroke="none" d="M 25 0.5 L 31.99573999823017 0.5 L 31.99573999823017 -0.5 L 25 -0.5 Z M 54.89417749823017 0.5 L 61.88991749646034 0.5 L 61.88991749646034 3.5 L 68.88991749646034 0 L 61.88991749646034 -3.5 L 61.88991749646034 -0.5 L 54.89417749823017 -0.5 Z"/><text text-anchor="middle" pointer-events="none" font-size="8px" fill="#000000" x="43.44495874823017" y="3" font-family="sans-serif">uses</text></g><g class="relationship" transform="translate(172.8706064004707 42.00605649002213) rotate(403.19591553768004)"><path class="outline" fill="#A5ABB6" stroke="none" d="M 25 0.5 L 83.94342201674024 0.5 L 83.94342201674024 -0.5 L 25 -0.5 Z M 106.84185951674024 0.5 L 165.7852815334805 0.5 L 165.7852815334805 3.5 L 172.7852815334805 0 L 165.7852815334805 -3.5 L 165.7852815334805 -0.5 L 106.84185951674024 -0.5 Z"/><text text-anchor="middle" pointer-events="none" font-size="8px" fill="#000000" x="95.39264076674024" y="3" font-family="sans-serif">uses</text></g><g class="relationship" transform="translate(492.19902737784923 55.81592959066366) rotate(189.63720118402517)"><path class="outline" fill="#A5ABB6" stroke="none" d="M 25 0.5 L 27.58655401593567 0.5 L 27.58655401593567 -0.5 L 25 -0.5 Z M 50.48499151593567 0.5 L 53.07154553187134 0.5 L 53.07154553187134 3.5 L 60.07154553187134 0 L 53.07154553187134 -3.5 L 53.07154553187134 -0.5 L 50.48499151593567 -0.5 Z"/><text text-anchor="middle" pointer-events="none" font-size="8px" fill="#000000" x="39.03577276593567" y="3" transform="rotate(180 39.03577276593567 0)" font-family="sans-serif">uses</text></g><g class="relationship" transform="translate(-65.4561619174418 -84.68832576772387) rotate(528.2858505730896)"><path class="outline" fill="#A5ABB6" stroke="none" d="M 25 0.5 L 27.820056039864358 0.5 L 27.820056039864358 -0.5 L 25 -0.5 Z M 27.820056039864358 0.5 L 30.640112079728716 0.5 L 30.640112079728716 3.5 L 37.640112079728716 0 L 30.640112079728716 -3.5 L 30.640112079728716 -0.5 L 27.820056039864358 -0.5 Z"/><text text-anchor="middle" pointer-events="none" font-size="8px" fill="#000000" x="27.820056039864358" y="3" transform="rotate(180 27.820056039864358 0)" font-family="sans-serif"/></g><g class="relationship" transform="translate(-65.4561619174418 -84.68832576772387) rotate(410.17534818544846)"><path class="outline" fill="#A5ABB6" stroke="none" d="M 25 0.5 L 52.69935022066849 0.5 L 52.69935022066849 -0.5 L 25 -0.5 Z M 75.59778772066849 0.5 L 103.29713794133698 0.5 L 103.29713794133698 3.5 L 110.29713794133698 0 L 103.29713794133698 -3.5 L 103.29713794133698 -0.5 L 75.59778772066849 -0.5 Z"/><text text-anchor="middle" pointer-events="none" font-size="8px" fill="#000000" x="64.14856897066849" y="3" font-family="sans-serif">uses</text></g><g class="relationship" transform="translate(-240.09498401731787 -8.376525265967391) rotate(366.02926855557604)"><path class="outline" fill="#A5ABB6" stroke="none" d="M 25 0.5 L 116.42175094771076 0.5 L 116.42175094771076 -0.5 L 25 -0.5 Z M 139.32018844771076 0.5 L 230.74193939542153 0.5 L 230.74193939542153 3.5 L 237.74193939542153 0 L 230.74193939542153 -3.5 L 230.74193939542153 -0.5 L 139.32018844771076 -0.5 Z"/><text text-anchor="middle" pointer-events="none" font-size="8px" fill="#000000" x="127.87096969771076" y="3" font-family="sans-serif">uses</text></g><g class="relationship" transform="translate(-240.09498401731787 -8.376525265967391) rotate(330.6957051134899)"><path class="outline" fill="#A5ABB6" stroke="none" d="M 25 0.5 L 50.015861772967824 0.5 L 50.015861772967824 -0.5 L 25 -0.5 Z M 72.91429927296782 0.5 L 97.93016104593565 0.5 L 97.93016104593565 3.5 L 104.93016104593565 0 L 97.93016104593565 -3.5 L 97.93016104593565 -0.5 L 72.91429927296782 -0.5 Z"/><text text-anchor="middle" pointer-events="none" font-size="8px" fill="#000000" x="61.465080522967824" y="3" font-family="sans-serif">uses</text></g><g class="relationship" transform="translate(306.2882125506497 7.864737333935388) rotate(518.0582586176622)"><path class="outline" fill="#A5ABB6" stroke="none" d="M 25 0.5 L 32.392743103373824 0.5 L 32.392743103373824 -0.5 L 25 -0.5 Z M 32.392743103373824 0.5 L 39.78548620674765 0.5 L 39.78548620674765 3.5 L 46.78548620674765 0 L 39.78548620674765 -3.5 L 39.78548620674765 -0.5 L 32.392743103373824 -0.5 Z"/><text text-anchor="middle" pointer-events="none" font-size="8px" fill="#000000" x="32.392743103373824" y="3" transform="rotate(180 32.392743103373824 0)" font-family="sans-serif"/></g><g class="relationship" transform="translate(-48.78379516506561 -142.1170324109678) rotate(241.05177536849698)"><path class="outline" fill="#A5ABB6" stroke="none" d="M 25 0.5 L 32.313869381397275 0.5 L 32.313869381397275 -0.5 L 25 -0.5 Z M 55.212306881397275 0.5 L 62.52617626279455 0.5 L 62.52617626279455 3.5 L 69.52617626279455 0 L 62.52617626279455 -3.5 L 62.52617626279455 -0.5 L 55.212306881397275 -0.5 Z"/><text text-anchor="middle" pointer-events="none" font-size="8px" fill="#000000" x="43.763088131397275" y="3" transform="rotate(180 43.763088131397275 0)" font-family="sans-serif">uses</text></g><g class="relationship" transform="translate(-208.09592672100027 -167.39346480651088) rotate(399.14149852726274)"><path class="outline" fill="#A5ABB6" stroke="none" d="M 25 0.5 L 132.86706557336603 0.5 L 132.86706557336603 -0.5 L 25 -0.5 Z M 155.76550307336603 0.5 L 263.63256864673207 0.5 L 263.63256864673207 3.5 L 270.63256864673207 0 L 263.63256864673207 -3.5 L 263.63256864673207 -0.5 L 155.76550307336603 -0.5 Z"/><text text-anchor="middle" pointer-events="none" font-size="8px" fill="#000000" x="144.31628432336603" y="3" font-family="sans-serif">uses</text></g><g class="relationship" transform="translate(-208.09592672100027 -167.39346480651088) rotate(409.5676245218089)"><path class="outline" fill="#A5ABB6" stroke="none" d="M 25 0.5 L 47.7323501826082 0.5 L 47.7323501826082 -0.5 L 25 -0.5 Z M 70.6307876826082 0.5 L 93.3631378652164 0.5 L 93.3631378652164 3.5 L 100.3631378652164 0 L 93.3631378652164 -3.5 L 93.3631378652164 -0.5 L 70.6307876826082 -0.5 Z"/><text text-anchor="middle" pointer-events="none" font-size="8px" fill="#000000" x="59.1815689326082" y="3" font-family="sans-serif">uses</text></g><g class="relationship" transform="translate(-104.27754805763084 -164.72552388493412) rotate(463.64335855191155)"><path class="outline" fill="#A5ABB6" stroke="none" d="M 25 0.5 L 32.77490566590156 0.5 L 32.77490566590156 -0.5 L 25 -0.5 Z M 55.67334316590156 0.5 L 63.44824883180311 0.5 L 63.44824883180311 3.5 L 70.44824883180311 0 L 63.44824883180311 -3.5 L 63.44824883180311 -0.5 L 55.67334316590156 -0.5 Z"/><text text-anchor="middle" pointer-events="none" font-size="8px" fill="#000000" x="44.22412441590156" y="3" transform="rotate(180 44.22412441590156 0)" font-family="sans-serif">uses</text></g><g class="relationship" transform="translate(-104.27754805763084 -164.72552388493412) rotate(415.70184395745014)"><path class="outline" fill="#A5ABB6" stroke="none" d="M 25 0.5 L 96.38284135520762 0.5 L 96.38284135520762 -0.5 L 25 -0.5 Z M 119.28127885520762 0.5 L 190.66412021041523 0.5 L 190.66412021041523 3.5 L 197.66412021041523 0 L 190.66412021041523 -3.5 L 190.66412021041523 -0.5 L 119.28127885520762 -0.5 Z"/><text text-anchor="middle" pointer-events="none" font-size="8px" fill="#000000" x="107.83206010520762" y="3" font-family="sans-serif">uses</text></g><g class="relationship" transform="translate(12.564985402555294 -219.521368554454) rotate(230.94018109823952)"><path class="outline" fill="#A5ABB6" stroke="none" d="M 25 0.5 L 31.985096540717116 0.5 L 31.985096540717116 -0.5 L 25 -0.5 Z M 31.985096540717116 0.5 L 38.97019308143423 0.5 L 38.97019308143423 3.5 L 45.97019308143423 0 L 38.97019308143423 -3.5 L 38.97019308143423 -0.5 L 31.985096540717116 -0.5 Z"/><text text-anchor="middle" pointer-events="none" font-size="8px" fill="#000000" x="31.985096540717116" y="3" transform="rotate(180 31.985096540717116 0)" font-family="sans-serif"/></g><g class="relationship" transform="translate(12.564985402555294 -219.521368554454) rotate(337.22747518589983)"><path class="outline" fill="#A5ABB6" stroke="none" d="M 25 0.5 L 26.865922962030425 0.5 L 26.865922962030425 -0.5 L 25 -0.5 Z M 45.315141712030425 0.5 L 47.18106467406085 0.5 L 47.18106467406085 3.5 L 54.18106467406085 0 L 47.18106467406085 -3.5 L 47.18106467406085 -0.5 L 45.315141712030425 -0.5 Z"/><text text-anchor="middle" pointer-events="none" font-size="8px" fill="#000000" x="36.090532337030425" y="3" font-family="sans-serif">u…</text></g><g class="relationship" transform="translate(262.7584380521204 -252.08281159744425) rotate(446.6381564903517)"><path class="outline" fill="#A5ABB6" stroke="none" d="M 25 0.5 L 64.64613560235078 0.5 L 64.64613560235078 -0.5 L 25 -0.5 Z M 87.54457310235078 0.5 L 127.19070870470156 0.5 L 127.19070870470156 3.5 L 134.19070870470156 0 L 127.19070870470156 -3.5 L 127.19070870470156 -0.5 L 87.54457310235078 -0.5 Z"/><text text-anchor="middle" pointer-events="none" font-size="8px" fill="#000000" x="76.09535435235078" y="3" font-family="sans-serif">uses</text></g><g class="relationship" transform="translate(262.7584380521204 -252.08281159744425) rotate(467.25366824422497)"><path class="outline" fill="#A5ABB6" stroke="none" d="M 25 0.5 L 36.08358569617499 0.5 L 36.08358569617499 -0.5 L 25 -0.5 Z M 58.98202319617499 0.5 L 70.06560889234999 0.5 L 70.06560889234999 3.5 L 77.06560889234999 0 L 70.06560889234999 -3.5 L 70.06560889234999 -0.5 L 58.98202319617499 -0.5 Z"/><text text-anchor="middle" pointer-events="none" font-size="8px" fill="#000000" x="47.53280444617499" y="3" transform="rotate(180 47.53280444617499 0)" font-family="sans-serif">uses</text></g><g class="relationship" transform="translate(262.7584380521204 -252.08281159744425) rotate(468.6397372421407)"><path class="outline" fill="#A5ABB6" stroke="none" d="M 25 0.5 L 72.33965275686866 0.5 L 72.33965275686866 -0.5 L 25 -0.5 Z M 95.23809025686866 0.5 L 142.57774301373732 0.5 L 142.57774301373732 3.5 L 149.57774301373732 0 L 142.57774301373732 -3.5 L 142.57774301373732 -0.5 L 95.23809025686866 -0.5 Z"/><text text-anchor="middle" pointer-events="none" font-size="8px" fill="#000000" x="83.78887150686866" y="3" transform="rotate(180 83.78887150686866 0)" font-family="sans-serif">uses</text></g><g class="relationship" transform="translate(204.61356981393055 -236.9000234558252) rotate(273.7589346650402)"><path class="outline" fill="#A5ABB6" stroke="none" d="M 25 0.5 L 32.783589089451134 0.5 L 32.783589089451134 -0.5 L 25 -0.5 Z M 55.682026589451134 0.5 L 63.46561567890227 0.5 L 63.46561567890227 3.5 L 70.46561567890227 0 L 63.46561567890227 -3.5 L 63.46561567890227 -0.5 L 55.682026589451134 -0.5 Z"/><text text-anchor="middle" pointer-events="none" font-size="8px" fill="#000000" x="44.232807839451134" y="3" font-family="sans-serif">uses</text></g><g class="relationship" transform="translate(204.61356981393055 -236.9000234558252) rotate(233.94581687789378)"><path class="outline" fill="#A5ABB6" stroke="none" d="M 25 0.5 L 43.473685281041604 0.5 L 43.473685281041604 -0.5 L 25 -0.5 Z M 66.37212278104161 0.5 L 84.84580806208321 0.5 L 84.84580806208321 3.5 L 91.84580806208321 0 L 84.84580806208321 -3.5 L 84.84580806208321 -0.5 L 66.37212278104161 -0.5 Z"/><text text-anchor="middle" pointer-events="none" font-size="8px" fill="#000000" x="54.922904031041604" y="3" transform="rotate(180 54.922904031041604 0)" font-family="sans-serif">uses</text></g><g class="relationship" transform="translate(204.61356981393055 -236.9000234558252) rotate(321.75203745402655)"><path class="outline" fill="#A5ABB6" stroke="none" d="M 25 0.5 L 39.97671754019762 0.5 L 39.97671754019762 -0.5 L 25 -0.5 Z M 62.87515504019762 0.5 L 77.85187258039524 0.5 L 77.85187258039524 3.5 L 84.85187258039524 0 L 77.85187258039524 -3.5 L 77.85187258039524 -0.5 L 62.87515504019762 -0.5 Z"/><text text-anchor="middle" pointer-events="none" font-size="8px" fill="#000000" x="51.42593629019762" y="3" font-family="sans-serif">uses</text></g><g class="relationship" transform="translate(69.35319942612932 -67.6713059894629) rotate(229.26556701001624)"><path class="outline" fill="#A5ABB6" stroke="none" d="M 25 0.5 L 29.554312470713654 0.5 L 29.554312470713654 -0.5 L 25 -0.5 Z M 52.452749970713654 0.5 L 57.00706244142731 0.5 L 57.00706244142731 3.5 L 64.00706244142731 0 L 57.00706244142731 -3.5 L 57.00706244142731 -0.5 L 52.452749970713654 -0.5 Z"/><text text-anchor="middle" pointer-events="none" font-size="8px" fill="#000000" x="41.003531220713654" y="3" transform="rotate(180 41.003531220713654 0)" font-family="sans-serif">uses</text></g><g class="relationship" transform="translate(69.35319942612932 -67.6713059894629) rotate(271.52798018868896)"><path class="outline" fill="#A5ABB6" stroke="none" d="M 25 0.5 L 37.828542678255054 0.5 L 37.828542678255054 -0.5 L 25 -0.5 Z M 60.726980178255054 0.5 L 73.55552285651011 0.5 L 73.55552285651011 3.5 L 80.55552285651011 0 L 73.55552285651011 -3.5 L 73.55552285651011 -0.5 L 60.726980178255054 -0.5 Z"/><text text-anchor="middle" pointer-events="none" font-size="8px" fill="#000000" x="49.277761428255054" y="3" font-family="sans-serif">uses</text></g><g class="relationship" transform="translate(-155.39748552001382 -195.99479623851835) rotate(410.63008470593576)"><path class="outline" fill="#A5ABB6" stroke="none" d="M 25 0.5 L 124.24688598663568 0.5 L 124.24688598663568 -0.5 L 25 -0.5 Z M 147.14532348663568 0.5 L 246.39220947327135 0.5 L 246.39220947327135 3.5 L 253.39220947327135 0 L 246.39220947327135 -3.5 L 246.39220947327135 -0.5 L 147.14532348663568 -0.5 Z"/><text text-anchor="middle" pointer-events="none" font-size="8px" fill="#000000" x="135.69610473663568" y="3" font-family="sans-serif">uses</text></g><g class="relationship" transform="translate(-155.39748552001382 -195.99479623851835) rotate(437.01202483884185)"><path class="outline" fill="#A5ABB6" stroke="none" d="M 25 0.5 L 48.690990947848746 0.5 L 48.690990947848746 -0.5 L 25 -0.5 Z M 71.58942844784875 0.5 L 95.28041939569749 0.5 L 95.28041939569749 3.5 L 102.28041939569749 0 L 95.28041939569749 -3.5 L 95.28041939569749 -0.5 L 71.58942844784875 -0.5 Z"/><text text-anchor="middle" pointer-events="none" font-size="8px" fill="#000000" x="60.140209697848746" y="3" font-family="sans-serif">uses</text></g><g class="relationship" transform="translate(345.390957774199 -168.97383864574218) rotate(509.26401162326385)"><path class="outline" fill="#A5ABB6" stroke="none" d="M 25 0.5 L 65.57748026072039 0.5 L 65.57748026072039 -0.5 L 25 -0.5 Z M 88.47591776072039 0.5 L 129.05339802144078 0.5 L 129.05339802144078 3.5 L 136.05339802144078 0 L 129.05339802144078 -3.5 L 129.05339802144078 -0.5 L 88.47591776072039 -0.5 Z"/><text text-anchor="middle" pointer-events="none" font-size="8px" fill="#000000" x="77.02669901072039" y="3" transform="rotate(180 77.02669901072039 0)" font-family="sans-serif">uses</text></g><g class="relationship" transform="translate(345.390957774199 -168.97383864574218) rotate(532.7498037591666)"><path class="outline" fill="#A5ABB6" stroke="none" d="M 25 0.5 L 41.95851438206719 0.5 L 41.95851438206719 -0.5 L 25 -0.5 Z M 64.8569518820672 0.5 L 81.81546626413439 0.5 L 81.81546626413439 3.5 L 88.81546626413439 0 L 81.81546626413439 -3.5 L 81.81546626413439 -0.5 L 64.8569518820672 -0.5 Z"/><text text-anchor="middle" pointer-events="none" font-size="8px" fill="#000000" x="53.40773313206719" y="3" transform="rotate(180 53.40773313206719 0)" font-family="sans-serif">uses</text></g><g class="relationship" transform="translate(345.390957774199 -168.97383864574218) rotate(494.03541116671704)"><path class="outline" fill="#A5ABB6" stroke="none" d="M 25 0.5 L 37.77487009688389 0.5 L 37.77487009688389 -0.5 L 25 -0.5 Z M 60.67330759688389 0.5 L 73.44817769376778 0.5 L 73.44817769376778 3.5 L 80.44817769376778 0 L 73.44817769376778 -3.5 L 73.44817769376778 -0.5 L 60.67330759688389 -0.5 Z"/><text text-anchor="middle" pointer-events="none" font-size="8px" fill="#000000" x="49.22408884688389" y="3" transform="rotate(180 49.22408884688389 0)" font-family="sans-serif">uses</text></g><g class="relationship" transform="translate(-236.42347865735053 129.48563436907574) rotate(327.61645143938586)"><path class="outline" fill="#A5ABB6" stroke="none" d="M 25 0.5 L 102.59981639375326 0.5 L 102.59981639375326 -0.5 L 25 -0.5 Z M 125.49825389375326 0.5 L 203.09807028750652 0.5 L 203.09807028750652 3.5 L 210.09807028750652 0 L 203.09807028750652 -3.5 L 203.09807028750652 -0.5 L 125.49825389375326 -0.5 Z"/><text text-anchor="middle" pointer-events="none" font-size="8px" fill="#000000" x="114.04903514375326" y="3" font-family="sans-serif">uses</text></g><g class="relationship" transform="translate(82.86264798530192 45.20562446290148) rotate(455.0582507397065)"><path class="outline" fill="#A5ABB6" stroke="none" d="M 25 0.5 L 77.52616121333371 0.5 L 77.52616121333371 -0.5 L 25 -0.5 Z M 100.42459871333371 0.5 L 152.95075992666742 0.5 L 152.95075992666742 3.5 L 159.95075992666742 0 L 152.95075992666742 -3.5 L 152.95075992666742 -0.5 L 100.42459871333371 -0.5 Z"/><text text-anchor="middle" pointer-events="none" font-size="8px" fill="#000000" x="88.97537996333371" y="3" transform="rotate(180 88.97537996333371 0)" font-family="sans-serif">uses</text></g><g class="relationship" transform="translate(82.86264798530192 45.20562446290148) rotate(441.2296117105861)"><path class="outline" fill="#A5ABB6" stroke="none" d="M 25 0.5 L 33.614324748957394 0.5 L 33.614324748957394 -0.5 L 25 -0.5 Z M 56.512762248957394 0.5 L 65.12708699791479 0.5 L 65.12708699791479 3.5 L 72.12708699791479 0 L 65.12708699791479 -3.5 L 65.12708699791479 -0.5 L 56.512762248957394 -0.5 Z"/><text text-anchor="middle" pointer-events="none" font-size="8px" fill="#000000" x="45.063543498957394" y="3" font-family="sans-serif">uses</text></g><g class="relationship" transform="translate(82.86264798530192 45.20562446290148) rotate(432.11988119612573)"><path class="outline" fill="#A5ABB6" stroke="none" d="M 25 0.5 L 72.5962317163427 0.5 L 72.5962317163427 -0.5 L 25 -0.5 Z M 95.4946692163427 0.5 L 143.0909009326854 0.5 L 143.0909009326854 3.5 L 150.0909009326854 0 L 143.0909009326854 -3.5 L 143.0909009326854 -0.5 L 95.4946692163427 -0.5 Z"/><text text-anchor="middle" pointer-events="none" font-size="8px" fill="#000000" x="84.0454504663427" y="3" font-family="sans-serif">uses</text></g><g class="relationship" transform="translate(-98.4442773699763 47.05190797527173) rotate(511.4874999907356)"><path class="outline" fill="#A5ABB6" stroke="none" d="M 25 0.5 L 33.025824304330875 0.5 L 33.025824304330875 -0.5 L 25 -0.5 Z M 33.025824304330875 0.5 L 41.05164860866175 0.5 L 41.05164860866175 3.5 L 48.05164860866175 0 L 41.05164860866175 -3.5 L 41.05164860866175 -0.5 L 33.025824304330875 -0.5 Z"/><text text-anchor="middle" pointer-events="none" font-size="8px" fill="#000000" x="33.025824304330875" y="3" transform="rotate(180 33.025824304330875 0)" font-family="sans-serif"/></g><g class="relationship" transform="translate(-98.4442773699763 47.05190797527173) rotate(484.0683279522222)"><path class="outline" fill="#A5ABB6" stroke="none" d="M 25 0.5 L 41.763213221132865 0.5 L 41.763213221132865 -0.5 L 25 -0.5 Z M 64.66165072113287 0.5 L 81.42486394226573 0.5 L 81.42486394226573 3.5 L 88.42486394226573 0 L 81.42486394226573 -3.5 L 81.42486394226573 -0.5 L 64.66165072113287 -0.5 Z"/><text text-anchor="middle" pointer-events="none" font-size="8px" fill="#000000" x="53.212431971132865" y="3" transform="rotate(180 53.212431971132865 0)" font-family="sans-serif">uses</text></g><g class="relationship" transform="translate(-98.4442773699763 47.05190797527173) rotate(396.4730429890647)"><path class="outline" fill="#A5ABB6" stroke="none" d="M 25 0.5 L 31.731489599314607 0.5 L 31.731489599314607 -0.5 L 25 -0.5 Z M 54.62992709931461 0.5 L 61.36141669862921 0.5 L 61.36141669862921 3.5 L 68.36141669862921 0 L 61.36141669862921 -3.5 L 61.36141669862921 -0.5 L 54.62992709931461 -0.5 Z"/><text text-anchor="middle" pointer-events="none" font-size="8px" fill="#000000" x="43.18070834931461" y="3" font-family="sans-serif">uses</text></g><g class="relationship" transform="translate(-209.73828535587182 -107.71728923131707) rotate(388.7966456985882)"><path class="outline" fill="#A5ABB6" stroke="none" d="M 25 0.5 L 116.81082755133377 0.5 L 116.81082755133377 -0.5 L 25 -0.5 Z M 139.70926505133377 0.5 L 231.52009260266755 0.5 L 231.52009260266755 3.5 L 238.52009260266755 0 L 231.52009260266755 -3.5 L 231.52009260266755 -0.5 L 139.70926505133377 -0.5 Z"/><text text-anchor="middle" pointer-events="none" font-size="8px" fill="#000000" x="128.26004630133377" y="3" font-family="sans-serif">uses</text></g><g class="relationship" transform="translate(-209.73828535587182 -107.71728923131707) rotate(383.31413717522906)"><path class="outline" fill="#A5ABB6" stroke="none" d="M 25 0.5 L 30.211530413700288 0.5 L 30.211530413700288 -0.5 L 25 -0.5 Z M 53.10996791370029 0.5 L 58.321498327400576 0.5 L 58.321498327400576 3.5 L 65.32149832740058 0 L 58.321498327400576 -3.5 L 58.321498327400576 -0.5 L 53.10996791370029 -0.5 Z"/><text text-anchor="middle" pointer-events="none" font-size="8px" fill="#000000" x="41.66074916370029" y="3" font-family="sans-serif">uses</text></g><g class="relationship" transform="translate(372.99930691098666 -221.89623617905752) rotate(500.8381323678192)"><path class="outline" fill="#A5ABB6" stroke="none" d="M 25 0.5 L 92.12217021672528 0.5 L 92.12217021672528 -0.5 L 25 -0.5 Z M 115.02060771672528 0.5 L 182.14277793345056 0.5 L 182.14277793345056 3.5 L 189.14277793345056 0 L 182.14277793345056 -3.5 L 182.14277793345056 -0.5 L 115.02060771672528 -0.5 Z"/><text text-anchor="middle" pointer-events="none" font-size="8px" fill="#000000" x="103.57138896672528" y="3" transform="rotate(180 103.57138896672528 0)" font-family="sans-serif">uses</text></g><g class="relationship" transform="translate(372.99930691098666 -221.89623617905752) rotate(488.0912667046706)"><path class="outline" fill="#A5ABB6" stroke="none" d="M 25 0.5 L 66.8331372939155 0.5 L 66.8331372939155 -0.5 L 25 -0.5 Z M 89.7315747939155 0.5 L 131.564712087831 0.5 L 131.564712087831 3.5 L 138.564712087831 0 L 131.564712087831 -3.5 L 131.564712087831 -0.5 L 89.7315747939155 -0.5 Z"/><text text-anchor="middle" pointer-events="none" font-size="8px" fill="#000000" x="78.2823560439155" y="3" transform="rotate(180 78.2823560439155 0)" font-family="sans-serif">uses</text></g><g class="relationship" transform="translate(372.99930691098666 -221.89623617905752) rotate(514.4121909273202)"><path class="outline" fill="#A5ABB6" stroke="none" d="M 25 0.5 L 62.947442729752865 0.5 L 62.947442729752865 -0.5 L 25 -0.5 Z M 85.84588022975286 0.5 L 123.79332295950573 0.5 L 123.79332295950573 3.5 L 130.79332295950573 0 L 123.79332295950573 -3.5 L 123.79332295950573 -0.5 L 85.84588022975286 -0.5 Z"/><text text-anchor="middle" pointer-events="none" font-size="8px" fill="#000000" x="74.39666147975286" y="3" transform="rotate(180 74.39666147975286 0)" font-family="sans-serif">uses</text></g><g class="relationship" transform="translate(12.640932727444692 444.63154062172043) rotate(214.2310790895765)"><path class="outline" fill="#A5ABB6" stroke="none" d="M 25 0.5 L 95.69092129010305 0.5 L 95.69092129010305 -0.5 L 25 -0.5 Z M 118.58935879010305 0.5 L 189.2802800802061 0.5 L 189.2802800802061 3.5 L 196.2802800802061 0 L 189.2802800802061 -3.5 L 189.2802800802061 -0.5 L 118.58935879010305 -0.5 Z"/><text text-anchor="middle" pointer-events="none" font-size="8px" fill="#000000" x="107.14014004010305" y="3" transform="rotate(180 107.14014004010305 0)" font-family="sans-serif">uses</text></g><g class="relationship" transform="translate(12.640932727444692 444.63154062172043) rotate(209.99436539918486)"><path class="outline" fill="#A5ABB6" stroke="none" d="M 25 0.5 L 26.761185308838414 0.5 L 26.761185308838414 -0.5 L 25 -0.5 Z M 49.659622808838414 0.5 L 51.42080811767683 0.5 L 51.42080811767683 3.5 L 58.42080811767683 0 L 51.42080811767683 -3.5 L 51.42080811767683 -0.5 L 49.659622808838414 -0.5 Z"/><text text-anchor="middle" pointer-events="none" font-size="8px" fill="#000000" x="38.210404058838414" y="3" transform="rotate(180 38.210404058838414 0)" font-family="sans-serif">uses</text></g><g class="relationship" transform="translate(12.640932727444692 444.63154062172043) rotate(242.71055541318532)"><path class="outline" fill="#A5ABB6" stroke="none" d="M 25 0.5 L 64.16910302352058 0.5 L 64.16910302352058 -0.5 L 25 -0.5 Z M 87.06754052352058 0.5 L 126.23664354704115 0.5 L 126.23664354704115 3.5 L 133.23664354704115 0 L 126.23664354704115 -3.5 L 126.23664354704115 -0.5 L 87.06754052352058 -0.5 Z"/><text text-anchor="middle" pointer-events="none" font-size="8px" fill="#000000" x="75.61832177352058" y="3" transform="rotate(180 75.61832177352058 0)" font-family="sans-serif">uses</text></g><g class="relationship" transform="translate(-192.78163224427612 212.17905193887384) rotate(188.87322166262788)"><path class="outline" fill="#A5ABB6" stroke="none" d="M 25 0.5 L 47.21523126836563 0.5 L 47.21523126836563 -0.5 L 25 -0.5 Z M 70.11366876836563 0.5 L 92.32890003673126 0.5 L 92.32890003673126 3.5 L 99.32890003673126 0 L 92.32890003673126 -3.5 L 92.32890003673126 -0.5 L 70.11366876836563 -0.5 Z"/><text text-anchor="middle" pointer-events="none" font-size="8px" fill="#000000" x="58.66445001836563" y="3" transform="rotate(180 58.66445001836563 0)" font-family="sans-serif">uses</text></g><g class="relationship" transform="translate(-192.78163224427612 212.17905193887384) rotate(519.9391753362576)"><path class="outline" fill="#A5ABB6" stroke="none" d="M 25 0.5 L 31.930515740727373 0.5 L 31.930515740727373 -0.5 L 25 -0.5 Z M 54.82895324072737 0.5 L 61.759468981454745 0.5 L 61.759468981454745 3.5 L 68.75946898145475 0 L 61.759468981454745 -3.5 L 61.759468981454745 -0.5 L 54.82895324072737 -0.5 Z"/><text text-anchor="middle" pointer-events="none" font-size="8px" fill="#000000" x="43.37973449072737" y="3" transform="rotate(180 43.37973449072737 0)" font-family="sans-serif">uses</text></g><g class="relationship" transform="translate(-192.78163224427612 212.17905193887384) rotate(469.1220580744122)"><path class="outline" fill="#A5ABB6" stroke="none" d="M 25 0.5 L 25.49828536814832 0.5 L 25.49828536814832 -0.5 L 25 -0.5 Z M 25.49828536814832 0.5 L 25.99657073629664 0.5 L 25.99657073629664 3.5 L 32.99657073629664 0 L 25.99657073629664 -3.5 L 25.99657073629664 -0.5 L 25.49828536814832 -0.5 Z"/><text text-anchor="middle" pointer-events="none" font-size="8px" fill="#000000" x="25.49828536814832" y="3" transform="rotate(180 25.49828536814832 0)" font-family="sans-serif"/></g><g class="relationship" transform="translate(377.5989273266117 -118.37382755143739) rotate(194.02058774750753)"><path class="outline" fill="#A5ABB6" stroke="none" d="M 25 0.5 L 59.83542344126427 0.5 L 59.83542344126427 -0.5 L 25 -0.5 Z M 82.73386094126427 0.5 L 117.56928438252854 0.5 L 117.56928438252854 3.5 L 124.56928438252854 0 L 117.56928438252854 -3.5 L 117.56928438252854 -0.5 L 82.73386094126427 -0.5 Z"/><text text-anchor="middle" pointer-events="none" font-size="8px" fill="#000000" x="71.28464219126427" y="3" transform="rotate(180 71.28464219126427 0)" font-family="sans-serif">uses</text></g><g class="relationship" transform="translate(377.5989273266117 -118.37382755143739) rotate(529.4721939551868)"><path class="outline" fill="#A5ABB6" stroke="none" d="M 25 0.5 L 71.83081877563458 0.5 L 71.83081877563458 -0.5 L 25 -0.5 Z M 94.72925627563458 0.5 L 141.56007505126917 0.5 L 141.56007505126917 3.5 L 148.56007505126917 0 L 141.56007505126917 -3.5 L 141.56007505126917 -0.5 L 94.72925627563458 -0.5 Z"/><text text-anchor="middle" pointer-events="none" font-size="8px" fill="#000000" x="83.28003752563458" y="3" transform="rotate(180 83.28003752563458 0)" font-family="sans-serif">uses</text></g><g class="relationship" transform="translate(377.5989273266117 -118.37382755143739) rotate(526.5625599050306)"><path class="outline" fill="#A5ABB6" stroke="none" d="M 25 0.5 L 39.28822027216289 0.5 L 39.28822027216289 -0.5 L 25 -0.5 Z M 62.18665777216289 0.5 L 76.47487804432578 0.5 L 76.47487804432578 3.5 L 83.47487804432578 0 L 76.47487804432578 -3.5 L 76.47487804432578 -0.5 L 62.18665777216289 -0.5 Z"/><text text-anchor="middle" pointer-events="none" font-size="8px" fill="#000000" x="50.73743902216289" y="3" transform="rotate(180 50.73743902216289 0)" font-family="sans-serif">uses</text></g><g class="relationship" transform="translate(-157.05972067173442 -136.15561302323113) rotate(424.75260375794187)"><path class="outline" fill="#A5ABB6" stroke="none" d="M 25 0.5 L 31.981957481021766 0.5 L 31.981957481021766 -0.5 L 25 -0.5 Z M 31.981957481021766 0.5 L 38.96391496204353 0.5 L 38.96391496204353 3.5 L 45.96391496204353 0 L 38.96391496204353 -3.5 L 38.96391496204353 -0.5 L 31.981957481021766 -0.5 Z"/><text text-anchor="middle" pointer-events="none" font-size="8px" fill="#000000" x="31.981957481021766" y="3" font-family="sans-serif"/></g><g class="relationship" transform="translate(-157.05972067173442 -136.15561302323113) rotate(401.07741853322216)"><path class="outline" fill="#A5ABB6" stroke="none" d="M 25 0.5 L 103.2837231778116 0.5 L 103.2837231778116 -0.5 L 25 -0.5 Z M 126.1821606778116 0.5 L 204.4658838556232 0.5 L 204.4658838556232 3.5 L 211.4658838556232 0 L 204.4658838556232 -3.5 L 204.4658838556232 -0.5 L 126.1821606778116 -0.5 Z"/><text text-anchor="middle" pointer-events="none" font-size="8px" fill="#000000" x="114.7329419278116" y="3" font-family="sans-serif">uses</text></g><g class="relationship" transform="translate(340.8442853977158 -271.9549362724272) rotate(492.72004805000984)"><path class="outline" fill="#A5ABB6" stroke="none" d="M 25 0.5 L 64.91229690253665 0.5 L 64.91229690253665 -0.5 L 25 -0.5 Z M 87.81073440253665 0.5 L 127.7230313050733 0.5 L 127.7230313050733 3.5 L 134.7230313050733 0 L 127.7230313050733 -3.5 L 127.7230313050733 -0.5 L 87.81073440253665 -0.5 Z"/><text text-anchor="middle" pointer-events="none" font-size="8px" fill="#000000" x="76.36151565253665" y="3" transform="rotate(180 76.36151565253665 0)" font-family="sans-serif">uses</text></g><g class="relationship" transform="translate(340.8442853977158 -271.9549362724272) rotate(471.0335183793606)"><path class="outline" fill="#A5ABB6" stroke="none" d="M 25 0.5 L 80.82671350464966 0.5 L 80.82671350464966 -0.5 L 25 -0.5 Z M 103.72515100464966 0.5 L 159.55186450929932 0.5 L 159.55186450929932 3.5 L 166.55186450929932 0 L 159.55186450929932 -3.5 L 159.55186450929932 -0.5 L 103.72515100464966 -0.5 Z"/><text text-anchor="middle" pointer-events="none" font-size="8px" fill="#000000" x="92.27593225464966" y="3" transform="rotate(180 92.27593225464966 0)" font-family="sans-serif">uses</text></g><g class="relationship" transform="translate(340.8442853977158 -271.9549362724272) rotate(485.8500985785293)"><path class="outline" fill="#A5ABB6" stroke="none" d="M 25 0.5 L 99.35111543155243 0.5 L 99.35111543155243 -0.5 L 25 -0.5 Z M 122.24955293155243 0.5 L 196.60066836310486 0.5 L 196.60066836310486 3.5 L 203.60066836310486 0 L 196.60066836310486 -3.5 L 196.60066836310486 -0.5 L 122.24955293155243 -0.5 Z"/><text text-anchor="middle" pointer-events="none" font-size="8px" fill="#000000" x="110.80033418155243" y="3" transform="rotate(180 110.80033418155243 0)" font-family="sans-serif">uses</text></g><g class="relationship" transform="translate(76.01062255171459 413.9961539994014) rotate(200.85569641674084)"><path class="outline" fill="#A5ABB6" stroke="none" d="M 25 0.5 L 116.84536580852773 0.5 L 116.84536580852773 -0.5 L 25 -0.5 Z M 139.74380330852773 0.5 L 231.58916911705546 0.5 L 231.58916911705546 3.5 L 238.58916911705546 0 L 231.58916911705546 -3.5 L 231.58916911705546 -0.5 L 139.74380330852773 -0.5 Z"/><text text-anchor="middle" pointer-events="none" font-size="8px" fill="#000000" x="128.29458455852773" y="3" transform="rotate(180 128.29458455852773 0)" font-family="sans-serif">uses</text></g><g class="relationship" transform="translate(76.01062255171459 413.9961539994014) rotate(184.66561125362534)"><path class="outline" fill="#A5ABB6" stroke="none" d="M 25 0.5 L 53.085386838819346 0.5 L 53.085386838819346 -0.5 L 25 -0.5 Z M 75.98382433881935 0.5 L 104.06921117763869 0.5 L 104.06921117763869 3.5 L 111.06921117763869 0 L 104.06921117763869 -3.5 L 104.06921117763869 -0.5 L 75.98382433881935 -0.5 Z"/><text text-anchor="middle" pointer-events="none" font-size="8px" fill="#000000" x="64.53460558881935" y="3" transform="rotate(180 64.53460558881935 0)" font-family="sans-serif">uses</text></g><g class="relationship" transform="translate(76.01062255171459 413.9961539994014) rotate(218.98084780728226)"><path class="outline" fill="#A5ABB6" stroke="none" d="M 25 0.5 L 72.47462644534045 0.5 L 72.47462644534045 -0.5 L 25 -0.5 Z M 95.37306394534045 0.5 L 142.8476903906809 0.5 L 142.8476903906809 3.5 L 149.8476903906809 0 L 142.8476903906809 -3.5 L 142.8476903906809 -0.5 L 95.37306394534045 -0.5 Z"/><text text-anchor="middle" pointer-events="none" font-size="8px" fill="#000000" x="83.92384519534045" y="3" transform="rotate(180 83.92384519534045 0)" font-family="sans-serif">uses</text></g><g class="relationship" transform="translate(-72.38755499241921 170.3973348908214) rotate(482.45422626980724)"><path class="outline" fill="#A5ABB6" stroke="none" d="M 25 0.5 L 31.64831319665486 0.5 L 31.64831319665486 -0.5 L 25 -0.5 Z M 54.54675069665486 0.5 L 61.19506389330972 0.5 L 61.19506389330972 3.5 L 68.19506389330972 0 L 61.19506389330972 -3.5 L 61.19506389330972 -0.5 L 54.54675069665486 -0.5 Z"/><text text-anchor="middle" pointer-events="none" font-size="8px" fill="#000000" x="43.09753194665486" y="3" transform="rotate(180 43.09753194665486 0)" font-family="sans-serif">uses</text></g><g class="relationship" transform="translate(141.20217119644855 333.7380651855101) rotate(188.4095593005443)"><path class="outline" fill="#A5ABB6" stroke="none" d="M 25 0.5 L 86.69895730145775 0.5 L 86.69895730145775 -0.5 L 25 -0.5 Z M 109.59739480145775 0.5 L 171.2963521029155 0.5 L 171.2963521029155 3.5 L 178.2963521029155 0 L 171.2963521029155 -3.5 L 171.2963521029155 -0.5 L 109.59739480145775 -0.5 Z"/><text text-anchor="middle" pointer-events="none" font-size="8px" fill="#000000" x="98.14817605145775" y="3" transform="rotate(180 98.14817605145775 0)" font-family="sans-serif">uses</text></g><g class="relationship" transform="translate(141.20217119644855 333.7380651855101) rotate(182.49686288170568)"><path class="outline" fill="#A5ABB6" stroke="none" d="M 25 0.5 L 140.95397745195743 0.5 L 140.95397745195743 -0.5 L 25 -0.5 Z M 163.85241495195743 0.5 L 279.80639240391486 0.5 L 279.80639240391486 3.5 L 286.80639240391486 0 L 279.80639240391486 -3.5 L 279.80639240391486 -0.5 L 163.85241495195743 -0.5 Z"/><text text-anchor="middle" pointer-events="none" font-size="8px" fill="#000000" x="152.40319620195743" y="3" transform="rotate(180 152.40319620195743 0)" font-family="sans-serif">uses</text></g><g class="relationship" transform="translate(141.20217119644855 333.7380651855101) rotate(520.9883206986844)"><path class="outline" fill="#A5ABB6" stroke="none" d="M 25 0.5 L 91.24857785862051 0.5 L 91.24857785862051 -0.5 L 25 -0.5 Z M 114.14701535862051 0.5 L 180.39559321724101 0.5 L 180.39559321724101 3.5 L 187.39559321724101 0 L 180.39559321724101 -3.5 L 180.39559321724101 -0.5 L 114.14701535862051 -0.5 Z"/><text text-anchor="middle" pointer-events="none" font-size="8px" fill="#000000" x="102.69779660862051" y="3" transform="rotate(180 102.69779660862051 0)" font-family="sans-serif">uses</text></g><g class="relationship" transform="translate(344.67243049714284 57.80772767729172) rotate(192.42095066828472)"><path class="outline" fill="#A5ABB6" stroke="none" d="M 25 0.5 L 38.7936383217288 0.5 L 38.7936383217288 -0.5 L 25 -0.5 Z M 61.6920758217288 0.5 L 75.4857141434576 0.5 L 75.4857141434576 3.5 L 82.4857141434576 0 L 75.4857141434576 -3.5 L 75.4857141434576 -0.5 L 61.6920758217288 -0.5 Z"/><text text-anchor="middle" pointer-events="none" font-size="8px" fill="#000000" x="50.2428570717288" y="3" transform="rotate(180 50.2428570717288 0)" font-family="sans-serif">uses</text></g><g class="relationship" transform="translate(38.005713966776895 308.27596221200804) rotate(216.9656866852373)"><path class="outline" fill="#A5ABB6" stroke="none" d="M 25 0.5 L 42.8053600481513 0.5 L 42.8053600481513 -0.5 L 25 -0.5 Z M 65.7037975481513 0.5 L 83.5091575963026 0.5 L 83.5091575963026 3.5 L 90.5091575963026 0 L 83.5091575963026 -3.5 L 83.5091575963026 -0.5 L 65.7037975481513 -0.5 Z"/><text text-anchor="middle" pointer-events="none" font-size="8px" fill="#000000" x="54.2545787981513" y="3" transform="rotate(180 54.2545787981513 0)" font-family="sans-serif">uses</text></g><g class="relationship" transform="translate(38.005713966776895 308.27596221200804) rotate(245.5104626107899)"><path class="outline" fill="#A5ABB6" stroke="none" d="M 25 0.5 L 25.16981368604531 0.5 L 25.16981368604531 -0.5 L 25 -0.5 Z M 48.06825118604531 0.5 L 48.23806487209062 0.5 L 48.23806487209062 3.5 L 55.23806487209062 0 L 48.23806487209062 -3.5 L 48.23806487209062 -0.5 L 48.06825118604531 -0.5 Z"/><text text-anchor="middle" pointer-events="none" font-size="8px" fill="#000000" x="36.61903243604531" y="3" transform="rotate(180 36.61903243604531 0)" font-family="sans-serif">uses</text></g><g class="relationship" transform="translate(-253.73755955880816 -66.94384343990018) rotate(357.73242616167477)"><path class="outline" fill="#A5ABB6" stroke="none" d="M 25 0.5 L 48.57347779525651 0.5 L 48.57347779525651 -0.5 L 25 -0.5 Z M 71.47191529525651 0.5 L 95.04539309051302 0.5 L 95.04539309051302 3.5 L 102.04539309051302 0 L 95.04539309051302 -3.5 L 95.04539309051302 -0.5 L 71.47191529525651 -0.5 Z"/><text text-anchor="middle" pointer-events="none" font-size="8px" fill="#000000" x="60.02269654525651" y="3" font-family="sans-serif">uses</text></g><g class="relationship" transform="translate(-253.73755955880816 -66.94384343990018) rotate(377.40125549569007)"><path class="outline" fill="#A5ABB6" stroke="none" d="M 25 0.5 L 129.10936025896777 0.5 L 129.10936025896777 -0.5 L 25 -0.5 Z M 152.00779775896777 0.5 L 256.11715801793554 0.5 L 256.11715801793554 3.5 L 263.11715801793554 0 L 256.11715801793554 -3.5 L 256.11715801793554 -0.5 L 152.00779775896777 -0.5 Z"/><text text-anchor="middle" pointer-events="none" font-size="8px" fill="#000000" x="140.55857900896777" y="3" font-family="sans-serif">uses</text></g><g class="relationship" transform="translate(405.242688474189 -171.44420904763365) rotate(516.8492919647988)"><path class="outline" fill="#A5ABB6" stroke="none" d="M 25 0.5 L 92.87449693285426 0.5 L 92.87449693285426 -0.5 L 25 -0.5 Z M 115.77293443285426 0.5 L 183.6474313657085 0.5 L 183.6474313657085 3.5 L 190.6474313657085 0 L 183.6474313657085 -3.5 L 183.6474313657085 -0.5 L 115.77293443285426 -0.5 Z"/><text text-anchor="middle" pointer-events="none" font-size="8px" fill="#000000" x="104.32371568285426" y="3" transform="rotate(180 104.32371568285426 0)" font-family="sans-serif">uses</text></g><g class="relationship" transform="translate(405.242688474189 -171.44420904763365) rotate(509.5487855384091)"><path class="outline" fill="#A5ABB6" stroke="none" d="M 25 0.5 L 62.27794742535279 0.5 L 62.27794742535279 -0.5 L 25 -0.5 Z M 85.17638492535279 0.5 L 122.45433235070558 0.5 L 122.45433235070558 3.5 L 129.45433235070558 0 L 122.45433235070558 -3.5 L 122.45433235070558 -0.5 L 85.17638492535279 -0.5 Z"/><text text-anchor="middle" pointer-events="none" font-size="8px" fill="#000000" x="73.72716617535279" y="3" transform="rotate(180 73.72716617535279 0)" font-family="sans-serif">uses</text></g><g class="relationship" transform="translate(405.242688474189 -171.44420904763365) rotate(534.4344412048829)"><path class="outline" fill="#A5ABB6" stroke="none" d="M 25 0.5 L 71.83850281117469 0.5 L 71.83850281117469 -0.5 L 25 -0.5 Z M 94.73694031117469 0.5 L 141.57544312234938 0.5 L 141.57544312234938 3.5 L 148.57544312234938 0 L 141.57544312234938 -3.5 L 141.57544312234938 -0.5 L 94.73694031117469 -0.5 Z"/><text text-anchor="middle" pointer-events="none" font-size="8px" fill="#000000" x="83.28772156117469" y="3" transform="rotate(180 83.28772156117469 0)" font-family="sans-serif">uses</text></g><g class="relationship" transform="translate(428.05771814775926 -61.20908869618637) rotate(364.67287004365335)"><path class="outline" fill="#A5ABB6" stroke="none" d="M 25 0.5 L 44.804169517144466 0.5 L 44.804169517144466 -0.5 L 25 -0.5 Z M 67.70260701714446 0.5 L 87.50677653428893 0.5 L 87.50677653428893 3.5 L 94.50677653428893 0 L 87.50677653428893 -3.5 L 87.50677653428893 -0.5 L 67.70260701714446 -0.5 Z"/><text text-anchor="middle" pointer-events="none" font-size="8px" fill="#000000" x="56.253388267144466" y="3" font-family="sans-serif">uses</text></g><g class="relationship" transform="translate(428.05771814775926 -61.20908869618637) rotate(302.5367821880521)"><path class="outline" fill="#A5ABB6" stroke="none" d="M 25 0.5 L 29.33712261087294 0.5 L 29.33712261087294 -0.5 L 25 -0.5 Z M 29.33712261087294 0.5 L 33.67424522174588 0.5 L 33.67424522174588 3.5 L 40.67424522174588 0 L 33.67424522174588 -3.5 L 33.67424522174588 -0.5 L 29.33712261087294 -0.5 Z"/><text text-anchor="middle" pointer-events="none" font-size="8px" fill="#000000" x="29.33712261087294" y="3" font-family="sans-serif"/></g><g class="relationship" transform="translate(-310.99570779682506 90.75767577219285) rotate(333.84897850409493)"><path class="outline" fill="#A5ABB6" stroke="none" d="M 25 0.5 L 30.567952869825746 0.5 L 30.567952869825746 -0.5 L 25 -0.5 Z M 53.466390369825746 0.5 L 59.03434323965149 0.5 L 59.03434323965149 3.5 L 66.03434323965149 0 L 59.03434323965149 -3.5 L 59.03434323965149 -0.5 L 53.466390369825746 -0.5 Z"/><text text-anchor="middle" pointer-events="none" font-size="8px" fill="#000000" x="42.017171619825746" y="3" font-family="sans-serif">uses</text></g><g class="relationship" transform="translate(1.1484882410100568 369.88842759652346) rotate(511.4622197575215)"><path class="outline" fill="#A5ABB6" stroke="none" d="M 25 0.5 L 31.07941824405338 0.5 L 31.07941824405338 -0.5 L 25 -0.5 Z M 31.07941824405338 0.5 L 37.15883648810676 0.5 L 37.15883648810676 3.5 L 44.15883648810676 0 L 37.15883648810676 -3.5 L 37.15883648810676 -0.5 L 31.07941824405338 -0.5 Z"/><text text-anchor="middle" pointer-events="none" font-size="8px" fill="#000000" x="31.07941824405338" y="3" transform="rotate(180 31.07941824405338 0)" font-family="sans-serif"/></g><g class="relationship" transform="translate(1.1484882410100568 369.88842759652346) rotate(196.17575681341214)"><path class="outline" fill="#A5ABB6" stroke="none" d="M 25 0.5 L 74.31286149393878 0.5 L 74.31286149393878 -0.5 L 25 -0.5 Z M 97.21129899393878 0.5 L 146.52416048787757 0.5 L 146.52416048787757 3.5 L 153.52416048787757 0 L 146.52416048787757 -3.5 L 146.52416048787757 -0.5 L 97.21129899393878 -0.5 Z"/><text text-anchor="middle" pointer-events="none" font-size="8px" fill="#000000" x="85.76208024393878" y="3" transform="rotate(180 85.76208024393878 0)" font-family="sans-serif">uses</text></g><g class="relationship" transform="translate(1.1484882410100568 369.88842759652346) rotate(227.17690011085483)"><path class="outline" fill="#A5ABB6" stroke="none" d="M 25 0.5 L 29.962864853671753 0.5 L 29.962864853671753 -0.5 L 25 -0.5 Z M 52.86130235367175 0.5 L 57.82416720734351 0.5 L 57.82416720734351 3.5 L 64.8241672073435 0 L 57.82416720734351 -3.5 L 57.82416720734351 -0.5 L 52.86130235367175 -0.5 Z"/><text text-anchor="middle" pointer-events="none" font-size="8px" fill="#000000" x="41.41208360367175" y="3" transform="rotate(180 41.41208360367175 0)" font-family="sans-serif">uses</text></g><g class="relationship" transform="translate(9.41373788237928 153.19078533759506) rotate(453.25616105831216)"><path class="outline" fill="#A5ABB6" stroke="none" d="M 25 0.5 L 26.14991824316833 0.5 L 26.14991824316833 -0.5 L 25 -0.5 Z M 49.04835574316833 0.5 L 50.19827398633666 0.5 L 50.19827398633666 3.5 L 57.19827398633666 0 L 50.19827398633666 -3.5 L 50.19827398633666 -0.5 L 49.04835574316833 -0.5 Z"/><text text-anchor="middle" pointer-events="none" font-size="8px" fill="#000000" x="37.59913699316833" y="3" transform="rotate(180 37.59913699316833 0)" font-family="sans-serif">uses</text></g><g class="relationship" transform="translate(9.41373788237928 153.19078533759506) rotate(486.64672257024705)"><path class="outline" fill="#A5ABB6" stroke="none" d="M 25 0.5 L 38.41110793771666 0.5 L 38.41110793771666 -0.5 L 25 -0.5 Z M 61.30954543771666 0.5 L 74.72065337543332 0.5 L 74.72065337543332 3.5 L 81.72065337543332 0 L 74.72065337543332 -3.5 L 74.72065337543332 -0.5 L 61.30954543771666 -0.5 Z"/><text text-anchor="middle" pointer-events="none" font-size="8px" fill="#000000" x="49.86032668771666" y="3" transform="rotate(180 49.86032668771666 0)" font-family="sans-serif">uses</text></g><g class="relationship" transform="translate(-100.33308552314722 108.03611885575944) rotate(511.8597321234643)"><path class="outline" fill="#A5ABB6" stroke="none" d="M 25 0.5 L 31.456890167932606 0.5 L 31.456890167932606 -0.5 L 25 -0.5 Z M 31.456890167932606 0.5 L 37.91378033586521 0.5 L 37.91378033586521 3.5 L 44.91378033586521 0 L 37.91378033586521 -3.5 L 37.91378033586521 -0.5 L 31.456890167932606 -0.5 Z"/><text text-anchor="middle" pointer-events="none" font-size="8px" fill="#000000" x="31.456890167932606" y="3" transform="rotate(180 31.456890167932606 0)" font-family="sans-serif"/></g><g class="relationship" transform="translate(-100.33308552314722 108.03611885575944) rotate(202.7400765356993)"><path class="outline" fill="#A5ABB6" stroke="none" d="M 25 0.5 L 30.276857126500047 0.5 L 30.276857126500047 -0.5 L 25 -0.5 Z M 30.276857126500047 0.5 L 35.553714253000095 0.5 L 35.553714253000095 3.5 L 42.553714253000095 0 L 35.553714253000095 -3.5 L 35.553714253000095 -0.5 L 30.276857126500047 -0.5 Z"/><text text-anchor="middle" pointer-events="none" font-size="8px" fill="#000000" x="30.276857126500047" y="3" transform="rotate(180 30.276857126500047 0)" font-family="sans-serif"/></g><g class="relationship" transform="translate(-100.33308552314722 108.03611885575944) rotate(355.922834354306)"><path class="outline" fill="#A5ABB6" stroke="none" d="M 25 0.5 L 25.85509975955351 0.5 L 25.85509975955351 -0.5 L 25 -0.5 Z M 44.30431850955351 0.5 L 45.15941826910702 0.5 L 45.15941826910702 3.5 L 52.15941826910702 0 L 45.15941826910702 -3.5 L 45.15941826910702 -0.5 L 44.30431850955351 -0.5 Z"/><text text-anchor="middle" pointer-events="none" font-size="8px" fill="#000000" x="35.07970913455351" y="3" font-family="sans-serif">u…</text></g></g><g class="layer nodes"><g class="node" transform="translate(408.32804985452094,41.5741955507857)"><circle class="outline" cx="0" cy="0" r="25" fill="#F16667" stroke="#eb2728" stroke-width="2px"/><text text-anchor="middle" pointer-events="none" font-family="sans-serif" dy="1.5625" font-size="25" fill="#FFFFFF"/><text text-anchor="middle" pointer-events="none" x="0" y="5" font-size="10px" fill="#FFFFFF" font-family="sans-serif"> moa.WE…</text></g><g class="node" transform="translate(447.6947948423781,114.5251617538027)"><circle class="outline" cx="0" cy="0" r="25" fill="#569480" stroke="#447666" stroke-width="2px"/><text text-anchor="middle" pointer-events="none" font-family="sans-serif" dy="1.5625" font-size="25" fill="#FFFFFF"/><text text-anchor="middle" pointer-events="none" x="0" y="5" font-size="10px" fill="#FFFFFF" font-family="sans-serif"> Ordered…</text></g><g class="node" transform="translate(267.97481417952326,327.4747720952935)"><circle class="outline" cx="0" cy="0" r="25" fill="#F16667" stroke="#eb2728" stroke-width="2px"/><text text-anchor="middle" pointer-events="none" font-family="sans-serif" dy="1.5625" font-size="25" fill="#FFFFFF"/><text text-anchor="middle" pointer-events="none" x="0" y="5" font-size="10px" fill="#FFFFFF" font-family="sans-serif"> moa.Oz…</text></g><g class="node" transform="translate(406.599861921686,179.51358083084756)"><circle class="outline" cx="0" cy="0" r="25" fill="#569480" stroke="#447666" stroke-width="2px"/><text text-anchor="middle" pointer-events="none" font-family="sans-serif" dy="1.5625" font-size="25" fill="#FFFFFF"/><text text-anchor="middle" pointer-events="none" x="0" y="5" font-size="10px" fill="#FFFFFF" font-family="sans-serif"> Ordered…</text></g><g class="node" transform="translate(126.97850814005358,-78.8214483191818)"><circle class="outline" cx="0" cy="0" r="25" fill="#F16667" stroke="#eb2728" stroke-width="2px"/><text text-anchor="middle" pointer-events="none" font-family="sans-serif" dy="1.5625" font-size="25" fill="#FFFFFF"/><text text-anchor="middle" pointer-events="none" x="0" y="5" font-size="10px" fill="#FFFFFF" font-family="sans-serif"> moa.Oz…</text></g><g class="node" transform="translate(154.57671192383165,-174.1111497254435)"><circle class="outline" cx="0" cy="0" r="25" fill="#569480" stroke="#447666" stroke-width="2px"/><text text-anchor="middle" pointer-events="none" font-family="sans-serif" dy="1.5625" font-size="25" fill="#FFFFFF"/><text text-anchor="middle" pointer-events="none" x="0" y="5" font-size="10px" fill="#FFFFFF" font-family="sans-serif"> Ordered…</text></g><g class="node" transform="translate(-59.607707855919216,402.92824146131636)"><circle class="outline" cx="0" cy="0" r="25" fill="#F16667" stroke="#eb2728" stroke-width="2px"/><text text-anchor="middle" pointer-events="none" font-family="sans-serif" dy="1.5625" font-size="25" fill="#FFFFFF"/><text text-anchor="middle" pointer-events="none" x="0" y="5" font-size="10px" fill="#FFFFFF" font-family="sans-serif"> moa.Oz…</text></g><g class="node" transform="translate(-93.30379540605273,349.29262788333574)"><circle class="outline" cx="0" cy="0" r="25" fill="#569480" stroke="#447666" stroke-width="2px"/><text text-anchor="middle" pointer-events="none" font-family="sans-serif" dy="1.5625" font-size="25" fill="#FFFFFF"/><text text-anchor="middle" pointer-events="none" x="0" y="5" font-size="10px" fill="#FFFFFF" font-family="sans-serif"> Ordered…</text></g><g class="node" transform="translate(-170.30819483099995,320.15431749243305)"><circle class="outline" cx="0" cy="0" r="25" fill="#F16667" stroke="#eb2728" stroke-width="2px"/><text text-anchor="middle" pointer-events="none" font-family="sans-serif" dy="1.5625" font-size="25" fill="#FFFFFF"/><text text-anchor="middle" pointer-events="none" x="0" y="5" font-size="10px" fill="#FFFFFF" font-family="sans-serif"> moa.Oz…</text></g><g class="node" transform="translate(-59.9083276556734,304.00636443020096)"><circle class="outline" cx="0" cy="0" r="25" fill="#F16667" stroke="#eb2728" stroke-width="2px"/><text text-anchor="middle" pointer-events="none" font-family="sans-serif" dy="1.5625" font-size="25" fill="#FFFFFF"/><text text-anchor="middle" pointer-events="none" x="0" y="5" font-size="10px" fill="#FFFFFF" font-family="sans-serif"> moa.Oz…</text></g><g class="node" transform="translate(21.193563936170847,19.220964214505045)"><circle class="outline" cx="0" cy="0" r="25" fill="#F16667" stroke="#eb2728" stroke-width="2px"/><text text-anchor="middle" pointer-events="none" font-family="sans-serif" dy="1.5625" font-size="25" fill="#FFFFFF"/><text text-anchor="middle" pointer-events="none" x="0" y="5" font-size="10px" fill="#FFFFFF" font-family="sans-serif"> moa.Bla…</text></g><g class="node" transform="translate(-179.85676853552903,8.54039326071047)"><circle class="outline" cx="0" cy="0" r="25" fill="#569480" stroke="#447666" stroke-width="2px"/><text text-anchor="middle" pointer-events="none" font-family="sans-serif" dy="1.5625" font-size="25" fill="#FFFFFF"/><text text-anchor="middle" pointer-events="none" x="0" y="5" font-size="10px" fill="#FFFFFF" font-family="sans-serif"> Ordered…</text></g><g class="node" transform="translate(-126.791649691786,-71.97055942122071)"><circle class="outline" cx="0" cy="0" r="25" fill="#F16667" stroke="#eb2728" stroke-width="2px"/><text text-anchor="middle" pointer-events="none" font-family="sans-serif" dy="1.5625" font-size="25" fill="#FFFFFF"/><text text-anchor="middle" pointer-events="none" x="0" y="5" font-size="10px" fill="#FFFFFF" font-family="sans-serif"> moa.Bla…</text></g><g class="node" transform="translate(183.2268771909942,262.8971630389997)"><circle class="outline" cx="0" cy="0" r="25" fill="#F16667" stroke="#eb2728" stroke-width="2px"/><text text-anchor="middle" pointer-events="none" font-family="sans-serif" dy="1.5625" font-size="25" fill="#FFFFFF"/><text text-anchor="middle" pointer-events="none" x="0" y="5" font-size="10px" fill="#FFFFFF" font-family="sans-serif"> moa.WE…</text></g><g class="node" transform="translate(290.52312675683015,234.24732614537822)"><circle class="outline" cx="0" cy="0" r="25" fill="#569480" stroke="#447666" stroke-width="2px"/><text text-anchor="middle" pointer-events="none" font-family="sans-serif" dy="1.5625" font-size="25" fill="#FFFFFF"/><text text-anchor="middle" pointer-events="none" x="0" y="5" font-size="10px" fill="#FFFFFF" font-family="sans-serif"> Ordered…</text></g><g class="node" transform="translate(136.62017755658042,211.83980944249254)"><circle class="outline" cx="0" cy="0" r="25" fill="#F16667" stroke="#eb2728" stroke-width="2px"/><text text-anchor="middle" pointer-events="none" font-family="sans-serif" dy="1.5625" font-size="25" fill="#FFFFFF"/><text text-anchor="middle" pointer-events="none" x="0" y="5" font-size="10px" fill="#FFFFFF" font-family="sans-serif"> moa.AS…</text></g><g class="node" transform="translate(39.10734199729427,87.14153851628924)"><circle class="outline" cx="0" cy="0" r="25" fill="#569480" stroke="#447666" stroke-width="2px"/><text text-anchor="middle" pointer-events="none" font-family="sans-serif" dy="1.5625" font-size="25" fill="#FFFFFF"/><text text-anchor="middle" pointer-events="none" x="0" y="5" font-size="10px" fill="#FFFFFF" font-family="sans-serif"> Ordered…</text></g><g class="node" transform="translate(97.67210813742147,141.19703511355965)"><circle class="outline" cx="0" cy="0" r="25" fill="#F16667" stroke="#eb2728" stroke-width="2px"/><text text-anchor="middle" pointer-events="none" font-family="sans-serif" dy="1.5625" font-size="25" fill="#FFFFFF"/><text text-anchor="middle" pointer-events="none" x="0" y="5" font-size="10px" fill="#FFFFFF" font-family="sans-serif"> moa.AS…</text></g><g class="node" transform="translate(66.55581764767169,229.43610750463785)"><circle class="outline" cx="0" cy="0" r="25" fill="#F16667" stroke="#eb2728" stroke-width="2px"/><text text-anchor="middle" pointer-events="none" font-family="sans-serif" dy="1.5625" font-size="25" fill="#FFFFFF"/><text text-anchor="middle" pointer-events="none" x="0" y="5" font-size="10px" fill="#FFFFFF" font-family="sans-serif"> moa.AS…</text></g><g class="node" transform="translate(153.6330733918719,117.37109930316294)"><circle class="outline" cx="0" cy="0" r="25" fill="#F16667" stroke="#eb2728" stroke-width="2px"/><text text-anchor="middle" pointer-events="none" font-family="sans-serif" dy="1.5625" font-size="25" fill="#FFFFFF"/><text text-anchor="middle" pointer-events="none" x="0" y="5" font-size="10px" fill="#FFFFFF" font-family="sans-serif"> moa.Acc…</text></g><g class="node" transform="translate(197.991505531587,193.82897606359523)"><circle class="outline" cx="0" cy="0" r="25" fill="#569480" stroke="#447666" stroke-width="2px"/><text text-anchor="middle" pointer-events="none" font-family="sans-serif" dy="1.5625" font-size="25" fill="#FFFFFF"/><text text-anchor="middle" pointer-events="none" x="0" y="5" font-size="10px" fill="#FFFFFF" font-family="sans-serif"> Ordered…</text></g><g class="node" transform="translate(-196.29363154107492,-49.1760041359252)"><circle class="outline" cx="0" cy="0" r="25" fill="#569480" stroke="#447666" stroke-width="2px"/><text text-anchor="middle" pointer-events="none" font-family="sans-serif" dy="1.5625" font-size="25" fill="#FFFFFF"/><text text-anchor="middle" pointer-events="none" x="0" y="5" font-size="10px" fill="#FFFFFF" font-family="sans-serif"> Ordered…</text></g><g class="node" transform="translate(346.3215579684392,117.16926528065247)"><circle class="outline" cx="0" cy="0" r="25" fill="#F16667" stroke="#eb2728" stroke-width="2px"/><text text-anchor="middle" pointer-events="none" font-family="sans-serif" dy="1.5625" font-size="25" fill="#FFFFFF"/><text text-anchor="middle" pointer-events="none" x="0" y="5" font-size="10px" fill="#FFFFFF" font-family="sans-serif"> moa.Acc…</text></g><g class="node" transform="translate(275.6114231110531,77.07536110567852)"><circle class="outline" cx="0" cy="0" r="25" fill="#569480" stroke="#447666" stroke-width="2px"/><text text-anchor="middle" pointer-events="none" font-family="sans-serif" dy="1.5625" font-size="25" fill="#FFFFFF"/><text text-anchor="middle" pointer-events="none" x="0" y="5" font-size="10px" fill="#FFFFFF" font-family="sans-serif"> Ordered…</text></g><g class="node" transform="translate(221.73754209981308,-16.09050037320183)"><circle class="outline" cx="0" cy="0" r="25" fill="#F16667" stroke="#eb2728" stroke-width="2px"/><text text-anchor="middle" pointer-events="none" font-family="sans-serif" dy="1.5625" font-size="25" fill="#FFFFFF"/><text text-anchor="middle" pointer-events="none" x="0" y="5" font-size="10px" fill="#FFFFFF" font-family="sans-serif"> moa.Acc…</text></g><g class="node" transform="translate(117.85726906152513,-10.526788571146113)"><circle class="outline" cx="0" cy="0" r="25" fill="#569480" stroke="#447666" stroke-width="2px"/><text text-anchor="middle" pointer-events="none" font-family="sans-serif" dy="1.5625" font-size="25" fill="#FFFFFF"/><text text-anchor="middle" pointer-events="none" x="0" y="5" font-size="10px" fill="#FFFFFF" font-family="sans-serif"> Ordered…</text></g><g class="node" transform="translate(364.71848808767413,-25.31969794945894)"><circle class="outline" cx="0" cy="0" r="25" fill="#F16667" stroke="#eb2728" stroke-width="2px"/><text text-anchor="middle" pointer-events="none" font-family="sans-serif" dy="1.5625" font-size="25" fill="#FFFFFF"/><text text-anchor="middle" pointer-events="none" x="0" y="5" font-size="10px" fill="#FFFFFF" font-family="sans-serif"> moa.Acc…</text></g><g class="node" transform="translate(453.6088531978721,1.8551416570776311)"><circle class="outline" cx="0" cy="0" r="25" fill="#569480" stroke="#447666" stroke-width="2px"/><text text-anchor="middle" pointer-events="none" font-family="sans-serif" dy="1.5625" font-size="25" fill="#FFFFFF"/><text text-anchor="middle" pointer-events="none" x="0" y="5" font-size="10px" fill="#FFFFFF" font-family="sans-serif"> Ordered…</text></g><g class="node" transform="translate(232.4855010860606,-154.61005742472622)"><circle class="outline" cx="0" cy="0" r="25" fill="#F16667" stroke="#eb2728" stroke-width="2px"/><text text-anchor="middle" pointer-events="none" font-family="sans-serif" dy="1.5625" font-size="25" fill="#FFFFFF"/><text text-anchor="middle" pointer-events="none" x="0" y="5" font-size="10px" fill="#FFFFFF" font-family="sans-serif"> moa.Lev…</text></g><g class="node" transform="translate(312.8100546384694,-219.2322265857094)"><circle class="outline" cx="0" cy="0" r="25" fill="#569480" stroke="#447666" stroke-width="2px"/><text text-anchor="middle" pointer-events="none" font-family="sans-serif" dy="1.5625" font-size="25" fill="#FFFFFF"/><text text-anchor="middle" pointer-events="none" x="0" y="5" font-size="10px" fill="#FFFFFF" font-family="sans-serif"> Ordered…</text></g><g class="node" transform="translate(206.96050155580735,-86.66220031056766)"><circle class="outline" cx="0" cy="0" r="25" fill="#F16667" stroke="#eb2728" stroke-width="2px"/><text text-anchor="middle" pointer-events="none" font-family="sans-serif" dy="1.5625" font-size="25" fill="#FFFFFF"/><text text-anchor="middle" pointer-events="none" x="0" y="5" font-size="10px" fill="#FFFFFF" font-family="sans-serif"> moa.Lev…</text></g><g class="node" transform="translate(272.09363214035807,-93.16605386170363)"><circle class="outline" cx="0" cy="0" r="25" fill="#F16667" stroke="#eb2728" stroke-width="2px"/><text text-anchor="middle" pointer-events="none" font-family="sans-serif" dy="1.5625" font-size="25" fill="#FFFFFF"/><text text-anchor="middle" pointer-events="none" x="0" y="5" font-size="10px" fill="#FFFFFF" font-family="sans-serif"> moa.Lev…</text></g><g class="node" transform="translate(256.6469388521053,171.32834168209436)"><circle class="outline" cx="0" cy="0" r="25" fill="#F16667" stroke="#eb2728" stroke-width="2px"/><text text-anchor="middle" pointer-events="none" font-family="sans-serif" dy="1.5625" font-size="25" fill="#FFFFFF"/><text text-anchor="middle" pointer-events="none" x="0" y="5" font-size="10px" fill="#FFFFFF" font-family="sans-serif"> moa.Nai…</text></g><g class="node" transform="translate(172.8706064004707,42.00605649002213)"><circle class="outline" cx="0" cy="0" r="25" fill="#569480" stroke="#447666" stroke-width="2px"/><text text-anchor="middle" pointer-events="none" font-family="sans-serif" dy="1.5625" font-size="25" fill="#FFFFFF"/><text text-anchor="middle" pointer-events="none" x="0" y="5" font-size="10px" fill="#FFFFFF" font-family="sans-serif"> Ordered…</text></g><g class="node" transform="translate(215.64704549770238,125.58531746816766)"><circle class="outline" cx="0" cy="0" r="25" fill="#F16667" stroke="#eb2728" stroke-width="2px"/><text text-anchor="middle" pointer-events="none" font-family="sans-serif" dy="1.5625" font-size="25" fill="#FFFFFF"/><text text-anchor="middle" pointer-events="none" x="0" y="5" font-size="10px" fill="#FFFFFF" font-family="sans-serif"> moa.Nai…</text></g><g class="node" transform="translate(317.05952306564427,177.38912006224956)"><circle class="outline" cx="0" cy="0" r="25" fill="#F16667" stroke="#eb2728" stroke-width="2px"/><text text-anchor="middle" pointer-events="none" font-family="sans-serif" dy="1.5625" font-size="25" fill="#FFFFFF"/><text text-anchor="middle" pointer-events="none" x="0" y="5" font-size="10px" fill="#FFFFFF" font-family="sans-serif"> moa.Nai…</text></g><g class="node" transform="translate(492.19902737784923,55.81592959066366)"><circle class="outline" cx="0" cy="0" r="25" fill="#569480" stroke="#447666" stroke-width="2px"/><text text-anchor="middle" pointer-events="none" font-family="sans-serif" dy="1.5625" font-size="25" fill="#FFFFFF"/><text text-anchor="middle" pointer-events="none" x="0" y="5" font-size="10px" fill="#FFFFFF" font-family="sans-serif"> Ordered…</text></g><g class="node" transform="translate(-65.4561619174418,-84.68832576772387)"><circle class="outline" cx="0" cy="0" r="25" fill="#569480" stroke="#447666" stroke-width="2px"/><text text-anchor="middle" pointer-events="none" font-family="sans-serif" dy="1.5625" font-size="25" fill="#FFFFFF"/><text text-anchor="middle" pointer-events="none" x="0" y="5" font-size="10px" fill="#FFFFFF" font-family="sans-serif"> Ordered…</text></g><g class="node" transform="translate(-240.09498401731787,-8.376525265967391)"><circle class="outline" cx="0" cy="0" r="25" fill="#569480" stroke="#447666" stroke-width="2px"/><text text-anchor="middle" pointer-events="none" font-family="sans-serif" dy="1.5625" font-size="25" fill="#FFFFFF"/><text text-anchor="middle" pointer-events="none" x="0" y="5" font-size="10px" fill="#FFFFFF" font-family="sans-serif"> Ordered…</text></g><g class="node" transform="translate(239.70255994245883,34.688363052329294)"><circle class="outline" cx="0" cy="0" r="25" fill="#F16667" stroke="#eb2728" stroke-width="2px"/><text text-anchor="middle" pointer-events="none" font-family="sans-serif" dy="1.5625" font-size="25" fill="#FFFFFF"/><text text-anchor="middle" pointer-events="none" x="0" y="5" font-size="10px" fill="#FFFFFF" font-family="sans-serif"> moa.WE…</text></g><g class="node" transform="translate(306.2882125506497,7.864737333935388)"><circle class="outline" cx="0" cy="0" r="25" fill="#569480" stroke="#447666" stroke-width="2px"/><text text-anchor="middle" pointer-events="none" font-family="sans-serif" dy="1.5625" font-size="25" fill="#FFFFFF"/><text text-anchor="middle" pointer-events="none" x="0" y="5" font-size="10px" fill="#FFFFFF" font-family="sans-serif"> Ordered…</text></g><g class="node" transform="translate(-94.53626725506189,-224.83286702876643)"><circle class="outline" cx="0" cy="0" r="25" fill="#F16667" stroke="#eb2728" stroke-width="2px"/><text text-anchor="middle" pointer-events="none" font-family="sans-serif" dy="1.5625" font-size="25" fill="#FFFFFF"/><text text-anchor="middle" pointer-events="none" x="0" y="5" font-size="10px" fill="#FFFFFF" font-family="sans-serif"> moa.Oz…</text></g><g class="node" transform="translate(-48.78379516506561,-142.1170324109678)"><circle class="outline" cx="0" cy="0" r="25" fill="#569480" stroke="#447666" stroke-width="2px"/><text text-anchor="middle" pointer-events="none" font-family="sans-serif" dy="1.5625" font-size="25" fill="#FFFFFF"/><text text-anchor="middle" pointer-events="none" x="0" y="5" font-size="10px" fill="#FFFFFF" font-family="sans-serif"> Ordered…</text></g><g class="node" transform="translate(-208.09592672100027,-167.39346480651088)"><circle class="outline" cx="0" cy="0" r="25" fill="#569480" stroke="#447666" stroke-width="2px"/><text text-anchor="middle" pointer-events="none" font-family="sans-serif" dy="1.5625" font-size="25" fill="#FFFFFF"/><text text-anchor="middle" pointer-events="none" x="0" y="5" font-size="10px" fill="#FFFFFF" font-family="sans-serif"> Ordered…</text></g><g class="node" transform="translate(-104.27754805763084,-164.72552388493412)"><circle class="outline" cx="0" cy="0" r="25" fill="#569480" stroke="#447666" stroke-width="2px"/><text text-anchor="middle" pointer-events="none" font-family="sans-serif" dy="1.5625" font-size="25" fill="#FFFFFF"/><text text-anchor="middle" pointer-events="none" x="0" y="5" font-size="10px" fill="#FFFFFF" font-family="sans-serif"> Ordered…</text></g><g class="node" transform="translate(-32.15556292110983,-274.62890763620567)"><circle class="outline" cx="0" cy="0" r="25" fill="#F16667" stroke="#eb2728" stroke-width="2px"/><text text-anchor="middle" pointer-events="none" font-family="sans-serif" dy="1.5625" font-size="25" fill="#FFFFFF"/><text text-anchor="middle" pointer-events="none" x="0" y="5" font-size="10px" fill="#FFFFFF" font-family="sans-serif"> moa.Oz…</text></g><g class="node" transform="translate(12.564985402555294,-219.521368554454)"><circle class="outline" cx="0" cy="0" r="25" fill="#569480" stroke="#447666" stroke-width="2px"/><text text-anchor="middle" pointer-events="none" font-family="sans-serif" dy="1.5625" font-size="25" fill="#FFFFFF"/><text text-anchor="middle" pointer-events="none" x="0" y="5" font-size="10px" fill="#FFFFFF" font-family="sans-serif"> Ordered…</text></g><g class="node" transform="translate(85.57379676037394,-250.17025869808333)"><circle class="outline" cx="0" cy="0" r="25" fill="#F16667" stroke="#eb2728" stroke-width="2px"/><text text-anchor="middle" pointer-events="none" font-family="sans-serif" dy="1.5625" font-size="25" fill="#FFFFFF"/><text text-anchor="middle" pointer-events="none" x="0" y="5" font-size="10px" fill="#FFFFFF" font-family="sans-serif"> moa.Oz…</text></g><g class="node" transform="translate(262.7584380521204,-252.08281159744425)"><circle class="outline" cx="0" cy="0" r="25" fill="#569480" stroke="#447666" stroke-width="2px"/><text text-anchor="middle" pointer-events="none" font-family="sans-serif" dy="1.5625" font-size="25" fill="#FFFFFF"/><text text-anchor="middle" pointer-events="none" x="0" y="5" font-size="10px" fill="#FFFFFF" font-family="sans-serif"> Ordered…</text></g><g class="node" transform="translate(210.87217470679582,-332.1602651191071)"><circle class="outline" cx="0" cy="0" r="25" fill="#F16667" stroke="#eb2728" stroke-width="2px"/><text text-anchor="middle" pointer-events="none" font-family="sans-serif" dy="1.5625" font-size="25" fill="#FFFFFF"/><text text-anchor="middle" pointer-events="none" x="0" y="5" font-size="10px" fill="#FFFFFF" font-family="sans-serif"> moa.kNN</text></g><g class="node" transform="translate(204.61356981393055,-236.9000234558252)"><circle class="outline" cx="0" cy="0" r="25" fill="#569480" stroke="#447666" stroke-width="2px"/><text text-anchor="middle" pointer-events="none" font-family="sans-serif" dy="1.5625" font-size="25" fill="#FFFFFF"/><text text-anchor="middle" pointer-events="none" x="0" y="5" font-size="10px" fill="#FFFFFF" font-family="sans-serif"> Ordered…</text></g><g class="node" transform="translate(135.84396298348423,-331.3652765284075)"><circle class="outline" cx="0" cy="0" r="25" fill="#F16667" stroke="#eb2728" stroke-width="2px"/><text text-anchor="middle" pointer-events="none" font-family="sans-serif" dy="1.5625" font-size="25" fill="#FFFFFF"/><text text-anchor="middle" pointer-events="none" x="0" y="5" font-size="10px" fill="#FFFFFF" font-family="sans-serif"> moa.kNN</text></g><g class="node" transform="translate(290.8845235917124,-304.90558531433214)"><circle class="outline" cx="0" cy="0" r="25" fill="#F16667" stroke="#eb2728" stroke-width="2px"/><text text-anchor="middle" pointer-events="none" font-family="sans-serif" dy="1.5625" font-size="25" fill="#FFFFFF"/><text text-anchor="middle" pointer-events="none" x="0" y="5" font-size="10px" fill="#FFFFFF" font-family="sans-serif"> moa.kNN</text></g><g class="node" transform="translate(11.27129358539132,-135.11572294416555)"><circle class="outline" cx="0" cy="0" r="25" fill="#F16667" stroke="#eb2728" stroke-width="2px"/><text text-anchor="middle" pointer-events="none" font-family="sans-serif" dy="1.5625" font-size="25" fill="#FFFFFF"/><text text-anchor="middle" pointer-events="none" x="0" y="5" font-size="10px" fill="#FFFFFF" font-family="sans-serif"> moa.Ho…</text></g><g class="node" transform="translate(69.35319942612932,-67.6713059894629)"><circle class="outline" cx="0" cy="0" r="25" fill="#569480" stroke="#447666" stroke-width="2px"/><text text-anchor="middle" pointer-events="none" font-family="sans-serif" dy="1.5625" font-size="25" fill="#FFFFFF"/><text text-anchor="middle" pointer-events="none" x="0" y="5" font-size="10px" fill="#FFFFFF" font-family="sans-serif"> Ordered…</text></g><g class="node" transform="translate(72.16785055741474,-173.18929566193714)"><circle class="outline" cx="0" cy="0" r="25" fill="#F16667" stroke="#eb2728" stroke-width="2px"/><text text-anchor="middle" pointer-events="none" font-family="sans-serif" dy="1.5625" font-size="25" fill="#FFFFFF"/><text text-anchor="middle" pointer-events="none" x="0" y="5" font-size="10px" fill="#FFFFFF" font-family="sans-serif"> moa.Ho…</text></g><g class="node" transform="translate(-155.39748552001382,-195.99479623851835)"><circle class="outline" cx="0" cy="0" r="25" fill="#569480" stroke="#447666" stroke-width="2px"/><text text-anchor="middle" pointer-events="none" font-family="sans-serif" dy="1.5625" font-size="25" fill="#FFFFFF"/><text text-anchor="middle" pointer-events="none" x="0" y="5" font-size="10px" fill="#FFFFFF" font-family="sans-serif"> Ordered…</text></g><g class="node" transform="translate(345.390957774199,-168.97383864574218)"><circle class="outline" cx="0" cy="0" r="25" fill="#569480" stroke="#447666" stroke-width="2px"/><text text-anchor="middle" pointer-events="none" font-family="sans-serif" dy="1.5625" font-size="25" fill="#FFFFFF"/><text text-anchor="middle" pointer-events="none" x="0" y="5" font-size="10px" fill="#FFFFFF" font-family="sans-serif"> Ordered…</text></g><g class="node" transform="translate(-37.88745034436596,3.570789673880469)"><circle class="outline" cx="0" cy="0" r="25" fill="#F16667" stroke="#eb2728" stroke-width="2px"/><text text-anchor="middle" pointer-events="none" font-family="sans-serif" dy="1.5625" font-size="25" fill="#FFFFFF"/><text text-anchor="middle" pointer-events="none" x="0" y="5" font-size="10px" fill="#FFFFFF" font-family="sans-serif"> moa.Lev…</text></g><g class="node" transform="translate(-236.42347865735053,129.48563436907574)"><circle class="outline" cx="0" cy="0" r="25" fill="#569480" stroke="#447666" stroke-width="2px"/><text text-anchor="middle" pointer-events="none" font-family="sans-serif" dy="1.5625" font-size="25" fill="#FFFFFF"/><text text-anchor="middle" pointer-events="none" x="0" y="5" font-size="10px" fill="#FFFFFF" font-family="sans-serif"> Ordered…</text></g><g class="node" transform="translate(82.86264798530192,45.20562446290148)"><circle class="outline" cx="0" cy="0" r="25" fill="#569480" stroke="#447666" stroke-width="2px"/><text text-anchor="middle" pointer-events="none" font-family="sans-serif" dy="1.5625" font-size="25" fill="#FFFFFF"/><text text-anchor="middle" pointer-events="none" x="0" y="5" font-size="10px" fill="#FFFFFF" font-family="sans-serif"> Ordered…</text></g><g class="node" transform="translate(-162.63571007324833,81.92314729859791)"><circle class="outline" cx="0" cy="0" r="25" fill="#F16667" stroke="#eb2728" stroke-width="2px"/><text text-anchor="middle" pointer-events="none" font-family="sans-serif" dy="1.5625" font-size="25" fill="#FFFFFF"/><text text-anchor="middle" pointer-events="none" x="0" y="5" font-size="10px" fill="#FFFFFF" font-family="sans-serif"> moa.Ra…</text></g><g class="node" transform="translate(-98.4442773699763,47.05190797527173)"><circle class="outline" cx="0" cy="0" r="25" fill="#569480" stroke="#447666" stroke-width="2px"/><text text-anchor="middle" pointer-events="none" font-family="sans-serif" dy="1.5625" font-size="25" fill="#FFFFFF"/><text text-anchor="middle" pointer-events="none" x="0" y="5" font-size="10px" fill="#FFFFFF" font-family="sans-serif"> Ordered…</text></g><g class="node" transform="translate(-161.98275064200715,141.00967601273052)"><circle class="outline" cx="0" cy="0" r="25" fill="#F16667" stroke="#eb2728" stroke-width="2px"/><text text-anchor="middle" pointer-events="none" font-family="sans-serif" dy="1.5625" font-size="25" fill="#FFFFFF"/><text text-anchor="middle" pointer-events="none" x="0" y="5" font-size="10px" fill="#FFFFFF" font-family="sans-serif"> moa.Ra…</text></g><g class="node" transform="translate(-23.368942469628962,102.55009008582172)"><circle class="outline" cx="0" cy="0" r="25" fill="#F16667" stroke="#eb2728" stroke-width="2px"/><text text-anchor="middle" pointer-events="none" font-family="sans-serif" dy="1.5625" font-size="25" fill="#FFFFFF"/><text text-anchor="middle" pointer-events="none" x="0" y="5" font-size="10px" fill="#FFFFFF" font-family="sans-serif"> moa.Ra…</text></g><g class="node" transform="translate(-209.73828535587182,-107.71728923131707)"><circle class="outline" cx="0" cy="0" r="25" fill="#569480" stroke="#447666" stroke-width="2px"/><text text-anchor="middle" pointer-events="none" font-family="sans-serif" dy="1.5625" font-size="25" fill="#FFFFFF"/><text text-anchor="middle" pointer-events="none" x="0" y="5" font-size="10px" fill="#FFFFFF" font-family="sans-serif"> Ordered…</text></g><g class="node" transform="translate(372.99930691098666,-221.89623617905752)"><circle class="outline" cx="0" cy="0" r="25" fill="#569480" stroke="#447666" stroke-width="2px"/><text text-anchor="middle" pointer-events="none" font-family="sans-serif" dy="1.5625" font-size="25" fill="#FFFFFF"/><text text-anchor="middle" pointer-events="none" x="0" y="5" font-size="10px" fill="#FFFFFF" font-family="sans-serif"> Ordered…</text></g><g class="node" transform="translate(12.640932727444692,444.63154062172043)"><circle class="outline" cx="0" cy="0" r="25" fill="#569480" stroke="#447666" stroke-width="2px"/><text text-anchor="middle" pointer-events="none" font-family="sans-serif" dy="1.5625" font-size="25" fill="#FFFFFF"/><text text-anchor="middle" pointer-events="none" x="0" y="5" font-size="10px" fill="#FFFFFF" font-family="sans-serif"> Ordered…</text></g><g class="node" transform="translate(-315.6225720720257,193.00148987852015)"><circle class="outline" cx="0" cy="0" r="25" fill="#F16667" stroke="#eb2728" stroke-width="2px"/><text text-anchor="middle" pointer-events="none" font-family="sans-serif" dy="1.5625" font-size="25" fill="#FFFFFF"/><text text-anchor="middle" pointer-events="none" x="0" y="5" font-size="10px" fill="#FFFFFF" font-family="sans-serif"> moa.Per…</text></g><g class="node" transform="translate(-192.78163224427612,212.17905193887384)"><circle class="outline" cx="0" cy="0" r="25" fill="#569480" stroke="#447666" stroke-width="2px"/><text text-anchor="middle" pointer-events="none" font-family="sans-serif" dy="1.5625" font-size="25" fill="#FFFFFF"/><text text-anchor="middle" pointer-events="none" x="0" y="5" font-size="10px" fill="#FFFFFF" font-family="sans-serif"> Ordered…</text></g><g class="node" transform="translate(-280.85262104228406,244.3401924010144)"><circle class="outline" cx="0" cy="0" r="25" fill="#F16667" stroke="#eb2728" stroke-width="2px"/><text text-anchor="middle" pointer-events="none" font-family="sans-serif" dy="1.5625" font-size="25" fill="#FFFFFF"/><text text-anchor="middle" pointer-events="none" x="0" y="5" font-size="10px" fill="#FFFFFF" font-family="sans-serif"> moa.Per…</text></g><g class="node" transform="translate(-211.78024555745873,266.97553822537236)"><circle class="outline" cx="0" cy="0" r="25" fill="#F16667" stroke="#eb2728" stroke-width="2px"/><text text-anchor="middle" pointer-events="none" font-family="sans-serif" dy="1.5625" font-size="25" fill="#FFFFFF"/><text text-anchor="middle" pointer-events="none" x="0" y="5" font-size="10px" fill="#FFFFFF" font-family="sans-serif"> moa.Per…</text></g><g class="node" transform="translate(377.5989273266117,-118.37382755143739)"><circle class="outline" cx="0" cy="0" r="25" fill="#569480" stroke="#447666" stroke-width="2px"/><text text-anchor="middle" pointer-events="none" font-family="sans-serif" dy="1.5625" font-size="25" fill="#FFFFFF"/><text text-anchor="middle" pointer-events="none" x="0" y="5" font-size="10px" fill="#FFFFFF" font-family="sans-serif"> Ordered…</text></g><g class="node" transform="translate(-157.05972067173442,-136.15561302323113)"><circle class="outline" cx="0" cy="0" r="25" fill="#569480" stroke="#447666" stroke-width="2px"/><text text-anchor="middle" pointer-events="none" font-family="sans-serif" dy="1.5625" font-size="25" fill="#FFFFFF"/><text text-anchor="middle" pointer-events="none" x="0" y="5" font-size="10px" fill="#FFFFFF" font-family="sans-serif"> Ordered…</text></g><g class="node" transform="translate(340.8442853977158,-271.9549362724272)"><circle class="outline" cx="0" cy="0" r="25" fill="#569480" stroke="#447666" stroke-width="2px"/><text text-anchor="middle" pointer-events="none" font-family="sans-serif" dy="1.5625" font-size="25" fill="#FFFFFF"/><text text-anchor="middle" pointer-events="none" x="0" y="5" font-size="10px" fill="#FFFFFF" font-family="sans-serif"> Ordered…</text></g><g class="node" transform="translate(76.01062255171459,413.9961539994014)"><circle class="outline" cx="0" cy="0" r="25" fill="#569480" stroke="#447666" stroke-width="2px"/><text text-anchor="middle" pointer-events="none" font-family="sans-serif" dy="1.5625" font-size="25" fill="#FFFFFF"/><text text-anchor="middle" pointer-events="none" x="0" y="5" font-size="10px" fill="#FFFFFF" font-family="sans-serif"> Ordered…</text></g><g class="node" transform="translate(-122.39841669236918,249.03723345450572)"><circle class="outline" cx="0" cy="0" r="25" fill="#F16667" stroke="#eb2728" stroke-width="2px"/><text text-anchor="middle" pointer-events="none" font-family="sans-serif" dy="1.5625" font-size="25" fill="#FFFFFF"/><text text-anchor="middle" pointer-events="none" x="0" y="5" font-size="10px" fill="#FFFFFF" font-family="sans-serif"> moa.OR…</text></g><g class="node" transform="translate(-72.38755499241921,170.3973348908214)"><circle class="outline" cx="0" cy="0" r="25" fill="#569480" stroke="#447666" stroke-width="2px"/><text text-anchor="middle" pointer-events="none" font-family="sans-serif" dy="1.5625" font-size="25" fill="#FFFFFF"/><text text-anchor="middle" pointer-events="none" x="0" y="5" font-size="10px" fill="#FFFFFF" font-family="sans-serif"> Ordered…</text></g><g class="node" transform="translate(141.20217119644855,333.7380651855101)"><circle class="outline" cx="0" cy="0" r="25" fill="#569480" stroke="#447666" stroke-width="2px"/><text text-anchor="middle" pointer-events="none" font-family="sans-serif" dy="1.5625" font-size="25" fill="#FFFFFF"/><text text-anchor="middle" pointer-events="none" x="0" y="5" font-size="10px" fill="#FFFFFF" font-family="sans-serif"> Ordered…</text></g><g class="node" transform="translate(344.67243049714284,57.80772767729172)"><circle class="outline" cx="0" cy="0" r="25" fill="#569480" stroke="#447666" stroke-width="2px"/><text text-anchor="middle" pointer-events="none" font-family="sans-serif" dy="1.5625" font-size="25" fill="#FFFFFF"/><text text-anchor="middle" pointer-events="none" x="0" y="5" font-size="10px" fill="#FFFFFF" font-family="sans-serif"> Ordered…</text></g><g class="node" transform="translate(-54.28561573284341,238.8160748605053)"><circle class="outline" cx="0" cy="0" r="25" fill="#F16667" stroke="#eb2728" stroke-width="2px"/><text text-anchor="middle" pointer-events="none" font-family="sans-serif" dy="1.5625" font-size="25" fill="#FFFFFF"/><text text-anchor="middle" pointer-events="none" x="0" y="5" font-size="10px" fill="#FFFFFF" font-family="sans-serif"> moa.Bla…</text></g><g class="node" transform="translate(38.005713966776895,308.27596221200804)"><circle class="outline" cx="0" cy="0" r="25" fill="#569480" stroke="#447666" stroke-width="2px"/><text text-anchor="middle" pointer-events="none" font-family="sans-serif" dy="1.5625" font-size="25" fill="#FFFFFF"/><text text-anchor="middle" pointer-events="none" x="0" y="5" font-size="10px" fill="#FFFFFF" font-family="sans-serif"> Ordered…</text></g><g class="node" transform="translate(4.744863997631363,235.25635584667754)"><circle class="outline" cx="0" cy="0" r="25" fill="#F16667" stroke="#eb2728" stroke-width="2px"/><text text-anchor="middle" pointer-events="none" font-family="sans-serif" dy="1.5625" font-size="25" fill="#FFFFFF"/><text text-anchor="middle" pointer-events="none" x="0" y="5" font-size="10px" fill="#FFFFFF" font-family="sans-serif"> moa.Bla…</text></g><g class="node" transform="translate(-253.73755955880816,-66.94384343990018)"><circle class="outline" cx="0" cy="0" r="25" fill="#569480" stroke="#447666" stroke-width="2px"/><text text-anchor="middle" pointer-events="none" font-family="sans-serif" dy="1.5625" font-size="25" fill="#FFFFFF"/><text text-anchor="middle" pointer-events="none" x="0" y="5" font-size="10px" fill="#FFFFFF" font-family="sans-serif"> Ordered…</text></g><g class="node" transform="translate(405.242688474189,-171.44420904763365)"><circle class="outline" cx="0" cy="0" r="25" fill="#569480" stroke="#447666" stroke-width="2px"/><text text-anchor="middle" pointer-events="none" font-family="sans-serif" dy="1.5625" font-size="25" fill="#FFFFFF"/><text text-anchor="middle" pointer-events="none" x="0" y="5" font-size="10px" fill="#FFFFFF" font-family="sans-serif"> Ordered…</text></g><g class="node" transform="translate(547.1672629467804,-51.47327977312052)"><circle class="outline" cx="0" cy="0" r="25" fill="#F16667" stroke="#eb2728" stroke-width="2px"/><text text-anchor="middle" pointer-events="none" font-family="sans-serif" dy="1.5625" font-size="25" fill="#FFFFFF"/><text text-anchor="middle" pointer-events="none" x="0" y="5" font-size="10px" fill="#FFFFFF" font-family="sans-serif"> moa.WE…</text></g><g class="node" transform="translate(428.05771814775926,-61.20908869618637)"><circle class="outline" cx="0" cy="0" r="25" fill="#569480" stroke="#447666" stroke-width="2px"/><text text-anchor="middle" pointer-events="none" font-family="sans-serif" dy="1.5625" font-size="25" fill="#FFFFFF"/><text text-anchor="middle" pointer-events="none" x="0" y="5" font-size="10px" fill="#FFFFFF" font-family="sans-serif"> Ordered…</text></g><g class="node" transform="translate(463.3800152644377,-116.57552087171219)"><circle class="outline" cx="0" cy="0" r="25" fill="#F16667" stroke="#eb2728" stroke-width="2px"/><text text-anchor="middle" pointer-events="none" font-family="sans-serif" dy="1.5625" font-size="25" fill="#FFFFFF"/><text text-anchor="middle" pointer-events="none" x="0" y="5" font-size="10px" fill="#FFFFFF" font-family="sans-serif"> moa.WE…</text></g><g class="node" transform="translate(-229.2800535036323,50.63531925478367)"><circle class="outline" cx="0" cy="0" r="25" fill="#F16667" stroke="#eb2728" stroke-width="2px"/><text text-anchor="middle" pointer-events="none" font-family="sans-serif" dy="1.5625" font-size="25" fill="#FFFFFF"/><text text-anchor="middle" pointer-events="none" x="0" y="5" font-size="10px" fill="#FFFFFF" font-family="sans-serif"> moa.De…</text></g><g class="node" transform="translate(-310.99570779682506,90.75767577219285)"><circle class="outline" cx="0" cy="0" r="25" fill="#569480" stroke="#447666" stroke-width="2px"/><text text-anchor="middle" pointer-events="none" font-family="sans-serif" dy="1.5625" font-size="25" fill="#FFFFFF"/><text text-anchor="middle" pointer-events="none" x="0" y="5" font-size="10px" fill="#FFFFFF" font-family="sans-serif"> Ordered…</text></g><g class="node" transform="translate(1.1484882410100568,369.88842759652346)"><circle class="outline" cx="0" cy="0" r="25" fill="#569480" stroke="#447666" stroke-width="2px"/><text text-anchor="middle" pointer-events="none" font-family="sans-serif" dy="1.5625" font-size="25" fill="#FFFFFF"/><text text-anchor="middle" pointer-events="none" x="0" y="5" font-size="10px" fill="#FFFFFF" font-family="sans-serif"> Ordered…</text></g><g class="node" transform="translate(9.41373788237928,153.19078533759506)"><circle class="outline" cx="0" cy="0" r="25" fill="#569480" stroke="#447666" stroke-width="2px"/><text text-anchor="middle" pointer-events="none" font-family="sans-serif" dy="1.5625" font-size="25" fill="#FFFFFF"/><text text-anchor="middle" pointer-events="none" x="0" y="5" font-size="10px" fill="#FFFFFF" font-family="sans-serif"> Ordered…</text></g><g class="node" transform="translate(-100.33308552314722,108.03611885575944)"><circle class="outline" cx="0" cy="0" r="25" fill="#569480" stroke="#447666" stroke-width="2px"/><text text-anchor="middle" pointer-events="none" font-family="sans-serif" dy="1.5625" font-size="25" fill="#FFFFFF"/><text text-anchor="middle" pointer-events="none" x="0" y="5" font-size="10px" fill="#FFFFFF" font-family="sans-serif"> Ordered…</text></g></g></svg>