<svg xmlns="http://www.w3.org/2000/svg" width="711.8392944335938" height="293.44561767578125" viewBox="-348.03741455078125 -25.3787841796875 711.8392944335938 293.44561767578125"><title>Neo4j Graph Visualization</title><desc>Created using Neo4j (http://www.neo4j.com/)</desc><g class="layer relationships"><g class="relationship" transform="translate(103.74259597383903 122.31954788750862) rotate(384.4367016520177)"><path class="outline" fill="#A5ABB6" stroke="none" d="M 25 0.5 L 36.07654207807964 0.5 L 36.07654207807964 -0.5 L 25 -0.5 Z M 78.99060457807964 0.5 L 90.06714665615928 0.5 L 90.06714665615928 3.5 L 97.06714665615928 0 L 90.06714665615928 -3.5 L 90.06714665615928 -0.5 L 78.99060457807964 -0.5 Z"/><text text-anchor="middle" pointer-events="none" font-size="8px" fill="#000000" x="57.53357332807964" y="3" font-family="sans-serif">takesInput</text></g><g class="relationship" transform="translate(103.74259597383903 122.31954788750862) rotate(208.96374174524055)"><path class="outline" fill="#A5ABB6" stroke="none" d="M 25 0.5 L 53.4962815054144 0.5 L 53.4962815054144 -0.5 L 25 -0.5 Z M 87.0705002554144 0.5 L 115.5667817608288 0.5 L 115.5667817608288 3.5 L 122.5667817608288 0 L 115.5667817608288 -3.5 L 115.5667817608288 -0.5 L 87.0705002554144 -0.5 Z"/><text text-anchor="middle" pointer-events="none" font-size="8px" fill="#000000" x="70.2833908804144" y="3" transform="rotate(180 70.2833908804144 0)" font-family="sans-serif">deploys</text></g><g class="relationship" transform="translate(103.74259597383903 122.31954788750862) rotate(277.43679976247364)"><path class="outline" fill="#A5ABB6" stroke="none" d="M 25 0.5 L 46.90341328186982 0.5 L 46.90341328186982 -0.5 L 25 -0.5 Z M 65.80185078186982 0.5 L 87.70526406373963 0.5 L 87.70526406373963 3.5 L 94.70526406373963 0 L 87.70526406373963 -3.5 L 87.70526406373963 -0.5 L 65.80185078186982 -0.5 Z"/><text text-anchor="middle" pointer-events="none" font-size="8px" fill="#000000" x="56.35263203186982" y="3" font-family="sans-serif">has</text></g><g class="relationship" transform="translate(103.74259597383903 122.31954788750862) rotate(467.88440657411036)"><path class="outline" fill="#A5ABB6" stroke="none" d="M 25 0.5 L 38.82782218548838 0.5 L 38.82782218548838 -0.5 L 25 -0.5 Z M 76.84735343548837 0.5 L 90.67517562097676 0.5 L 90.67517562097676 3.5 L 97.67517562097676 0 L 90.67517562097676 -3.5 L 90.67517562097676 -0.5 L 76.84735343548837 -0.5 Z"/><text text-anchor="middle" pointer-events="none" font-size="8px" fill="#000000" x="57.83758781048838" y="3" transform="rotate(180 57.83758781048838 0)" font-family="sans-serif">executes</text></g><g class="relationship" transform="translate(334.80186746275444 176.09966839031708) rotate(181.56781349176242)"><path class="outline" fill="#A5ABB6" stroke="none" d="M 25 0.5 L 41.70081981133496 0.5 L 41.70081981133496 -0.5 L 25 -0.5 Z M 71.27113231133495 0.5 L 87.97195212266992 0.5 L 87.97195212266992 3.5 L 94.97195212266992 0 L 87.97195212266992 -3.5 L 87.97195212266992 -0.5 L 71.27113231133495 -0.5 Z"/><text text-anchor="middle" pointer-events="none" font-size="8px" fill="#000000" x="56.48597606133496" y="3" transform="rotate(180 56.48597606133496 0)" font-family="sans-serif">isInput</text></g><g class="relationship" transform="translate(200.67384483879536 53.401982556929234) rotate(504.58739003657615)"><path class="outline" fill="#A5ABB6" stroke="none" d="M 25 0.5 L 36.07247182232317 0.5 L 36.07247182232317 -0.5 L 25 -0.5 Z M 75.86153432232317 0.5 L 86.93400614464635 0.5 L 86.93400614464635 3.5 L 93.93400614464635 0 L 86.93400614464635 -3.5 L 86.93400614464635 -0.5 L 75.86153432232317 -0.5 Z"/><text text-anchor="middle" pointer-events="none" font-size="8px" fill="#000000" x="55.96700307232317" y="3" transform="rotate(180 55.96700307232317 0)" font-family="sans-serif">optimizes</text></g><g class="relationship" transform="translate(-25.36746713007276 50.859442342162566) rotate(539.3389683345399)"><path class="outline" fill="#A5ABB6" stroke="none" d="M 25 0.5 L 62.66578489157736 0.5 L 62.66578489157736 -0.5 L 25 -0.5 Z M 92.67750364157736 0.5 L 130.34328853315472 0.5 L 130.34328853315472 3.5 L 137.34328853315472 0 L 130.34328853315472 -3.5 L 130.34328853315472 -0.5 L 92.67750364157736 -0.5 Z"/><text text-anchor="middle" pointer-events="none" font-size="8px" fill="#000000" x="77.67164426657736" y="3" transform="rotate(180 77.67164426657736 0)" font-family="sans-serif">builtBy</text></g><g class="relationship" transform="translate(66.06934105361687 239.06681585277386) rotate(231.54364078393246)"><path class="outline" fill="#A5ABB6" stroke="none" d="M 25 0.5 L 39.770066362906036 0.5 L 39.770066362906036 -0.5 L 25 -0.5 Z M 89.80131636290604 0.5 L 104.57138272581207 0.5 L 104.57138272581207 3.5 L 111.57138272581207 0 L 104.57138272581207 -3.5 L 104.57138272581207 -0.5 L 89.80131636290604 -0.5 Z"/><text text-anchor="middle" pointer-events="none" font-size="8px" fill="#000000" x="64.78569136290604" y="3" transform="rotate(180 64.78569136290604 0)" font-family="sans-serif">evaluatedBy</text></g><g class="relationship" transform="translate(-141.61638208987443 186.53378537789843) rotate(539.4442683287178)"><path class="outline" fill="#A5ABB6" stroke="none" d="M 25 0.5 L 60.64828855425766 0.5 L 60.64828855425766 -0.5 L 25 -0.5 Z M 109.78110105425766 0.5 L 145.42938960851532 0.5 L 145.42938960851532 3.5 L 152.42938960851532 0 L 145.42938960851532 -3.5 L 145.42938960851532 -0.5 L 109.78110105425766 -0.5 Z"/><text text-anchor="middle" pointer-events="none" font-size="8px" fill="#000000" x="85.21469480425766" y="3" transform="rotate(180 85.21469480425766 0)" font-family="sans-serif">completesIn</text></g><g class="relationship" transform="translate(-141.61638208987443 186.53378537789843) rotate(374.1949344971406)"><path class="outline" fill="#A5ABB6" stroke="none" d="M 25 0.5 L 84.60358425318876 0.5 L 84.60358425318876 -0.5 L 25 -0.5 Z M 122.62311550318876 0.5 L 182.2266997563775 0.5 L 182.2266997563775 3.5 L 189.2266997563775 0 L 182.2266997563775 -3.5 L 182.2266997563775 -0.5 L 122.62311550318876 -0.5 Z"/><text text-anchor="middle" pointer-events="none" font-size="8px" fill="#000000" x="103.61334987818876" y="3" font-family="sans-serif">executes</text></g><g class="relationship" transform="translate(-141.61638208987443 186.53378537789843) rotate(250.99538624156116)"><path class="outline" fill="#A5ABB6" stroke="none" d="M 25 0.5 L 52.25166719032265 0.5 L 52.25166719032265 -0.5 L 25 -0.5 Z M 82.26338594032265 0.5 L 109.5150531306453 0.5 L 109.5150531306453 3.5 L 116.5150531306453 0 L 109.5150531306453 -3.5 L 109.5150531306453 -0.5 L 82.26338594032265 -0.5 Z"/><text text-anchor="middle" pointer-events="none" font-size="8px" fill="#000000" x="67.25752656532265" y="3" transform="rotate(180 67.25752656532265 0)" font-family="sans-serif">builtBy</text></g></g><g class="layer nodes"><g class="node" transform="translate(214.8748277295287,172.81722464373155)"><circle class="outline" cx="0" cy="0" r="25" fill="#DA7194" stroke="#cc3c6c" stroke-width="2px"/><text text-anchor="middle" pointer-events="none" font-family="sans-serif" dy="1.5625" font-size="25" fill="#FFFFFF"/><text text-anchor="middle" pointer-events="none" x="0" y="5" font-size="10px" fill="#FFFFFF" font-family="sans-serif"> Dataset…</text></g><g class="node" transform="translate(-187.69995130962184,52.73238437425381)"><circle class="outline" cx="0" cy="0" r="25" fill="#DA7194" stroke="#cc3c6c" stroke-width="2px"/><text text-anchor="middle" pointer-events="none" font-family="sans-serif" dy="1.5625" font-size="25" fill="#FFFFFF"/><text text-anchor="middle" pointer-events="none" x="0" y="5" font-size="10px" fill="#FFFFFF" font-family="sans-serif"> Framew…</text></g><g class="node" transform="translate(103.74259597383903,122.31954788750862)"><circle class="outline" cx="0" cy="0" r="25" fill="#DA7194" stroke="#cc3c6c" stroke-width="2px"/><text text-anchor="middle" pointer-events="none" font-family="sans-serif" dy="1.5625" font-size="25" fill="#FFFFFF"/><text text-anchor="middle" pointer-events="none" x="0" y="5" font-size="10px" fill="#FFFFFF" font-family="sans-serif"> Model</text></g><g class="node" transform="translate(334.80186746275444,176.09966839031708)"><circle class="outline" cx="0" cy="0" r="25" fill="#DA7194" stroke="#cc3c6c" stroke-width="2px"/><text text-anchor="middle" pointer-events="none" font-family="sans-serif" dy="1.5625" font-size="25" fill="#FFFFFF"/><text text-anchor="middle" pointer-events="none" x="0" y="5" font-size="10px" fill="#FFFFFF" font-family="sans-serif"> Dataset</text></g><g class="node" transform="translate(-319.03742572127885,188.2547076868982)"><circle class="outline" cx="0" cy="0" r="25" fill="#DA7194" stroke="#cc3c6c" stroke-width="2px"/><text text-anchor="middle" pointer-events="none" font-family="sans-serif" dy="1.5625" font-size="25" fill="#FFFFFF"/><text text-anchor="middle" pointer-events="none" x="0" y="5" font-size="10px" fill="#FFFFFF" font-family="sans-serif"> Time</text></g><g class="node" transform="translate(200.67384483879536,53.401982556929234)"><circle class="outline" cx="0" cy="0" r="25" fill="#DA7194" stroke="#cc3c6c" stroke-width="2px"/><text text-anchor="middle" pointer-events="none" font-family="sans-serif" dy="1.5625" font-size="25" fill="#FFFFFF"/><text text-anchor="middle" pointer-events="none" x="0" y="5" font-size="10px" fill="#FFFFFF" font-family="sans-serif"> Optimizer</text></g><g class="node" transform="translate(119.23634727346955,3.621216327057313)"><circle class="outline" cx="0" cy="0" r="25" fill="#DA7194" stroke="#cc3c6c" stroke-width="2px"/><text text-anchor="middle" pointer-events="none" font-family="sans-serif" dy="1.5625" font-size="25" fill="#FFFFFF"/><text text-anchor="middle" pointer-events="none" x="0" y="5" font-size="10px" fill="#FFFFFF" font-family="sans-serif"> Hyperpa…</text></g><g class="node" transform="translate(-25.36746713007276,50.859442342162566)"><circle class="outline" cx="0" cy="0" r="25" fill="#DA7194" stroke="#cc3c6c" stroke-width="2px"/><text text-anchor="middle" pointer-events="none" font-family="sans-serif" dy="1.5625" font-size="25" fill="#FFFFFF"/><text text-anchor="middle" pointer-events="none" x="0" y="5" font-size="10px" fill="#FFFFFF" font-family="sans-serif"> Deploy…</text></g><g class="node" transform="translate(66.06934105361687,239.06681585277386)"><circle class="outline" cx="0" cy="0" r="25" fill="#DA7194" stroke="#cc3c6c" stroke-width="2px"/><text text-anchor="middle" pointer-events="none" font-family="sans-serif" dy="1.5625" font-size="25" fill="#FFFFFF"/><text text-anchor="middle" pointer-events="none" x="0" y="5" font-size="10px" fill="#FFFFFF" font-family="sans-serif"> Task</text></g><g class="node" transform="translate(-18.866909691613536,132.12021287267174)"><circle class="outline" cx="0" cy="0" r="25" fill="#DA7194" stroke="#cc3c6c" stroke-width="2px"/><text text-anchor="middle" pointer-events="none" font-family="sans-serif" dy="1.5625" font-size="25" fill="#FFFFFF"/><text text-anchor="middle" pointer-events="none" x="0" y="5" font-size="10px" fill="#FFFFFF" font-family="sans-serif"> Evaluati…</text></g><g class="node" transform="translate(-141.61638208987443,186.53378537789843)"><circle class="outline" cx="0" cy="0" r="25" fill="#DA7194" stroke="#cc3c6c" stroke-width="2px"/><text text-anchor="middle" pointer-events="none" font-family="sans-serif" dy="1.5625" font-size="25" fill="#FFFFFF"/><text text-anchor="middle" pointer-events="none" x="0" y="5" font-size="10px" fill="#FFFFFF" font-family="sans-serif"> Pipeline</text></g></g></svg>