<svg xmlns="http://www.w3.org/2000/svg" width="548.7184448242188" height="555.820556640625" viewBox="-210.38230895996094 -182.87918090820312 548.7184448242188 555.820556640625"><title>Neo4j Graph Visualization</title><desc>Created using Neo4j (http://www.neo4j.com/)</desc><g class="layer relationships"><g class="relationship" transform="translate(64.7050636621153 91.98358005698253) rotate(497.0175108024776)"><path class="outline" fill="#A5ABB6" stroke="none" d="M 25 0.5 L 37.06663321980788 0.5 L 37.06663321980788 -0.5 L 25 -0.5 Z M 87.09788321980788 0.5 L 99.16451643961577 0.5 L 99.16451643961577 3.5 L 106.16451643961577 0 L 99.16451643961577 -3.5 L 99.16451643961577 -0.5 L 87.09788321980788 -0.5 Z"/><text text-anchor="middle" pointer-events="none" font-size="8px" fill="#000000" x="62.08225821980788" y="3" transform="rotate(180 62.08225821980788 0)" font-family="sans-serif">evaluatedBy</text></g><g class="relationship" transform="translate(64.7050636621153 91.98358005698253) rotate(469.9703503881624)"><path class="outline" fill="#A5ABB6" stroke="none" d="M 25 0.5 L 33.15881233667701 0.5 L 33.15881233667701 -0.5 L 25 -0.5 Z M 83.19006233667702 0.5 L 91.34887467335402 0.5 L 91.34887467335402 3.5 L 98.34887467335402 0 L 91.34887467335402 -3.5 L 91.34887467335402 -0.5 L 83.19006233667702 -0.5 Z"/><text text-anchor="middle" pointer-events="none" font-size="8px" fill="#000000" x="58.17443733667701" y="3" transform="rotate(180 58.17443733667701 0)" font-family="sans-serif">evaluatedBy</text></g><g class="relationship" transform="translate(64.7050636621153 91.98358005698253) rotate(482.1294086039326)"><path class="outline" fill="#A5ABB6" stroke="none" d="M 25 0.5 L 90.92903338603517 0.5 L 90.92903338603517 -0.5 L 25 -0.5 Z M 140.96028338603517 0.5 L 206.88931677207034 0.5 L 206.88931677207034 3.5 L 213.88931677207034 0 L 206.88931677207034 -3.5 L 206.88931677207034 -0.5 L 140.96028338603517 -0.5 Z"/><text text-anchor="middle" pointer-events="none" font-size="8px" fill="#000000" x="115.94465838603517" y="3" transform="rotate(180 115.94465838603517 0)" font-family="sans-serif">evaluatedBy</text></g><g class="relationship" transform="translate(64.7050636621153 91.98358005698253) rotate(182.52850137525036)"><path class="outline" fill="#A5ABB6" stroke="none" d="M 25 0.5 L 94.6479700600298 0.5 L 94.6479700600298 -0.5 L 25 -0.5 Z M 144.67922006002982 0.5 L 214.3271901200596 0.5 L 214.3271901200596 3.5 L 221.3271901200596 0 L 214.3271901200596 -3.5 L 214.3271901200596 -0.5 L 144.67922006002982 -0.5 Z"/><text text-anchor="middle" pointer-events="none" font-size="8px" fill="#000000" x="119.6635950600298" y="3" transform="rotate(180 119.6635950600298 0)" font-family="sans-serif">evaluatedBy</text></g><g class="relationship" transform="translate(64.7050636621153 91.98358005698253) rotate(407.6744425836225)"><path class="outline" fill="#A5ABB6" stroke="none" d="M 25 0.5 L 95.05981538070665 0.5 L 95.05981538070665 -0.5 L 25 -0.5 Z M 145.09106538070665 0.5 L 215.1508807614133 0.5 L 215.1508807614133 3.5 L 222.1508807614133 0 L 215.1508807614133 -3.5 L 215.1508807614133 -0.5 L 145.09106538070665 -0.5 Z"/><text text-anchor="middle" pointer-events="none" font-size="8px" fill="#000000" x="120.07544038070665" y="3" font-family="sans-serif">evaluatedBy</text></g><g class="relationship" transform="translate(64.7050636621153 91.98358005698253) rotate(445.1144898743035)"><path class="outline" fill="#A5ABB6" stroke="none" d="M 25 0.5 L 42.50883427161065 0.5 L 42.50883427161065 -0.5 L 25 -0.5 Z M 92.54008427161065 0.5 L 110.0489185432213 0.5 L 110.0489185432213 3.5 L 117.0489185432213 0 L 110.0489185432213 -3.5 L 110.0489185432213 -0.5 L 92.54008427161065 -0.5 Z"/><text text-anchor="middle" pointer-events="none" font-size="8px" fill="#000000" x="67.52445927161065" y="3" font-family="sans-serif">evaluatedBy</text></g><g class="relationship" transform="translate(64.7050636621153 91.98358005698253) rotate(307.489340042658)"><path class="outline" fill="#A5ABB6" stroke="none" d="M 25 0.5 L 91.59274369982376 0.5 L 91.59274369982376 -0.5 L 25 -0.5 Z M 141.62399369982376 0.5 L 208.2167373996475 0.5 L 208.2167373996475 3.5 L 215.2167373996475 0 L 208.2167373996475 -3.5 L 208.2167373996475 -0.5 L 141.62399369982376 -0.5 Z"/><text text-anchor="middle" pointer-events="none" font-size="8px" fill="#000000" x="116.60836869982376" y="3" font-family="sans-serif">evaluatedBy</text></g><g class="relationship" transform="translate(64.7050636621153 91.98358005698253) rotate(379.68759906497075)"><path class="outline" fill="#A5ABB6" stroke="none" d="M 25 0.5 L 92.99535612274201 0.5 L 92.99535612274201 -0.5 L 25 -0.5 Z M 143.026606122742 0.5 L 211.02196224548402 0.5 L 211.02196224548402 3.5 L 218.02196224548402 0 L 211.02196224548402 -3.5 L 211.02196224548402 -0.5 L 143.026606122742 -0.5 Z"/><text text-anchor="middle" pointer-events="none" font-size="8px" fill="#000000" x="118.01098112274201" y="3" font-family="sans-serif">evaluatedBy</text></g><g class="relationship" transform="translate(64.7050636621153 91.98358005698253) rotate(412.3055425495534)"><path class="outline" fill="#A5ABB6" stroke="none" d="M 25 0.5 L 66.37520387712347 0.5 L 66.37520387712347 -0.5 L 25 -0.5 Z M 116.40645387712347 0.5 L 157.78165775424694 0.5 L 157.78165775424694 3.5 L 164.78165775424694 0 L 157.78165775424694 -3.5 L 157.78165775424694 -0.5 L 116.40645387712347 -0.5 Z"/><text text-anchor="middle" pointer-events="none" font-size="8px" fill="#000000" x="91.39082887712347" y="3" font-family="sans-serif">evaluatedBy</text></g><g class="relationship" transform="translate(64.7050636621153 91.98358005698253) rotate(362.9055410234447)"><path class="outline" fill="#A5ABB6" stroke="none" d="M 25 0.5 L 39.53495616088627 0.5 L 39.53495616088627 -0.5 L 25 -0.5 Z M 89.56620616088627 0.5 L 104.10116232177253 0.5 L 104.10116232177253 3.5 L 111.10116232177253 0 L 104.10116232177253 -3.5 L 104.10116232177253 -0.5 L 89.56620616088627 -0.5 Z"/><text text-anchor="middle" pointer-events="none" font-size="8px" fill="#000000" x="64.55058116088627" y="3" font-family="sans-serif">evaluatedBy</text></g><g class="relationship" transform="translate(64.7050636621153 91.98358005698253) rotate(355.8733790985382)"><path class="outline" fill="#A5ABB6" stroke="none" d="M 25 0.5 L 67.84655475752268 0.5 L 67.84655475752268 -0.5 L 25 -0.5 Z M 117.87780475752268 0.5 L 160.72435951504536 0.5 L 160.72435951504536 3.5 L 167.72435951504536 0 L 160.72435951504536 -3.5 L 160.72435951504536 -0.5 L 117.87780475752268 -0.5 Z"/><text text-anchor="middle" pointer-events="none" font-size="8px" fill="#000000" x="92.86217975752268" y="3" font-family="sans-serif">evaluatedBy</text></g><g class="relationship" transform="translate(64.7050636621153 91.98358005698253) rotate(430.6463761934177)"><path class="outline" fill="#A5ABB6" stroke="none" d="M 25 0.5 L 64.44582136808742 0.5 L 64.44582136808742 -0.5 L 25 -0.5 Z M 114.47707136808742 0.5 L 153.92289273617484 0.5 L 153.92289273617484 3.5 L 160.92289273617484 0 L 153.92289273617484 -3.5 L 153.92289273617484 -0.5 L 114.47707136808742 -0.5 Z"/><text text-anchor="middle" pointer-events="none" font-size="8px" fill="#000000" x="89.46144636808742" y="3" font-family="sans-serif">evaluatedBy</text></g><g class="relationship" transform="translate(64.7050636621153 91.98358005698253) rotate(365.48139514114024)"><path class="outline" fill="#A5ABB6" stroke="none" d="M 25 0.5 L 92.43448269666482 0.5 L 92.43448269666482 -0.5 L 25 -0.5 Z M 142.46573269666482 0.5 L 209.90021539332963 0.5 L 209.90021539332963 3.5 L 216.90021539332963 0 L 209.90021539332963 -3.5 L 209.90021539332963 -0.5 L 142.46573269666482 -0.5 Z"/><text text-anchor="middle" pointer-events="none" font-size="8px" fill="#000000" x="117.45010769666482" y="3" font-family="sans-serif">evaluatedBy</text></g><g class="relationship" transform="translate(64.7050636621153 91.98358005698253) rotate(390.9245423171568)"><path class="outline" fill="#A5ABB6" stroke="none" d="M 25 0.5 L 35.18386804551167 0.5 L 35.18386804551167 -0.5 L 25 -0.5 Z M 85.21511804551167 0.5 L 95.39898609102335 0.5 L 95.39898609102335 3.5 L 102.39898609102335 0 L 95.39898609102335 -3.5 L 95.39898609102335 -0.5 L 85.21511804551167 -0.5 Z"/><text text-anchor="middle" pointer-events="none" font-size="8px" fill="#000000" x="60.19949304551167" y="3" font-family="sans-serif">evaluatedBy</text></g><g class="relationship" transform="translate(64.7050636621153 91.98358005698253) rotate(454.71944532341644)"><path class="outline" fill="#A5ABB6" stroke="none" d="M 25 0.5 L 69.06590391530662 0.5 L 69.06590391530662 -0.5 L 25 -0.5 Z M 119.09715391530662 0.5 L 163.16305783061324 0.5 L 163.16305783061324 3.5 L 170.16305783061324 0 L 163.16305783061324 -3.5 L 163.16305783061324 -0.5 L 119.09715391530662 -0.5 Z"/><text text-anchor="middle" pointer-events="none" font-size="8px" fill="#000000" x="94.08152891530662" y="3" transform="rotate(180 94.08152891530662 0)" font-family="sans-serif">evaluatedBy</text></g><g class="relationship" transform="translate(64.7050636621153 91.98358005698253) rotate(336.94552578013986)"><path class="outline" fill="#A5ABB6" stroke="none" d="M 25 0.5 L 63.58734158910555 0.5 L 63.58734158910555 -0.5 L 25 -0.5 Z M 113.61859158910555 0.5 L 152.2059331782111 0.5 L 152.2059331782111 3.5 L 159.2059331782111 0 L 152.2059331782111 -3.5 L 152.2059331782111 -0.5 L 113.61859158910555 -0.5 Z"/><text text-anchor="middle" pointer-events="none" font-size="8px" fill="#000000" x="88.60296658910555" y="3" font-family="sans-serif">evaluatedBy</text></g><g class="relationship" transform="translate(64.7050636621153 91.98358005698253) rotate(318.0673349169347)"><path class="outline" fill="#A5ABB6" stroke="none" d="M 25 0.5 L 63.26243625880598 0.5 L 63.26243625880598 -0.5 L 25 -0.5 Z M 113.29368625880598 0.5 L 151.55612251761195 0.5 L 151.55612251761195 3.5 L 158.55612251761195 0 L 151.55612251761195 -3.5 L 151.55612251761195 -0.5 L 113.29368625880598 -0.5 Z"/><text text-anchor="middle" pointer-events="none" font-size="8px" fill="#000000" x="88.27806125880598" y="3" font-family="sans-serif">evaluatedBy</text></g><g class="relationship" transform="translate(64.7050636621153 91.98358005698253) rotate(321.77761968617915)"><path class="outline" fill="#A5ABB6" stroke="none" d="M 25 0.5 L 92.46902636073256 0.5 L 92.46902636073256 -0.5 L 25 -0.5 Z M 142.50027636073256 0.5 L 209.9693027214651 0.5 L 209.9693027214651 3.5 L 216.9693027214651 0 L 209.9693027214651 -3.5 L 209.9693027214651 -0.5 L 142.50027636073256 -0.5 Z"/><text text-anchor="middle" pointer-events="none" font-size="8px" fill="#000000" x="117.48465136073256" y="3" font-family="sans-serif">evaluatedBy</text></g><g class="relationship" transform="translate(64.7050636621153 91.98358005698253) rotate(393.99256060246205)"><path class="outline" fill="#A5ABB6" stroke="none" d="M 25 0.5 L 64.89548692786524 0.5 L 64.89548692786524 -0.5 L 25 -0.5 Z M 114.92673692786524 0.5 L 154.82222385573047 0.5 L 154.82222385573047 3.5 L 161.82222385573047 0 L 154.82222385573047 -3.5 L 154.82222385573047 -0.5 L 114.92673692786524 -0.5 Z"/><text text-anchor="middle" pointer-events="none" font-size="8px" fill="#000000" x="89.91111192786524" y="3" font-family="sans-serif">evaluatedBy</text></g><g class="relationship" transform="translate(64.7050636621153 91.98358005698253) rotate(335.9503238008564)"><path class="outline" fill="#A5ABB6" stroke="none" d="M 25 0.5 L 93.51885534515638 0.5 L 93.51885534515638 -0.5 L 25 -0.5 Z M 143.5501053451564 0.5 L 212.06896069031276 0.5 L 212.06896069031276 3.5 L 219.06896069031276 0 L 212.06896069031276 -3.5 L 212.06896069031276 -0.5 L 143.5501053451564 -0.5 Z"/><text text-anchor="middle" pointer-events="none" font-size="8px" fill="#000000" x="118.53448034515638" y="3" font-family="sans-serif">evaluatedBy</text></g><g class="relationship" transform="translate(64.7050636621153 91.98358005698253) rotate(375.3293383181832)"><path class="outline" fill="#A5ABB6" stroke="none" d="M 25 0.5 L 64.11437187259924 0.5 L 64.11437187259924 -0.5 L 25 -0.5 Z M 114.14562187259924 0.5 L 153.25999374519847 0.5 L 153.25999374519847 3.5 L 160.25999374519847 0 L 153.25999374519847 -3.5 L 153.25999374519847 -0.5 L 114.14562187259924 -0.5 Z"/><text text-anchor="middle" pointer-events="none" font-size="8px" fill="#000000" x="89.12999687259924" y="3" font-family="sans-serif">evaluatedBy</text></g><g class="relationship" transform="translate(64.7050636621153 91.98358005698253) rotate(292.00070583422945)"><path class="outline" fill="#A5ABB6" stroke="none" d="M 25 0.5 L 93.85961147663058 0.5 L 93.85961147663058 -0.5 L 25 -0.5 Z M 143.89086147663056 0.5 L 212.75047295326115 0.5 L 212.75047295326115 3.5 L 219.75047295326115 0 L 212.75047295326115 -3.5 L 212.75047295326115 -0.5 L 143.89086147663056 -0.5 Z"/><text text-anchor="middle" pointer-events="none" font-size="8px" fill="#000000" x="118.87523647663058" y="3" font-family="sans-serif">evaluatedBy</text></g><g class="relationship" transform="translate(64.7050636621153 91.98358005698253) rotate(393.72605362398554)"><path class="outline" fill="#A5ABB6" stroke="none" d="M 25 0.5 L 94.8780321770562 0.5 L 94.8780321770562 -0.5 L 25 -0.5 Z M 144.90928217705618 0.5 L 214.7873143541124 0.5 L 214.7873143541124 3.5 L 221.7873143541124 0 L 214.7873143541124 -3.5 L 214.7873143541124 -0.5 L 144.90928217705618 -0.5 Z"/><text text-anchor="middle" pointer-events="none" font-size="8px" fill="#000000" x="119.8936571770562" y="3" font-family="sans-serif">evaluatedBy</text></g><g class="relationship" transform="translate(64.7050636621153 91.98358005698253) rotate(336.7767145389138)"><path class="outline" fill="#A5ABB6" stroke="none" d="M 25 0.5 L 33.58219851855596 0.5 L 33.58219851855596 -0.5 L 25 -0.5 Z M 83.61344851855597 0.5 L 92.19564703711193 0.5 L 92.19564703711193 3.5 L 99.19564703711193 0 L 92.19564703711193 -3.5 L 92.19564703711193 -0.5 L 83.61344851855597 -0.5 Z"/><text text-anchor="middle" pointer-events="none" font-size="8px" fill="#000000" x="58.59782351855596" y="3" font-family="sans-serif">evaluatedBy</text></g><g class="relationship" transform="translate(64.7050636621153 91.98358005698253) rotate(281.449774594758)"><path class="outline" fill="#A5ABB6" stroke="none" d="M 25 0.5 L 71.85713304700566 0.5 L 71.85713304700566 -0.5 L 25 -0.5 Z M 121.88838304700566 0.5 L 168.74551609401132 0.5 L 168.74551609401132 3.5 L 175.74551609401132 0 L 168.74551609401132 -3.5 L 168.74551609401132 -0.5 L 121.88838304700566 -0.5 Z"/><text text-anchor="middle" pointer-events="none" font-size="8px" fill="#000000" x="96.87275804700566" y="3" font-family="sans-serif">evaluatedBy</text></g><g class="relationship" transform="translate(64.7050636621153 91.98358005698253) rotate(449.7817000296227)"><path class="outline" fill="#A5ABB6" stroke="none" d="M 25 0.5 L 97.46413633087373 0.5 L 97.46413633087373 -0.5 L 25 -0.5 Z M 147.4953863308737 0.5 L 219.95952266174746 0.5 L 219.95952266174746 3.5 L 226.95952266174746 0 L 219.95952266174746 -3.5 L 219.95952266174746 -0.5 L 147.4953863308737 -0.5 Z"/><text text-anchor="middle" pointer-events="none" font-size="8px" fill="#000000" x="122.47976133087373" y="3" font-family="sans-serif">evaluatedBy</text></g><g class="relationship" transform="translate(64.7050636621153 91.98358005698253) rotate(256.43969785085625)"><path class="outline" fill="#A5ABB6" stroke="none" d="M 25 0.5 L 92.16338837224122 0.5 L 92.16338837224122 -0.5 L 25 -0.5 Z M 142.19463837224123 0.5 L 209.35802674448243 0.5 L 209.35802674448243 3.5 L 216.35802674448243 0 L 209.35802674448243 -3.5 L 209.35802674448243 -0.5 L 142.19463837224123 -0.5 Z"/><text text-anchor="middle" pointer-events="none" font-size="8px" fill="#000000" x="117.17901337224122" y="3" transform="rotate(180 117.17901337224122 0)" font-family="sans-serif">evaluatedBy</text></g><g class="relationship" transform="translate(64.7050636621153 91.98358005698253) rotate(305.18341778407995)"><path class="outline" fill="#A5ABB6" stroke="none" d="M 25 0.5 L 37.609225605922376 0.5 L 37.609225605922376 -0.5 L 25 -0.5 Z M 87.64047560592238 0.5 L 100.24970121184475 0.5 L 100.24970121184475 3.5 L 107.24970121184475 0 L 100.24970121184475 -3.5 L 100.24970121184475 -0.5 L 87.64047560592238 -0.5 Z"/><text text-anchor="middle" pointer-events="none" font-size="8px" fill="#000000" x="62.624850605922376" y="3" font-family="sans-serif">evaluatedBy</text></g><g class="relationship" transform="translate(64.7050636621153 91.98358005698253) rotate(242.05351206671668)"><path class="outline" fill="#A5ABB6" stroke="none" d="M 25 0.5 L 89.28428931753837 0.5 L 89.28428931753837 -0.5 L 25 -0.5 Z M 139.31553931753837 0.5 L 203.59982863507673 0.5 L 203.59982863507673 3.5 L 210.59982863507673 0 L 203.59982863507673 -3.5 L 203.59982863507673 -0.5 L 139.31553931753837 -0.5 Z"/><text text-anchor="middle" pointer-events="none" font-size="8px" fill="#000000" x="114.29991431753837" y="3" transform="rotate(180 114.29991431753837 0)" font-family="sans-serif">evaluatedBy</text></g><g class="relationship" transform="translate(64.7050636621153 91.98358005698253) rotate(466.51830836605814)"><path class="outline" fill="#A5ABB6" stroke="none" d="M 25 0.5 L 91.41120933915028 0.5 L 91.41120933915028 -0.5 L 25 -0.5 Z M 141.44245933915028 0.5 L 207.85366867830055 0.5 L 207.85366867830055 3.5 L 214.85366867830055 0 L 207.85366867830055 -3.5 L 207.85366867830055 -0.5 L 141.44245933915028 -0.5 Z"/><text text-anchor="middle" pointer-events="none" font-size="8px" fill="#000000" x="116.42683433915028" y="3" transform="rotate(180 116.42683433915028 0)" font-family="sans-serif">evaluatedBy</text></g><g class="relationship" transform="translate(64.7050636621153 91.98358005698253) rotate(420.1344292185283)"><path class="outline" fill="#A5ABB6" stroke="none" d="M 25 0.5 L 33.97648682487451 0.5 L 33.97648682487451 -0.5 L 25 -0.5 Z M 84.00773682487451 0.5 L 92.98422364974903 0.5 L 92.98422364974903 3.5 L 99.98422364974903 0 L 92.98422364974903 -3.5 L 92.98422364974903 -0.5 L 84.00773682487451 -0.5 Z"/><text text-anchor="middle" pointer-events="none" font-size="8px" fill="#000000" x="58.99211182487451" y="3" font-family="sans-serif">evaluatedBy</text></g><g class="relationship" transform="translate(64.7050636621153 91.98358005698253) rotate(227.66867555279663)"><path class="outline" fill="#A5ABB6" stroke="none" d="M 25 0.5 L 92.17322060715105 0.5 L 92.17322060715105 -0.5 L 25 -0.5 Z M 142.20447060715105 0.5 L 209.3776912143021 0.5 L 209.3776912143021 3.5 L 216.3776912143021 0 L 209.3776912143021 -3.5 L 209.3776912143021 -0.5 L 142.20447060715105 -0.5 Z"/><text text-anchor="middle" pointer-events="none" font-size="8px" fill="#000000" x="117.18884560715105" y="3" transform="rotate(180 117.18884560715105 0)" font-family="sans-serif">evaluatedBy</text></g><g class="relationship" transform="translate(64.7050636621153 91.98358005698253) rotate(263.47486391056884)"><path class="outline" fill="#A5ABB6" stroke="none" d="M 25 0.5 L 65.15948233205698 0.5 L 65.15948233205698 -0.5 L 25 -0.5 Z M 115.19073233205698 0.5 L 155.35021466411396 0.5 L 155.35021466411396 3.5 L 162.35021466411396 0 L 155.35021466411396 -3.5 L 155.35021466411396 -0.5 L 115.19073233205698 -0.5 Z"/><text text-anchor="middle" pointer-events="none" font-size="8px" fill="#000000" x="90.17510733205698" y="3" transform="rotate(180 90.17510733205698 0)" font-family="sans-serif">evaluatedBy</text></g><g class="relationship" transform="translate(64.7050636621153 91.98358005698253) rotate(197.92926209585903)"><path class="outline" fill="#A5ABB6" stroke="none" d="M 25 0.5 L 88.19429512783616 0.5 L 88.19429512783616 -0.5 L 25 -0.5 Z M 138.22554512783614 0.5 L 201.4198402556723 0.5 L 201.4198402556723 3.5 L 208.4198402556723 0 L 201.4198402556723 -3.5 L 201.4198402556723 -0.5 L 138.22554512783614 -0.5 Z"/><text text-anchor="middle" pointer-events="none" font-size="8px" fill="#000000" x="113.20992012783616" y="3" transform="rotate(180 113.20992012783616 0)" font-family="sans-serif">evaluatedBy</text></g><g class="relationship" transform="translate(64.7050636621153 91.98358005698253) rotate(421.72200145148867)"><path class="outline" fill="#A5ABB6" stroke="none" d="M 25 0.5 L 90.76612016471543 0.5 L 90.76612016471543 -0.5 L 25 -0.5 Z M 140.79737016471543 0.5 L 206.56349032943086 0.5 L 206.56349032943086 3.5 L 213.56349032943086 0 L 206.56349032943086 -3.5 L 206.56349032943086 -0.5 L 140.79737016471543 -0.5 Z"/><text text-anchor="middle" pointer-events="none" font-size="8px" fill="#000000" x="115.78174516471543" y="3" font-family="sans-serif">evaluatedBy</text></g><g class="relationship" transform="translate(64.7050636621153 91.98358005698253) rotate(350.03112691583146)"><path class="outline" fill="#A5ABB6" stroke="none" d="M 25 0.5 L 95.67492596321887 0.5 L 95.67492596321887 -0.5 L 25 -0.5 Z M 145.70617596321887 0.5 L 216.38110192643774 0.5 L 216.38110192643774 3.5 L 223.38110192643774 0 L 216.38110192643774 -3.5 L 216.38110192643774 -0.5 L 145.70617596321887 -0.5 Z"/><text text-anchor="middle" pointer-events="none" font-size="8px" fill="#000000" x="120.69055096321887" y="3" font-family="sans-serif">evaluatedBy</text></g><g class="relationship" transform="translate(64.7050636621153 91.98358005698253) rotate(243.20510733013384)"><path class="outline" fill="#A5ABB6" stroke="none" d="M 25 0.5 L 59.36622560535994 0.5 L 59.36622560535994 -0.5 L 25 -0.5 Z M 109.39747560535994 0.5 L 143.7637012107199 0.5 L 143.7637012107199 3.5 L 150.7637012107199 0 L 143.7637012107199 -3.5 L 143.7637012107199 -0.5 L 109.39747560535994 -0.5 Z"/><text text-anchor="middle" pointer-events="none" font-size="8px" fill="#000000" x="84.38185060535994" y="3" transform="rotate(180 84.38185060535994 0)" font-family="sans-serif">evaluatedBy</text></g><g class="relationship" transform="translate(64.7050636621153 91.98358005698253) rotate(279.166508990177)"><path class="outline" fill="#A5ABB6" stroke="none" d="M 25 0.5 L 42.048071192345986 0.5 L 42.048071192345986 -0.5 L 25 -0.5 Z M 92.07932119234599 0.5 L 109.12739238469197 0.5 L 109.12739238469197 3.5 L 116.12739238469197 0 L 109.12739238469197 -3.5 L 109.12739238469197 -0.5 L 92.07932119234599 -0.5 Z"/><text text-anchor="middle" pointer-events="none" font-size="8px" fill="#000000" x="67.06369619234599" y="3" font-family="sans-serif">evaluatedBy</text></g><g class="relationship" transform="translate(64.7050636621153 91.98358005698253) rotate(213.27665153069887)"><path class="outline" fill="#A5ABB6" stroke="none" d="M 25 0.5 L 88.29022300124696 0.5 L 88.29022300124696 -0.5 L 25 -0.5 Z M 138.32147300124694 0.5 L 201.61169600249391 0.5 L 201.61169600249391 3.5 L 208.61169600249391 0 L 201.61169600249391 -3.5 L 201.61169600249391 -0.5 L 138.32147300124694 -0.5 Z"/><text text-anchor="middle" pointer-events="none" font-size="8px" fill="#000000" x="113.30584800124696" y="3" transform="rotate(180 113.30584800124696 0)" font-family="sans-serif">evaluatedBy</text></g><g class="relationship" transform="translate(64.7050636621153 91.98358005698253) rotate(223.41176244452782)"><path class="outline" fill="#A5ABB6" stroke="none" d="M 25 0.5 L 63.230172564155964 0.5 L 63.230172564155964 -0.5 L 25 -0.5 Z M 113.26142256415596 0.5 L 151.49159512831193 0.5 L 151.49159512831193 3.5 L 158.49159512831193 0 L 151.49159512831193 -3.5 L 151.49159512831193 -0.5 L 113.26142256415596 -0.5 Z"/><text text-anchor="middle" pointer-events="none" font-size="8px" fill="#000000" x="88.24579756415596" y="3" transform="rotate(180 88.24579756415596 0)" font-family="sans-serif">evaluatedBy</text></g><g class="relationship" transform="translate(64.7050636621153 91.98358005698253) rotate(188.61930279947552)"><path class="outline" fill="#A5ABB6" stroke="none" d="M 25 0.5 L 35.9491972513235 0.5 L 35.9491972513235 -0.5 L 25 -0.5 Z M 85.9804472513235 0.5 L 96.929644502647 0.5 L 96.929644502647 3.5 L 103.929644502647 0 L 96.929644502647 -3.5 L 96.929644502647 -0.5 L 85.9804472513235 -0.5 Z"/><text text-anchor="middle" pointer-events="none" font-size="8px" fill="#000000" x="60.9648222513235" y="3" transform="rotate(180 60.9648222513235 0)" font-family="sans-serif">evaluatedBy</text></g><g class="relationship" transform="translate(64.7050636621153 91.98358005698253) rotate(525.5964663890011)"><path class="outline" fill="#A5ABB6" stroke="none" d="M 25 0.5 L 47.042636478074826 0.5 L 47.042636478074826 -0.5 L 25 -0.5 Z M 97.07388647807483 0.5 L 119.11652295614965 0.5 L 119.11652295614965 3.5 L 126.11652295614965 0 L 119.11652295614965 -3.5 L 119.11652295614965 -0.5 L 97.07388647807483 -0.5 Z"/><text text-anchor="middle" pointer-events="none" font-size="8px" fill="#000000" x="72.05826147807483" y="3" transform="rotate(180 72.05826147807483 0)" font-family="sans-serif">evaluatedBy</text></g><g class="relationship" transform="translate(64.7050636621153 91.98358005698253) rotate(182.22509431508132)"><path class="outline" fill="#A5ABB6" stroke="none" d="M 25 0.5 L 64.68796794500932 0.5 L 64.68796794500932 -0.5 L 25 -0.5 Z M 114.71921794500932 0.5 L 154.40718589001864 0.5 L 154.40718589001864 3.5 L 161.40718589001864 0 L 154.40718589001864 -3.5 L 154.40718589001864 -0.5 L 114.71921794500932 -0.5 Z"/><text text-anchor="middle" pointer-events="none" font-size="8px" fill="#000000" x="89.70359294500932" y="3" transform="rotate(180 89.70359294500932 0)" font-family="sans-serif">evaluatedBy</text></g><g class="relationship" transform="translate(64.7050636621153 91.98358005698253) rotate(252.85693850761618)"><path class="outline" fill="#A5ABB6" stroke="none" d="M 25 0.5 L 31.983578863913415 0.5 L 31.983578863913415 -0.5 L 25 -0.5 Z M 82.01482886391341 0.5 L 88.99840772782683 0.5 L 88.99840772782683 3.5 L 95.99840772782683 0 L 88.99840772782683 -3.5 L 88.99840772782683 -0.5 L 82.01482886391341 -0.5 Z"/><text text-anchor="middle" pointer-events="none" font-size="8px" fill="#000000" x="56.999203863913415" y="3" transform="rotate(180 56.999203863913415 0)" font-family="sans-serif">evaluatedBy</text></g><g class="relationship" transform="translate(64.7050636621153 91.98358005698253) rotate(527.9588491976136)"><path class="outline" fill="#A5ABB6" stroke="none" d="M 25 0.5 L 84.20921821332165 0.5 L 84.20921821332165 -0.5 L 25 -0.5 Z M 134.24046821332166 0.5 L 193.4496864266433 0.5 L 193.4496864266433 3.5 L 200.4496864266433 0 L 193.4496864266433 -3.5 L 193.4496864266433 -0.5 L 134.24046821332166 -0.5 Z"/><text text-anchor="middle" pointer-events="none" font-size="8px" fill="#000000" x="109.22484321332165" y="3" transform="rotate(180 109.22484321332165 0)" font-family="sans-serif">evaluatedBy</text></g><g class="relationship" transform="translate(64.7050636621153 91.98358005698253) rotate(202.99968393752698)"><path class="outline" fill="#A5ABB6" stroke="none" d="M 25 0.5 L 59.50440893274134 0.5 L 59.50440893274134 -0.5 L 25 -0.5 Z M 109.53565893274134 0.5 L 144.04006786548268 0.5 L 144.04006786548268 3.5 L 151.04006786548268 0 L 144.04006786548268 -3.5 L 144.04006786548268 -0.5 L 109.53565893274134 -0.5 Z"/><text text-anchor="middle" pointer-events="none" font-size="8px" fill="#000000" x="84.52003393274134" y="3" transform="rotate(180 84.52003393274134 0)" font-family="sans-serif">evaluatedBy</text></g><g class="relationship" transform="translate(64.7050636621153 91.98358005698253) rotate(514.1165715483778)"><path class="outline" fill="#A5ABB6" stroke="none" d="M 25 0.5 L 94.07015757494892 0.5 L 94.07015757494892 -0.5 L 25 -0.5 Z M 144.10140757494892 0.5 L 213.17156514989784 0.5 L 213.17156514989784 3.5 L 220.17156514989784 0 L 213.17156514989784 -3.5 L 213.17156514989784 -0.5 L 144.10140757494892 -0.5 Z"/><text text-anchor="middle" pointer-events="none" font-size="8px" fill="#000000" x="119.08578257494892" y="3" transform="rotate(180 119.08578257494892 0)" font-family="sans-serif">evaluatedBy</text></g><g class="relationship" transform="translate(64.7050636621153 91.98358005698253) rotate(271.2725101442845)"><path class="outline" fill="#A5ABB6" stroke="none" d="M 25 0.5 L 94.44608031664195 0.5 L 94.44608031664195 -0.5 L 25 -0.5 Z M 144.47733031664194 0.5 L 213.9234106332839 0.5 L 213.9234106332839 3.5 L 220.9234106332839 0 L 213.9234106332839 -3.5 L 213.9234106332839 -0.5 L 144.47733031664194 -0.5 Z"/><text text-anchor="middle" pointer-events="none" font-size="8px" fill="#000000" x="119.46170531664195" y="3" font-family="sans-serif">evaluatedBy</text></g><g class="relationship" transform="translate(64.7050636621153 91.98358005698253) rotate(498.37085956442706)"><path class="outline" fill="#A5ABB6" stroke="none" d="M 25 0.5 L 92.66488312244023 0.5 L 92.66488312244023 -0.5 L 25 -0.5 Z M 142.69613312244024 0.5 L 210.36101624488046 0.5 L 210.36101624488046 3.5 L 217.36101624488046 0 L 210.36101624488046 -3.5 L 210.36101624488046 -0.5 L 142.69613312244024 -0.5 Z"/><text text-anchor="middle" pointer-events="none" font-size="8px" fill="#000000" x="117.68050812244023" y="3" transform="rotate(180 117.68050812244023 0)" font-family="sans-serif">evaluatedBy</text></g><g class="relationship" transform="translate(64.7050636621153 91.98358005698253) rotate(509.4132729067047)"><path class="outline" fill="#A5ABB6" stroke="none" d="M 25 0.5 L 65.40737369845453 0.5 L 65.40737369845453 -0.5 L 25 -0.5 Z M 115.43862369845453 0.5 L 155.84599739690907 0.5 L 155.84599739690907 3.5 L 162.84599739690907 0 L 155.84599739690907 -3.5 L 155.84599739690907 -0.5 L 115.43862369845453 -0.5 Z"/><text text-anchor="middle" pointer-events="none" font-size="8px" fill="#000000" x="90.42299869845453" y="3" transform="rotate(180 90.42299869845453 0)" font-family="sans-serif">evaluatedBy</text></g><g class="relationship" transform="translate(64.7050636621153 91.98358005698253) rotate(491.0871646068606)"><path class="outline" fill="#A5ABB6" stroke="none" d="M 25 0.5 L 65.93714457441659 0.5 L 65.93714457441659 -0.5 L 25 -0.5 Z M 115.96839457441659 0.5 L 156.90553914883318 0.5 L 156.90553914883318 3.5 L 163.90553914883318 0 L 156.90553914883318 -3.5 L 156.90553914883318 -0.5 L 115.96839457441659 -0.5 Z"/><text text-anchor="middle" pointer-events="none" font-size="8px" fill="#000000" x="90.95276957441659" y="3" transform="rotate(180 90.95276957441659 0)" font-family="sans-serif">evaluatedBy</text></g><g class="relationship" transform="translate(64.7050636621153 91.98358005698253) rotate(218.5447122101071)"><path class="outline" fill="#A5ABB6" stroke="none" d="M 25 0.5 L 33.93121360205378 0.5 L 33.93121360205378 -0.5 L 25 -0.5 Z M 83.96246360205379 0.5 L 92.89367720410756 0.5 L 92.89367720410756 3.5 L 99.89367720410756 0 L 92.89367720410756 -3.5 L 92.89367720410756 -0.5 L 83.96246360205379 -0.5 Z"/><text text-anchor="middle" pointer-events="none" font-size="8px" fill="#000000" x="58.94683860205378" y="3" transform="rotate(180 58.94683860205378 0)" font-family="sans-serif">evaluatedBy</text></g><g class="relationship" transform="translate(64.7050636621153 91.98358005698253) rotate(472.60979194683057)"><path class="outline" fill="#A5ABB6" stroke="none" d="M 25 0.5 L 62.946974038282704 0.5 L 62.946974038282704 -0.5 L 25 -0.5 Z M 112.9782240382827 0.5 L 150.9251980765654 0.5 L 150.9251980765654 3.5 L 157.9251980765654 0 L 150.9251980765654 -3.5 L 150.9251980765654 -0.5 L 112.9782240382827 -0.5 Z"/><text text-anchor="middle" pointer-events="none" font-size="8px" fill="#000000" x="87.9625990382827" y="3" transform="rotate(180 87.9625990382827 0)" font-family="sans-serif">evaluatedBy</text></g><g class="relationship" transform="translate(64.7050636621153 91.98358005698253) rotate(298.8281927127544)"><path class="outline" fill="#A5ABB6" stroke="none" d="M 25 0.5 L 66.29829810755484 0.5 L 66.29829810755484 -0.5 L 25 -0.5 Z M 116.32954810755484 0.5 L 157.62784621510968 0.5 L 157.62784621510968 3.5 L 164.62784621510968 0 L 157.62784621510968 -3.5 L 157.62784621510968 -0.5 L 116.32954810755484 -0.5 Z"/><text text-anchor="middle" pointer-events="none" font-size="8px" fill="#000000" x="91.31392310755484" y="3" font-family="sans-serif">evaluatedBy</text></g><g class="relationship" transform="translate(64.7050636621153 91.98358005698253) rotate(436.01607891255526)"><path class="outline" fill="#A5ABB6" stroke="none" d="M 25 0.5 L 92.73207795367865 0.5 L 92.73207795367865 -0.5 L 25 -0.5 Z M 142.76332795367864 0.5 L 210.4954059073573 0.5 L 210.4954059073573 3.5 L 217.4954059073573 0 L 210.4954059073573 -3.5 L 210.4954059073573 -0.5 L 142.76332795367864 -0.5 Z"/><text text-anchor="middle" pointer-events="none" font-size="8px" fill="#000000" x="117.74770295367865" y="3" font-family="sans-serif">evaluatedBy</text></g></g><g class="layer nodes"><g class="node" transform="translate(64.7050636621153,91.98358005698253)"><circle class="outline" cx="0" cy="0" r="25" fill="#F16667" stroke="#eb2728" stroke-width="2px"/><text text-anchor="middle" pointer-events="none" font-family="sans-serif" dy="1.5625" font-size="25" fill="#FFFFFF"/><text text-anchor="middle" pointer-events="none" x="0" y="5" font-size="10px" fill="#FFFFFF" font-family="sans-serif"> mnist</text></g><g class="node" transform="translate(-31.249925507141526,181.40824346907507)"><circle class="outline" cx="0" cy="0" r="25" fill="#A5ABB6" stroke="#9AA1AC" stroke-width="2px"/><text text-anchor="middle" pointer-events="none" font-family="sans-serif" dy="1.5625" font-size="25" fill="#FFFFFF"/><text text-anchor="middle" pointer-events="none" x="0" y="5" font-size="10px" fill="#FFFFFF" font-family="sans-serif"> unsuper…</text></g><g class="node" transform="translate(22.57725102237139,207.9154233329929)"><circle class="outline" cx="0" cy="0" r="25" fill="#A5ABB6" stroke="#9AA1AC" stroke-width="2px"/><text text-anchor="middle" pointer-events="none" font-family="sans-serif" dy="1.5625" font-size="25" fill="#FFFFFF"/><text text-anchor="middle" pointer-events="none" x="0" y="5" font-size="10px" fill="#FFFFFF" font-family="sans-serif"> stochast…</text></g><g class="node" transform="translate(-62.344234232735445,294.28677225189585)"><circle class="outline" cx="0" cy="0" r="25" fill="#A5ABB6" stroke="#9AA1AC" stroke-width="2px"/><text text-anchor="middle" pointer-events="none" font-family="sans-serif" dy="1.5625" font-size="25" fill="#FFFFFF"/><text text-anchor="middle" pointer-events="none" x="0" y="5" font-size="10px" fill="#FFFFFF" font-family="sans-serif"> personal…</text></g><g class="node" transform="translate(-181.38230226226955,81.11652319498423)"><circle class="outline" cx="0" cy="0" r="25" fill="#A5ABB6" stroke="#9AA1AC" stroke-width="2px"/><text text-anchor="middle" pointer-events="none" font-family="sans-serif" dy="1.5625" font-size="25" fill="#FFFFFF"/><text text-anchor="middle" pointer-events="none" x="0" y="5" font-size="10px" fill="#FFFFFF" font-family="sans-serif"> animal-1…</text></g><g class="node" transform="translate(231.12222276395602,274.7098425854296)"><circle class="outline" cx="0" cy="0" r="25" fill="#A5ABB6" stroke="#9AA1AC" stroke-width="2px"/><text text-anchor="middle" pointer-events="none" font-family="sans-serif" dy="1.5625" font-size="25" fill="#FFFFFF"/><text text-anchor="middle" pointer-events="none" x="0" y="5" font-size="10px" fill="#FFFFFF" font-family="sans-serif"> optical-c…</text></g><g class="node" transform="translate(76.8026525161774,233.51641583446843)"><circle class="outline" cx="0" cy="0" r="25" fill="#A5ABB6" stroke="#9AA1AC" stroke-width="2px"/><text text-anchor="middle" pointer-events="none" font-family="sans-serif" dy="1.5625" font-size="25" fill="#FFFFFF"/><text text-anchor="middle" pointer-events="none" x="0" y="5" font-size="10px" fill="#FFFFFF" font-family="sans-serif"> density-…</text></g><g class="node" transform="translate(210.90428840006064,-98.62037481529961)"><circle class="outline" cx="0" cy="0" r="25" fill="#A5ABB6" stroke="#9AA1AC" stroke-width="2px"/><text text-anchor="middle" pointer-events="none" font-family="sans-serif" dy="1.5625" font-size="25" fill="#FFFFFF"/><text text-anchor="middle" pointer-events="none" x="0" y="5" font-size="10px" fill="#FFFFFF" font-family="sans-serif"> nmt-on-…</text></g><g class="node" transform="translate(293.52080836627545,173.8556089137665)"><circle class="outline" cx="0" cy="0" r="25" fill="#A5ABB6" stroke="#9AA1AC" stroke-width="2px"/><text text-anchor="middle" pointer-events="none" font-family="sans-serif" dy="1.5625" font-size="25" fill="#FFFFFF"/><text text-anchor="middle" pointer-events="none" x="0" y="5" font-size="10px" fill="#FFFFFF" font-family="sans-serif"> anomaly…</text></g><g class="node" transform="translate(180.74715275630945,242.15451991754682)"><circle class="outline" cx="0" cy="0" r="25" fill="#A5ABB6" stroke="#9AA1AC" stroke-width="2px"/><text text-anchor="middle" pointer-events="none" font-family="sans-serif" dy="1.5625" font-size="25" fill="#FFFFFF"/><text text-anchor="middle" pointer-events="none" x="0" y="5" font-size="10px" fill="#FFFFFF" font-family="sans-serif"> structure…</text></g><g class="node" transform="translate(200.63126245702426,98.88248333970526)"><circle class="outline" cx="0" cy="0" r="25" fill="#A5ABB6" stroke="#9AA1AC" stroke-width="2px"/><text text-anchor="middle" pointer-events="none" font-family="sans-serif" dy="1.5625" font-size="25" fill="#FFFFFF"/><text text-anchor="middle" pointer-events="none" x="0" y="5" font-size="10px" fill="#FFFFFF" font-family="sans-serif"> graph-cl…</text></g><g class="node" transform="translate(256.92977678727146,78.11496749350437)"><circle class="outline" cx="0" cy="0" r="25" fill="#A5ABB6" stroke="#9AA1AC" stroke-width="2px"/><text text-anchor="middle" pointer-events="none" font-family="sans-serif" dy="1.5625" font-size="25" fill="#FFFFFF"/><text text-anchor="middle" pointer-events="none" x="0" y="5" font-size="10px" fill="#FFFFFF" font-family="sans-serif"> abbrevia…</text></g><g class="node" transform="translate(126.31945711850759,267.40019432823124)"><circle class="outline" cx="0" cy="0" r="25" fill="#A5ABB6" stroke="#9AA1AC" stroke-width="2px"/><text text-anchor="middle" pointer-events="none" font-family="sans-serif" dy="1.5625" font-size="25" fill="#FFFFFF"/><text text-anchor="middle" pointer-events="none" x="0" y="5" font-size="10px" fill="#FFFFFF" font-family="sans-serif"> model-p…</text></g><g class="node" transform="translate(305.4991343309836,115.09049975769791)"><circle class="outline" cx="0" cy="0" r="25" fill="#A5ABB6" stroke="#9AA1AC" stroke-width="2px"/><text text-anchor="middle" pointer-events="none" font-family="sans-serif" dy="1.5625" font-size="25" fill="#FFFFFF"/><text text-anchor="middle" pointer-events="none" x="0" y="5" font-size="10px" fill="#FFFFFF" font-family="sans-serif"> text2text…</text></g><g class="node" transform="translate(173.99362835830325,157.45503401722308)"><circle class="outline" cx="0" cy="0" r="25" fill="#A5ABB6" stroke="#9AA1AC" stroke-width="2px"/><text text-anchor="middle" pointer-events="none" font-family="sans-serif" dy="1.5625" font-size="25" fill="#FFFFFF"/><text text-anchor="middle" pointer-events="none" x="0" y="5" font-size="10px" fill="#FFFFFF" font-family="sans-serif"> pos-on-…</text></g><g class="node" transform="translate(48.64768201172101,286.48494158519617)"><circle class="outline" cx="0" cy="0" r="25" fill="#A5ABB6" stroke="#9AA1AC" stroke-width="2px"/><text text-anchor="middle" pointer-events="none" font-family="sans-serif" dy="1.5625" font-size="25" fill="#FFFFFF"/><text text-anchor="middle" pointer-events="none" x="0" y="5" font-size="10px" fill="#FFFFFF" font-family="sans-serif"> intent-cl…</text></g><g class="node" transform="translate(234.19901201382768,19.84740819984399)"><circle class="outline" cx="0" cy="0" r="25" fill="#A5ABB6" stroke="#9AA1AC" stroke-width="2px"/><text text-anchor="middle" pointer-events="none" font-family="sans-serif" dy="1.5625" font-size="25" fill="#FFFFFF"/><text text-anchor="middle" pointer-events="none" x="0" y="5" font-size="10px" fill="#FFFFFF" font-family="sans-serif"> sequenc…</text></g><g class="node" transform="translate(201.2580956412565,-30.67904493940425)"><circle class="outline" cx="0" cy="0" r="25" fill="#A5ABB6" stroke="#9AA1AC" stroke-width="2px"/><text text-anchor="middle" pointer-events="none" font-family="sans-serif" dy="1.5625" font-size="25" fill="#FFFFFF"/><text text-anchor="middle" pointer-events="none" x="0" y="5" font-size="10px" fill="#FFFFFF" font-family="sans-serif"> automati…</text></g><g class="node" transform="translate(254.79984435448662,-57.72653253742865)"><circle class="outline" cx="0" cy="0" r="25" fill="#A5ABB6" stroke="#9AA1AC" stroke-width="2px"/><text text-anchor="middle" pointer-events="none" font-family="sans-serif" dy="1.5625" font-size="25" fill="#FFFFFF"/><text text-anchor="middle" pointer-events="none" x="0" y="5" font-size="10px" fill="#FFFFFF" font-family="sans-serif"> iloko-sp…</text></g><g class="node" transform="translate(219.60126986907136,196.43313069791546)"><circle class="outline" cx="0" cy="0" r="25" fill="#A5ABB6" stroke="#9AA1AC" stroke-width="2px"/><text text-anchor="middle" pointer-events="none" font-family="sans-serif" dy="1.5625" font-size="25" fill="#FFFFFF"/><text text-anchor="middle" pointer-events="none" x="0" y="5" font-size="10px" fill="#FFFFFF" font-family="sans-serif"> analogic…</text></g><g class="node" transform="translate(287.5870003036317,-7.4814886424181415)"><circle class="outline" cx="0" cy="0" r="25" fill="#A5ABB6" stroke="#9AA1AC" stroke-width="2px"/><text text-anchor="middle" pointer-events="none" font-family="sans-serif" dy="1.5625" font-size="25" fill="#FFFFFF"/><text text-anchor="middle" pointer-events="none" x="0" y="5" font-size="10px" fill="#FFFFFF" font-family="sans-serif"> token-cl…</text></g><g class="node" transform="translate(243.37390990955066,140.9601934870808)"><circle class="outline" cx="0" cy="0" r="25" fill="#A5ABB6" stroke="#9AA1AC" stroke-width="2px"/><text text-anchor="middle" pointer-events="none" font-family="sans-serif" dy="1.5625" font-size="25" fill="#FFFFFF"/><text text-anchor="middle" pointer-events="none" x="0" y="5" font-size="10px" fill="#FFFFFF" font-family="sans-serif"> hard-lab…</text></g><g class="node" transform="translate(156.39300012939728,-134.9439773643599)"><circle class="outline" cx="0" cy="0" r="25" fill="#A5ABB6" stroke="#9AA1AC" stroke-width="2px"/><text text-anchor="middle" pointer-events="none" font-family="sans-serif" dy="1.5625" font-size="25" fill="#FFFFFF"/><text text-anchor="middle" pointer-events="none" x="0" y="5" font-size="10px" fill="#FFFFFF" font-family="sans-serif"> one-shot…</text></g><g class="node" transform="translate(269.95850153813035,229.0054935095114)"><circle class="outline" cx="0" cy="0" r="25" fill="#A5ABB6" stroke="#9AA1AC" stroke-width="2px"/><text text-anchor="middle" pointer-events="none" font-family="sans-serif" dy="1.5625" font-size="25" fill="#FFFFFF"/><text text-anchor="middle" pointer-events="none" x="0" y="5" font-size="10px" fill="#FFFFFF" font-family="sans-serif"> sparse-l…</text></g><g class="node" transform="translate(178.83777854564656,43.01132121300588)"><circle class="outline" cx="0" cy="0" r="25" fill="#A5ABB6" stroke="#9AA1AC" stroke-width="2px"/><text text-anchor="middle" pointer-events="none" font-family="sans-serif" dy="1.5625" font-size="25" fill="#FFFFFF"/><text text-anchor="middle" pointer-events="none" x="0" y="5" font-size="10px" fill="#FFFFFF" font-family="sans-serif"> ner-on-…</text></g><g class="node" transform="translate(104.5548266530809,-104.76691834496518)"><circle class="outline" cx="0" cy="0" r="25" fill="#A5ABB6" stroke="#9AA1AC" stroke-width="2px"/><text text-anchor="middle" pointer-events="none" font-family="sans-serif" dy="1.5625" font-size="25" fill="#FFFFFF"/><text text-anchor="middle" pointer-events="none" x="0" y="5" font-size="10px" fill="#FFFFFF" font-family="sans-serif"> spacein…</text></g><g class="node" transform="translate(65.6650405352151,343.9412739350198)"><circle class="outline" cx="0" cy="0" r="25" fill="#A5ABB6" stroke="#9AA1AC" stroke-width="2px"/><text text-anchor="middle" pointer-events="none" font-family="sans-serif" dy="1.5625" font-size="25" fill="#FFFFFF"/><text text-anchor="middle" pointer-events="none" x="0" y="5" font-size="10px" fill="#FFFFFF" font-family="sans-serif"> sts-on-m…</text></g><g class="node" transform="translate(8.114178862605618,-142.64627488820324)"><circle class="outline" cx="0" cy="0" r="25" fill="#A5ABB6" stroke="#9AA1AC" stroke-width="2px"/><text text-anchor="middle" pointer-events="none" font-family="sans-serif" dy="1.5625" font-size="25" fill="#FFFFFF"/><text text-anchor="middle" pointer-events="none" x="0" y="5" font-size="10px" fill="#FFFFFF" font-family="sans-serif"> unsuper…</text></g><g class="node" transform="translate(140.90678587200233,-16.105646986555058)"><circle class="outline" cx="0" cy="0" r="25" fill="#A5ABB6" stroke="#9AA1AC" stroke-width="2px"/><text text-anchor="middle" pointer-events="none" font-family="sans-serif" dy="1.5625" font-size="25" fill="#FFFFFF"/><text text-anchor="middle" pointer-events="none" x="0" y="5" font-size="10px" fill="#FFFFFF" font-family="sans-serif"> unsuper…</text></g><g class="node" transform="translate(-45.708022993363784,-116.14193387172153)"><circle class="outline" cx="0" cy="0" r="25" fill="#A5ABB6" stroke="#9AA1AC" stroke-width="2px"/><text text-anchor="middle" pointer-events="none" font-family="sans-serif" dy="1.5625" font-size="25" fill="#FFFFFF"/><text text-anchor="middle" pointer-events="none" x="0" y="5" font-size="10px" fill="#FFFFFF" font-family="sans-serif"> unsuper…</text></g><g class="node" transform="translate(-3.490542207403372,321.938231496194)"><circle class="outline" cx="0" cy="0" r="25" fill="#A5ABB6" stroke="#9AA1AC" stroke-width="2px"/><text text-anchor="middle" pointer-events="none" font-family="sans-serif" dy="1.5625" font-size="25" fill="#FFFFFF"/><text text-anchor="middle" pointer-events="none" x="0" y="5" font-size="10px" fill="#FFFFFF" font-family="sans-serif"> summari…</text></g><g class="node" transform="translate(126.94304865674971,200.36941577889846)"><circle class="outline" cx="0" cy="0" r="25" fill="#A5ABB6" stroke="#9AA1AC" stroke-width="2px"/><text text-anchor="middle" pointer-events="none" font-family="sans-serif" dy="1.5625" font-size="25" fill="#FFFFFF"/><text text-anchor="middle" pointer-events="none" x="0" y="5" font-size="10px" fill="#FFFFFF" font-family="sans-serif"> unsuper…</text></g><g class="node" transform="translate(-97.84272395081568,-86.45802540006459)"><circle class="outline" cx="0" cy="0" r="25" fill="#A5ABB6" stroke="#9AA1AC" stroke-width="2px"/><text text-anchor="middle" pointer-events="none" font-family="sans-serif" dy="1.5625" font-size="25" fill="#FFFFFF"/><text text-anchor="middle" pointer-events="none" x="0" y="5" font-size="10px" fill="#FFFFFF" font-family="sans-serif"> image-cl…</text></g><g class="node" transform="translate(43.41475569895381,-94.15299808262797)"><circle class="outline" cx="0" cy="0" r="25" fill="#A5ABB6" stroke="#9AA1AC" stroke-width="2px"/><text text-anchor="middle" pointer-events="none" font-family="sans-serif" dy="1.5625" font-size="25" fill="#FFFFFF"/><text text-anchor="middle" pointer-events="none" x="0" y="5" font-size="10px" fill="#FFFFFF" font-family="sans-serif"> question…</text></g><g class="node" transform="translate(-157.37928046589076,20.127015164016992)"><circle class="outline" cx="0" cy="0" r="25" fill="#A5ABB6" stroke="#9AA1AC" stroke-width="2px"/><text text-anchor="middle" pointer-events="none" font-family="sans-serif" dy="1.5625" font-size="25" fill="#FFFFFF"/><text text-anchor="middle" pointer-events="none" x="0" y="5" font-size="10px" fill="#FFFFFF" font-family="sans-serif"> core-set…</text></g><g class="node" transform="translate(177.72453456430753,302.0767453792961)"><circle class="outline" cx="0" cy="0" r="25" fill="#A5ABB6" stroke="#9AA1AC" stroke-width="2px"/><text text-anchor="middle" pointer-events="none" font-family="sans-serif" dy="1.5625" font-size="25" fill="#FFFFFF"/><text text-anchor="middle" pointer-events="none" x="0" y="5" font-size="10px" fill="#FFFFFF" font-family="sans-serif"> fine-grai…</text></g><g class="node" transform="translate(309.3360940590171,48.985547995717795)"><circle class="outline" cx="0" cy="0" r="25" fill="#A5ABB6" stroke="#9AA1AC" stroke-width="2px"/><text text-anchor="middle" pointer-events="none" font-family="sans-serif" dy="1.5625" font-size="25" fill="#FFFFFF"/><text text-anchor="middle" pointer-events="none" x="0" y="5" font-size="10px" fill="#FFFFFF" font-family="sans-serif"> classific…</text></g><g class="node" transform="translate(-14.528856753836296,-64.90767055569462)"><circle class="outline" cx="0" cy="0" r="25" fill="#A5ABB6" stroke="#9AA1AC" stroke-width="2px"/><text text-anchor="middle" pointer-events="none" font-family="sans-serif" dy="1.5625" font-size="25" fill="#FFFFFF"/><text text-anchor="middle" pointer-events="none" x="0" y="5" font-size="10px" fill="#FFFFFF" font-family="sans-serif"> sents-on…</text></g><g class="node" transform="translate(87.18724312241469,-47.34155223442322)"><circle class="outline" cx="0" cy="0" r="25" fill="#A5ABB6" stroke="#9AA1AC" stroke-width="2px"/><text text-anchor="middle" pointer-events="none" font-family="sans-serif" dy="1.5625" font-size="25" fill="#FFFFFF"/><text text-anchor="middle" pointer-events="none" x="0" y="5" font-size="10px" fill="#FFFFFF" font-family="sans-serif"> nature-i…</text></g><g class="node" transform="translate(-130.60156152468295,-36.194993297947335)"><circle class="outline" cx="0" cy="0" r="25" fill="#A5ABB6" stroke="#9AA1AC" stroke-width="2px"/><text text-anchor="middle" pointer-events="none" font-family="sans-serif" dy="1.5625" font-size="25" fill="#FFFFFF"/><text text-anchor="middle" pointer-events="none" x="0" y="5" font-size="10px" fill="#FFFFFF" font-family="sans-serif"> general-…</text></g><g class="node" transform="translate(-68.58939656589241,-34.118570421335704)"><circle class="outline" cx="0" cy="0" r="25" fill="#A5ABB6" stroke="#9AA1AC" stroke-width="2px"/><text text-anchor="middle" pointer-events="none" font-family="sans-serif" dy="1.5625" font-size="25" fill="#FFFFFF"/><text text-anchor="middle" pointer-events="none" x="0" y="5" font-size="10px" fill="#FFFFFF" font-family="sans-serif"> speech-r…</text></g><g class="node" transform="translate(-62.768442585078915,72.66109479691642)"><circle class="outline" cx="0" cy="0" r="25" fill="#A5ABB6" stroke="#9AA1AC" stroke-width="2px"/><text text-anchor="middle" pointer-events="none" font-family="sans-serif" dy="1.5625" font-size="25" fill="#FFFFFF"/><text text-anchor="middle" pointer-events="none" x="0" y="5" font-size="10px" fill="#FFFFFF" font-family="sans-serif"> cefr-prof…</text></g><g class="node" transform="translate(-81.66153781532748,129.57375806001886)"><circle class="outline" cx="0" cy="0" r="25" fill="#A5ABB6" stroke="#9AA1AC" stroke-width="2px"/><text text-anchor="middle" pointer-events="none" font-family="sans-serif" dy="1.5625" font-size="25" fill="#FFFFFF"/><text text-anchor="middle" pointer-events="none" x="0" y="5" font-size="10px" fill="#FFFFFF" font-family="sans-serif"> deep-clu…</text></g><g class="node" transform="translate(-121.56157261474358,84.74623513357832)"><circle class="outline" cx="0" cy="0" r="25" fill="#A5ABB6" stroke="#9AA1AC" stroke-width="2px"/><text text-anchor="middle" pointer-events="none" font-family="sans-serif" dy="1.5625" font-size="25" fill="#FFFFFF"/><text text-anchor="middle" pointer-events="none" x="0" y="5" font-size="10px" fill="#FFFFFF" font-family="sans-serif"> tag-on-…</text></g><g class="node" transform="translate(29.039744512079054,-23.63908070895679)"><circle class="outline" cx="0" cy="0" r="25" fill="#A5ABB6" stroke="#9AA1AC" stroke-width="2px"/><text text-anchor="middle" pointer-events="none" font-family="sans-serif" dy="1.5625" font-size="25" fill="#FFFFFF"/><text text-anchor="middle" pointer-events="none" x="0" y="5" font-size="10px" fill="#FFFFFF" font-family="sans-serif"> network-…</text></g><g class="node" transform="translate(-155.78428389407537,139.0155768689099)"><circle class="outline" cx="0" cy="0" r="25" fill="#A5ABB6" stroke="#9AA1AC" stroke-width="2px"/><text text-anchor="middle" pointer-events="none" font-family="sans-serif" dy="1.5625" font-size="25" fill="#FFFFFF"/><text text-anchor="middle" pointer-events="none" x="0" y="5" font-size="10px" fill="#FFFFFF" font-family="sans-serif"> multi-lab…</text></g><g class="node" transform="translate(-97.34105264483499,23.20013957950944)"><circle class="outline" cx="0" cy="0" r="25" fill="#A5ABB6" stroke="#9AA1AC" stroke-width="2px"/><text text-anchor="middle" pointer-events="none" font-family="sans-serif" dy="1.5625" font-size="25" fill="#FFFFFF"/><text text-anchor="middle" pointer-events="none" x="0" y="5" font-size="10px" fill="#FFFFFF" font-family="sans-serif"> maliciou…</text></g><g class="node" transform="translate(-155.871889555827,199.0111655998709)"><circle class="outline" cx="0" cy="0" r="25" fill="#A5ABB6" stroke="#9AA1AC" stroke-width="2px"/><text text-anchor="middle" pointer-events="none" font-family="sans-serif" dy="1.5625" font-size="25" fill="#FFFFFF"/><text text-anchor="middle" pointer-events="none" x="0" y="5" font-size="10px" fill="#FFFFFF" font-family="sans-serif"> clusterin…</text></g><g class="node" transform="translate(70.1664486220867,-153.87918079106817)"><circle class="outline" cx="0" cy="0" r="25" fill="#A5ABB6" stroke="#9AA1AC" stroke-width="2px"/><text text-anchor="middle" pointer-events="none" font-family="sans-serif" dy="1.5625" font-size="25" fill="#FFFFFF"/><text text-anchor="middle" pointer-events="none" x="0" y="5" font-size="10px" fill="#FFFFFF" font-family="sans-serif"> fill-mask…</text></g><g class="node" transform="translate(-116.45017987566868,252.9855674174415)"><circle class="outline" cx="0" cy="0" r="25" fill="#A5ABB6" stroke="#9AA1AC" stroke-width="2px"/><text text-anchor="middle" pointer-events="none" font-family="sans-serif" dy="1.5625" font-size="25" fill="#FFFFFF"/><text text-anchor="middle" pointer-events="none" x="0" y="5" font-size="10px" fill="#FFFFFF" font-family="sans-serif"> neural-a…</text></g><g class="node" transform="translate(-97.00402782521564,187.5675142111154)"><circle class="outline" cx="0" cy="0" r="25" fill="#A5ABB6" stroke="#9AA1AC" stroke-width="2px"/><text text-anchor="middle" pointer-events="none" font-family="sans-serif" dy="1.5625" font-size="25" fill="#FFFFFF"/><text text-anchor="middle" pointer-events="none" x="0" y="5" font-size="10px" fill="#FFFFFF" font-family="sans-serif"> handwrit…</text></g><g class="node" transform="translate(-59.44486870830805,234.36369458682358)"><circle class="outline" cx="0" cy="0" r="25" fill="#A5ABB6" stroke="#9AA1AC" stroke-width="2px"/><text text-anchor="middle" pointer-events="none" font-family="sans-serif" dy="1.5625" font-size="25" fill="#FFFFFF"/><text text-anchor="middle" pointer-events="none" x="0" y="5" font-size="10px" fill="#FFFFFF" font-family="sans-serif"> image-g…</text></g><g class="node" transform="translate(-32.977044372970624,14.159185582077555)"><circle class="outline" cx="0" cy="0" r="25" fill="#A5ABB6" stroke="#9AA1AC" stroke-width="2px"/><text text-anchor="middle" pointer-events="none" font-family="sans-serif" dy="1.5625" font-size="25" fill="#FFFFFF"/><text text-anchor="middle" pointer-events="none" x="0" y="5" font-size="10px" fill="#FFFFFF" font-family="sans-serif"> unsuper…</text></g><g class="node" transform="translate(-5.621094938350897,260.84997549388635)"><circle class="outline" cx="0" cy="0" r="25" fill="#A5ABB6" stroke="#9AA1AC" stroke-width="2px"/><text text-anchor="middle" pointer-events="none" font-family="sans-serif" dy="1.5625" font-size="25" fill="#FFFFFF"/><text text-anchor="middle" pointer-events="none" x="0" y="5" font-size="10px" fill="#FFFFFF" font-family="sans-serif"> text-clas…</text></g><g class="node" transform="translate(156.1407301722643,-74.14359697924505)"><circle class="outline" cx="0" cy="0" r="25" fill="#A5ABB6" stroke="#9AA1AC" stroke-width="2px"/><text text-anchor="middle" pointer-events="none" font-family="sans-serif" dy="1.5625" font-size="25" fill="#FFFFFF"/><text text-anchor="middle" pointer-events="none" x="0" y="5" font-size="10px" fill="#FFFFFF" font-family="sans-serif"> unsuper…</text></g><g class="node" transform="translate(123.3039795668921,327.29228992756697)"><circle class="outline" cx="0" cy="0" r="25" fill="#A5ABB6" stroke="#9AA1AC" stroke-width="2px"/><text text-anchor="middle" pointer-events="none" font-family="sans-serif" dy="1.5625" font-size="25" fill="#FFFFFF"/><text text-anchor="middle" pointer-events="none" x="0" y="5" font-size="10px" fill="#FFFFFF" font-family="sans-serif"> unsuper…</text></g></g></svg>