<svg xmlns="http://www.w3.org/2000/svg" width="953.3511352539062" height="644.9403686523438" viewBox="-497.04339599609375 -235.05702209472656 953.3511352539062 644.9403686523438"><title>Neo4j Graph Visualization</title><desc>Created using Neo4j (http://www.neo4j.com/)</desc><g class="layer relationships"><g class="relationship" transform="translate(-335.5223468085245 231.83655346927864) rotate(420.55603826217214)"><path class="outline" fill="#A5ABB6" stroke="none" d="M 25 0.5 L 60.919366693225385 0.5 L 60.919366693225385 -0.5 L 25 -0.5 Z M 93.15764794322538 0.5 L 129.07701463645077 0.5 L 129.07701463645077 3.5 L 136.07701463645077 0 L 129.07701463645077 -3.5 L 129.07701463645077 -0.5 L 93.15764794322538 -0.5 Z"/><text text-anchor="middle" pointer-events="none" font-size="8px" fill="#000000" x="77.03850731822538" y="3" font-family="sans-serif">domain</text></g><g class="relationship" transform="translate(-165.0977190099392 277.1351545116946) rotate(211.84518941647178)"><path class="outline" fill="#A5ABB6" stroke="none" d="M 25 0.5 L 107.83287421050784 0.5 L 107.83287421050784 -0.5 L 25 -0.5 Z M 165.41099921050784 0.5 L 248.24387342101568 0.5 L 248.24387342101568 3.5 L 255.24387342101568 0 L 248.24387342101568 -3.5 L 248.24387342101568 -0.5 L 165.41099921050784 -0.5 Z"/><text text-anchor="middle" pointer-events="none" font-size="8px" fill="#000000" x="136.62193671050784" y="3" transform="rotate(180 136.62193671050784 0)" font-family="sans-serif">subPropertyOf</text></g><g class="relationship" transform="translate(-242.08087433094792 150.22773881690358) rotate(367.98293597273573)"><path class="outline" fill="#A5ABB6" stroke="none" d="M 25 0.5 L 118.55740190602614 0.5 L 118.55740190602614 -0.5 L 25 -0.5 Z M 150.79568315602614 0.5 L 244.3530850620523 0.5 L 244.3530850620523 3.5 L 251.3530850620523 0 L 244.3530850620523 -3.5 L 244.3530850620523 -0.5 L 150.79568315602614 -0.5 Z"/><text text-anchor="middle" pointer-events="none" font-size="8px" fill="#000000" x="134.67654253102614" y="3" font-family="sans-serif">domain</text></g><g class="relationship" transform="translate(200.81488679704816 302.53895577590185) rotate(526.9832476040082)"><path class="outline" fill="#A5ABB6" stroke="none" d="M 25 0.5 L 96.54300767158368 0.5 L 96.54300767158368 -0.5 L 25 -0.5 Z M 128.78128892158367 0.5 L 200.32429659316736 0.5 L 200.32429659316736 3.5 L 207.32429659316736 0 L 200.32429659316736 -3.5 L 200.32429659316736 -0.5 L 128.78128892158367 -0.5 Z"/><text text-anchor="middle" pointer-events="none" font-size="8px" fill="#000000" x="112.66214829658368" y="3" transform="rotate(180 112.66214829658368 0)" font-family="sans-serif">domain</text></g><g class="relationship" transform="translate(258.19664432708583 -9.466400557371195) rotate(517.9357400179142)"><path class="outline" fill="#A5ABB6" stroke="none" d="M 25 0.5 L 50.00024707285337 0.5 L 50.00024707285337 -0.5 L 25 -0.5 Z M 76.46118457285337 0.5 L 101.46143164570674 0.5 L 101.46143164570674 3.5 L 108.46143164570674 0 L 101.46143164570674 -3.5 L 101.46143164570674 -0.5 L 76.46118457285337 -0.5 Z"/><text text-anchor="middle" pointer-events="none" font-size="8px" fill="#000000" x="63.23071582285337" y="3" transform="rotate(180 63.23071582285337 0)" font-family="sans-serif">range</text></g><g class="relationship" transform="translate(-242.08087433094792 150.22773881690358) rotate(187.41266458806712)"><path class="outline" fill="#A5ABB6" stroke="none" d="M 25 0.5 L 48.92845823322101 0.5 L 48.92845823322101 -0.5 L 25 -0.5 Z M 106.50658323322101 0.5 L 130.43504146644202 0.5 L 130.43504146644202 3.5 L 137.43504146644202 0 L 130.43504146644202 -3.5 L 130.43504146644202 -0.5 L 106.50658323322101 -0.5 Z"/><text text-anchor="middle" pointer-events="none" font-size="8px" fill="#000000" x="77.71752073322101" y="3" transform="rotate(180 77.71752073322101 0)" font-family="sans-serif">subPropertyOf</text></g><g class="relationship" transform="translate(-159.56888866498343 21.264650385868123) rotate(516.087702360026)"><path class="outline" fill="#A5ABB6" stroke="none" d="M 25 0.5 L 100.94124987031071 0.5 L 100.94124987031071 -0.5 L 25 -0.5 Z M 158.5193748703107 0.5 L 234.46062474062143 0.5 L 234.46062474062143 3.5 L 241.46062474062143 0 L 234.46062474062143 -3.5 L 234.46062474062143 -0.5 L 158.5193748703107 -0.5 Z"/><text text-anchor="middle" pointer-events="none" font-size="8px" fill="#000000" x="129.7303123703107" y="3" transform="rotate(180 129.7303123703107 0)" font-family="sans-serif">subPropertyOf</text></g><g class="relationship" transform="translate(-140.63084359219874 222.21868119622835) rotate(199.49642863482035)"><path class="outline" fill="#A5ABB6" stroke="none" d="M 25 0.5 L 106.95886856102547 0.5 L 106.95886856102547 -0.5 L 25 -0.5 Z M 164.53699356102547 0.5 L 246.49586212205094 0.5 L 246.49586212205094 3.5 L 253.49586212205094 0 L 246.49586212205094 -3.5 L 246.49586212205094 -0.5 L 164.53699356102547 -0.5 Z"/><text text-anchor="middle" pointer-events="none" font-size="8px" fill="#000000" x="135.74793106102547" y="3" transform="rotate(180 135.74793106102547 0)" font-family="sans-serif">subPropertyOf</text></g><g class="relationship" transform="translate(-111.23547100657048 -14.333262916426026) rotate(310.03494310991925)"><path class="outline" fill="#A5ABB6" stroke="none" d="M 25 0.5 L 75.9549802624107 0.5 L 75.9549802624107 -0.5 L 25 -0.5 Z M 108.1932615124107 0.5 L 159.1482417748214 0.5 L 159.1482417748214 3.5 L 166.1482417748214 0 L 159.1482417748214 -3.5 L 159.1482417748214 -0.5 L 108.1932615124107 -0.5 Z"/><text text-anchor="middle" pointer-events="none" font-size="8px" fill="#000000" x="92.0741208874107" y="3" font-family="sans-serif">domain</text></g><g class="relationship" transform="translate(-411.2088556102698 -124.279317232488) rotate(448.18141713442037)"><path class="outline" fill="#A5ABB6" stroke="none" d="M 25 0.5 L 94.55009035554339 0.5 L 94.55009035554339 -0.5 L 25 -0.5 Z M 152.12821535554338 0.5 L 221.67830571108678 0.5 L 221.67830571108678 3.5 L 228.67830571108678 0 L 221.67830571108678 -3.5 L 221.67830571108678 -0.5 L 152.12821535554338 -0.5 Z"/><text text-anchor="middle" pointer-events="none" font-size="8px" fill="#000000" x="123.33915285554339" y="3" font-family="sans-serif">subPropertyOf</text></g><g class="relationship" transform="translate(-188.53630171136987 -51.91734041236927) rotate(331.49163061017003)"><path class="outline" fill="#A5ABB6" stroke="none" d="M 25 0.5 L 94.32590830894168 0.5 L 94.32590830894168 -0.5 L 25 -0.5 Z M 126.56418955894168 0.5 L 195.89009786788336 0.5 L 195.89009786788336 3.5 L 202.89009786788336 0 L 195.89009786788336 -3.5 L 195.89009786788336 -0.5 L 126.56418955894168 -0.5 Z"/><text text-anchor="middle" pointer-events="none" font-size="8px" fill="#000000" x="110.44504893394168" y="3" font-family="sans-serif">domain</text></g><g class="relationship" transform="translate(-86.95721718528688 258.8589660839698) rotate(202.28513845160228)"><path class="outline" fill="#A5ABB6" stroke="none" d="M 25 0.5 L 138.57357841644412 0.5 L 138.57357841644412 -0.5 L 25 -0.5 Z M 196.15170341644412 0.5 L 309.72528183288824 0.5 L 309.72528183288824 3.5 L 316.72528183288824 0 L 309.72528183288824 -3.5 L 309.72528183288824 -0.5 L 196.15170341644412 -0.5 Z"/><text text-anchor="middle" pointer-events="none" font-size="8px" fill="#000000" x="167.36264091644412" y="3" transform="rotate(180 167.36264091644412 0)" font-family="sans-serif">subPropertyOf</text></g><g class="relationship" transform="translate(200.81488679704816 302.53895577590185) rotate(495.8667979437016)"><path class="outline" fill="#A5ABB6" stroke="none" d="M 25 0.5 L 39.524824736681914 0.5 L 39.524824736681914 -0.5 L 25 -0.5 Z M 65.98576223668192 0.5 L 80.51058697336383 0.5 L 80.51058697336383 3.5 L 87.51058697336383 0 L 80.51058697336383 -3.5 L 80.51058697336383 -0.5 L 65.98576223668192 -0.5 Z"/><text text-anchor="middle" pointer-events="none" font-size="8px" fill="#000000" x="52.755293486681914" y="3" transform="rotate(180 52.755293486681914 0)" font-family="sans-serif">range</text></g><g class="relationship" transform="translate(-436.66317157037116 -23.839529908039022) rotate(437.6566974982552)"><path class="outline" fill="#A5ABB6" stroke="none" d="M 25 0.5 L 46.07781617614023 0.5 L 46.07781617614023 -0.5 L 25 -0.5 Z M 103.65594117614023 0.5 L 124.73375735228046 0.5 L 124.73375735228046 3.5 L 131.73375735228046 0 L 124.73375735228046 -3.5 L 124.73375735228046 -0.5 L 103.65594117614023 -0.5 Z"/><text text-anchor="middle" pointer-events="none" font-size="8px" fill="#000000" x="74.86687867614023" y="3" font-family="sans-serif">subPropertyOf</text></g><g class="relationship" transform="translate(-277.8663190166 316.3518592656254) rotate(236.18889878619888)"><path class="outline" fill="#A5ABB6" stroke="none" d="M 25 0.5 L 80.29120975182298 0.5 L 80.29120975182298 -0.5 L 25 -0.5 Z M 137.86933475182298 0.5 L 193.16054450364595 0.5 L 193.16054450364595 3.5 L 200.16054450364595 0 L 193.16054450364595 -3.5 L 193.16054450364595 -0.5 L 137.86933475182298 -0.5 Z"/><text text-anchor="middle" pointer-events="none" font-size="8px" fill="#000000" x="109.08027225182298" y="3" transform="rotate(180 109.08027225182298 0)" font-family="sans-serif">subPropertyOf</text></g><g class="relationship" transform="translate(-393.752879146035 246.3039373692629) rotate(402.4750554597111)"><path class="outline" fill="#A5ABB6" stroke="none" d="M 25 0.5 L 73.53217668878385 0.5 L 73.53217668878385 -0.5 L 25 -0.5 Z M 105.77045793878385 0.5 L 154.3026346275677 0.5 L 154.3026346275677 3.5 L 161.3026346275677 0 L 154.3026346275677 -3.5 L 154.3026346275677 -0.5 L 105.77045793878385 -0.5 Z"/><text text-anchor="middle" pointer-events="none" font-size="8px" fill="#000000" x="89.65131731378385" y="3" font-family="sans-serif">domain</text></g><g class="relationship" transform="translate(-248.11020455616156 -39.61709074101645) rotate(349.0277274041739)"><path class="outline" fill="#A5ABB6" stroke="none" d="M 25 0.5 L 63.1565169731895 0.5 L 63.1565169731895 -0.5 L 25 -0.5 Z M 95.3947982231895 0.5 L 133.551315196379 0.5 L 133.551315196379 3.5 L 140.551315196379 0 L 133.551315196379 -3.5 L 133.551315196379 -0.5 L 95.3947982231895 -0.5 Z"/><text text-anchor="middle" pointer-events="none" font-size="8px" fill="#000000" x="79.2756575981895" y="3" font-family="sans-serif">domain</text></g><g class="relationship" transform="translate(-452.9946539481693 -81.40017592320837) rotate(436.6908165949908)"><path class="outline" fill="#A5ABB6" stroke="none" d="M 25 0.5 L 75.95382211178422 0.5 L 75.95382211178422 -0.5 L 25 -0.5 Z M 133.53194711178423 0.5 L 184.48576922356844 0.5 L 184.48576922356844 3.5 L 191.48576922356844 0 L 184.48576922356844 -3.5 L 184.48576922356844 -0.5 L 133.53194711178423 -0.5 Z"/><text text-anchor="middle" pointer-events="none" font-size="8px" fill="#000000" x="104.74288461178422" y="3" font-family="sans-serif">subPropertyOf</text></g><g class="relationship" transform="translate(-342.5556137036825 2.81561995382308) rotate(475.6056778810545)"><path class="outline" fill="#A5ABB6" stroke="none" d="M 25 0.5 L 37.824621127081144 0.5 L 37.824621127081144 -0.5 L 25 -0.5 Z M 95.40274612708114 0.5 L 108.22736725416229 0.5 L 108.22736725416229 3.5 L 115.22736725416229 0 L 108.22736725416229 -3.5 L 108.22736725416229 -0.5 L 95.40274612708114 -0.5 Z"/><text text-anchor="middle" pointer-events="none" font-size="8px" fill="#000000" x="66.61368362708114" y="3" transform="rotate(180 66.61368362708114 0)" font-family="sans-serif">subPropertyOf</text></g><g class="relationship" transform="translate(-283.05194780978377 8.795002809393825) rotate(494.9119381542165)"><path class="outline" fill="#A5ABB6" stroke="none" d="M 25 0.5 L 52.76985230879043 0.5 L 52.76985230879043 -0.5 L 25 -0.5 Z M 110.34797730879043 0.5 L 138.11782961758087 0.5 L 138.11782961758087 3.5 L 145.11782961758087 0 L 138.11782961758087 -3.5 L 138.11782961758087 -0.5 L 110.34797730879043 -0.5 Z"/><text text-anchor="middle" pointer-events="none" font-size="8px" fill="#000000" x="81.55891480879043" y="3" transform="rotate(180 81.55891480879043 0)" font-family="sans-serif">subPropertyOf</text></g><g class="relationship" transform="translate(-426.51221169621573 361.3453958363726) rotate(363.61902304867016)"><path class="outline" fill="#A5ABB6" stroke="none" d="M 25 0.5 L 65.63628684475437 0.5 L 65.63628684475437 -0.5 L 25 -0.5 Z M 97.87456809475437 0.5 L 138.51085493950873 0.5 L 138.51085493950873 3.5 L 145.51085493950873 0 L 138.51085493950873 -3.5 L 138.51085493950873 -0.5 L 97.87456809475437 -0.5 Z"/><text text-anchor="middle" pointer-events="none" font-size="8px" fill="#000000" x="81.75542746975437" y="3" font-family="sans-serif">domain</text></g><g class="relationship" transform="translate(243.28308961252722 220.24188303103588) rotate(285.4225621226259)"><path class="outline" fill="#A5ABB6" stroke="none" d="M 25 0.5 L 28.12684300637747 0.5 L 28.12684300637747 -0.5 L 25 -0.5 Z M 85.70496800637747 0.5 L 88.83181101275494 0.5 L 88.83181101275494 3.5 L 95.83181101275494 0 L 88.83181101275494 -3.5 L 88.83181101275494 -0.5 L 85.70496800637747 -0.5 Z"/><text text-anchor="middle" pointer-events="none" font-size="8px" fill="#000000" x="56.91590550637747" y="3" font-family="sans-serif">subPropertyOf</text></g><g class="relationship" transform="translate(-118.22376411667473 64.50070922708737) rotate(527.1933177529168)"><path class="outline" fill="#A5ABB6" stroke="none" d="M 25 0.5 L 113.81275212764353 0.5 L 113.81275212764353 -0.5 L 25 -0.5 Z M 171.39087712764353 0.5 L 260.20362925528707 0.5 L 260.20362925528707 3.5 L 267.20362925528707 0 L 260.20362925528707 -3.5 L 260.20362925528707 -0.5 L 171.39087712764353 -0.5 Z"/><text text-anchor="middle" pointer-events="none" font-size="8px" fill="#000000" x="142.60181462764353" y="3" transform="rotate(180 142.60181462764353 0)" font-family="sans-serif">subPropertyOf</text></g><g class="relationship" transform="translate(-368.48646581195686 346.96054828075916) rotate(260.95036929884776)"><path class="outline" fill="#A5ABB6" stroke="none" d="M 25 0.5 L 77.92752874925196 0.5 L 77.92752874925196 -0.5 L 25 -0.5 Z M 135.50565374925196 0.5 L 188.43318249850392 0.5 L 188.43318249850392 3.5 L 195.43318249850392 0 L 188.43318249850392 -3.5 L 188.43318249850392 -0.5 L 135.50565374925196 -0.5 Z"/><text text-anchor="middle" pointer-events="none" font-size="8px" fill="#000000" x="106.71659124925196" y="3" transform="rotate(180 106.71659124925196 0)" font-family="sans-serif">subPropertyOf</text></g><g class="relationship" transform="translate(153.37136110994751 190.35584112729973) rotate(497.4010802354172)"><path class="outline" fill="#A5ABB6" stroke="none" d="M 25 0.5 L 104.79420886826054 0.5 L 104.79420886826054 -0.5 L 25 -0.5 Z M 131.25514636826054 0.5 L 211.04935523652108 0.5 L 211.04935523652108 3.5 L 218.04935523652108 0 L 211.04935523652108 -3.5 L 211.04935523652108 -0.5 L 131.25514636826054 -0.5 Z"/><text text-anchor="middle" pointer-events="none" font-size="8px" fill="#000000" x="118.02467761826054" y="3" transform="rotate(180 118.02467761826054 0)" font-family="sans-serif">range</text></g><g class="relationship" transform="translate(-258.80114408375425 63.527680599881855) rotate(322.13916930982475)"><path class="outline" fill="#A5ABB6" stroke="none" d="M 25 0.5 L 90.08005806338204 0.5 L 90.08005806338204 -0.5 L 25 -0.5 Z M 122.31833931338204 0.5 L 187.39839737676408 0.5 L 187.39839737676408 3.5 L 194.39839737676408 0 L 187.39839737676408 -3.5 L 187.39839737676408 -0.5 L 122.31833931338204 -0.5 Z"/><text text-anchor="middle" pointer-events="none" font-size="8px" fill="#000000" x="106.19919868838204" y="3" font-family="sans-serif">domain</text></g><g class="relationship" transform="translate(-210.19197529396328 237.74205836072278) rotate(209.34133796097439)"><path class="outline" fill="#A5ABB6" stroke="none" d="M 25 0.5 L 78.39287123465427 0.5 L 78.39287123465427 -0.5 L 25 -0.5 Z M 135.97099623465425 0.5 L 189.36386746930853 0.5 L 189.36386746930853 3.5 L 196.36386746930853 0 L 189.36386746930853 -3.5 L 189.36386746930853 -0.5 L 135.97099623465425 -0.5 Z"/><text text-anchor="middle" pointer-events="none" font-size="8px" fill="#000000" x="107.18193373465427" y="3" transform="rotate(180 107.18193373465427 0)" font-family="sans-serif">subPropertyOf</text></g><g class="relationship" transform="translate(-353.19164603676745 -109.49015830922667) rotate(461.81997916471784)"><path class="outline" fill="#A5ABB6" stroke="none" d="M 25 0.5 L 89.67780753197623 0.5 L 89.67780753197623 -0.5 L 25 -0.5 Z M 147.2559325319762 0.5 L 211.93374006395246 0.5 L 211.93374006395246 3.5 L 218.93374006395246 0 L 211.93374006395246 -3.5 L 211.93374006395246 -0.5 L 147.2559325319762 -0.5 Z"/><text text-anchor="middle" pointer-events="none" font-size="8px" fill="#000000" x="118.46687003197623" y="3" transform="rotate(180 118.46687003197623 0)" font-family="sans-serif">subPropertyOf</text></g><g class="relationship" transform="translate(-258.80114408375425 63.527680599881855) rotate(515.5144138132578)"><path class="outline" fill="#A5ABB6" stroke="none" d="M 25 0.5 L 47.02239250940926 0.5 L 47.02239250940926 -0.5 L 25 -0.5 Z M 104.60051750940926 0.5 L 126.62291001881852 0.5 L 126.62291001881852 3.5 L 133.62291001881852 0 L 126.62291001881852 -3.5 L 126.62291001881852 -0.5 L 104.60051750940926 -0.5 Z"/><text text-anchor="middle" pointer-events="none" font-size="8px" fill="#000000" x="75.81145500940926" y="3" transform="rotate(180 75.81145500940926 0)" font-family="sans-serif">subPropertyOf</text></g><g class="relationship" transform="translate(-451.8013639210764 260.47711267474915) rotate(389.731583703439)"><path class="outline" fill="#A5ABB6" stroke="none" d="M 25 0.5 L 92.92655998191462 0.5 L 92.92655998191462 -0.5 L 25 -0.5 Z M 125.16484123191462 0.5 L 193.09140121382924 0.5 L 193.09140121382924 3.5 L 200.09140121382924 0 L 193.09140121382924 -3.5 L 193.09140121382924 -0.5 L 125.16484123191462 -0.5 Z"/><text text-anchor="middle" pointer-events="none" font-size="8px" fill="#000000" x="109.04570060691462" y="3" font-family="sans-serif">domain</text></g><g class="relationship" transform="translate(-409.99596895007215 303.7988783841676) rotate(272.24356423995954)"><path class="outline" fill="#A5ABB6" stroke="none" d="M 25 0.5 L 55.04171305873675 0.5 L 55.04171305873675 -0.5 L 25 -0.5 Z M 112.61983805873675 0.5 L 142.6615511174735 0.5 L 142.6615511174735 3.5 L 149.6615511174735 0 L 142.6615511174735 -3.5 L 142.6615511174735 -0.5 L 112.61983805873675 -0.5 Z"/><text text-anchor="middle" pointer-events="none" font-size="8px" fill="#000000" x="83.83077555873675" y="3" font-family="sans-serif">subPropertyOf</text></g><g class="relationship" transform="translate(-277.8663190166 316.3518592656254) rotate(368.67858180726705)"><path class="outline" fill="#A5ABB6" stroke="none" d="M 25 0.5 L 108.00544270797245 0.5 L 108.00544270797245 -0.5 L 25 -0.5 Z M 140.24372395797246 0.5 L 223.2491666659449 0.5 L 223.2491666659449 3.5 L 230.2491666659449 0 L 223.2491666659449 -3.5 L 223.2491666659449 -0.5 L 140.24372395797246 -0.5 Z"/><text text-anchor="middle" pointer-events="none" font-size="8px" fill="#000000" x="124.12458333297245" y="3" font-family="sans-serif">domain</text></g><g class="relationship" transform="translate(-266.6757693859332 257.4114524295235) rotate(382.0061220663446)"><path class="outline" fill="#A5ABB6" stroke="none" d="M 25 0.5 L 110.42330832866782 0.5 L 110.42330832866782 -0.5 L 25 -0.5 Z M 142.66158957866782 0.5 L 228.08489790733563 0.5 L 228.08489790733563 3.5 L 235.08489790733563 0 L 228.08489790733563 -3.5 L 228.08489790733563 -0.5 L 142.66158957866782 -0.5 Z"/><text text-anchor="middle" pointer-events="none" font-size="8px" fill="#000000" x="126.54244895366782" y="3" font-family="sans-serif">domain</text></g><g class="relationship" transform="translate(200.81488679704816 302.53895577590185) rotate(290.5712102142239)"><path class="outline" fill="#A5ABB6" stroke="none" d="M 25 0.5 L 73.86888127283932 0.5 L 73.86888127283932 -0.5 L 25 -0.5 Z M 131.4470062728393 0.5 L 180.31588754567863 0.5 L 180.31588754567863 3.5 L 187.31588754567863 0 L 180.31588754567863 -3.5 L 180.31588754567863 -0.5 L 131.4470062728393 -0.5 Z"/><text text-anchor="middle" pointer-events="none" font-size="8px" fill="#000000" x="102.65794377283932" y="3" font-family="sans-serif">subPropertyOf</text></g><g class="relationship" transform="translate(-213.82766537246854 -106.19524856948351) rotate(488.8016003874005)"><path class="outline" fill="#A5ABB6" stroke="none" d="M 25 0.5 L 118.78259275379796 0.5 L 118.78259275379796 -0.5 L 25 -0.5 Z M 176.36071775379796 0.5 L 270.1433105075959 0.5 L 270.1433105075959 3.5 L 277.1433105075959 0 L 270.1433105075959 -3.5 L 270.1433105075959 -0.5 L 176.36071775379796 -0.5 Z"/><text text-anchor="middle" pointer-events="none" font-size="8px" fill="#000000" x="147.57165525379796" y="3" transform="rotate(180 147.57165525379796 0)" font-family="sans-serif">subPropertyOf</text></g><g class="relationship" transform="translate(-468.0434240189858 318.08428059087214) rotate(288.9651266539748)"><path class="outline" fill="#A5ABB6" stroke="none" d="M 25 0.5 L 67.5363359910618 0.5 L 67.5363359910618 -0.5 L 25 -0.5 Z M 125.1144609910618 0.5 L 167.6507969821236 0.5 L 167.6507969821236 3.5 L 174.6507969821236 0 L 167.6507969821236 -3.5 L 167.6507969821236 -0.5 L 125.1144609910618 -0.5 Z"/><text text-anchor="middle" pointer-events="none" font-size="8px" fill="#000000" x="96.3253984910618" y="3" font-family="sans-serif">subPropertyOf</text></g><g class="relationship" transform="translate(-426.51221169621573 361.3453958363726) rotate(275.7463773981385)"><path class="outline" fill="#A5ABB6" stroke="none" d="M 25 0.5 L 84.33407616202354 0.5 L 84.33407616202354 -0.5 L 25 -0.5 Z M 141.91220116202354 0.5 L 201.24627732404707 0.5 L 201.24627732404707 3.5 L 208.24627732404707 0 L 201.24627732404707 -3.5 L 201.24627732404707 -0.5 L 141.91220116202354 -0.5 Z"/><text text-anchor="middle" pointer-events="none" font-size="8px" fill="#000000" x="113.12313866202354" y="3" font-family="sans-serif">subPropertyOf</text></g><g class="relationship" transform="translate(-134.89827589527908 122.02095560617306) rotate(337.93428305410373)"><path class="outline" fill="#A5ABB6" stroke="none" d="M 25 0.5 L 93.46500507082116 0.5 L 93.46500507082116 -0.5 L 25 -0.5 Z M 125.70328632082116 0.5 L 194.16829139164233 0.5 L 194.16829139164233 3.5 L 201.16829139164233 0 L 194.16829139164233 -3.5 L 194.16829139164233 -0.5 L 125.70328632082116 -0.5 Z"/><text text-anchor="middle" pointer-events="none" font-size="8px" fill="#000000" x="109.58414569582116" y="3" font-family="sans-serif">domain</text></g><g class="relationship" transform="translate(-307.71171595440126 -45.82093992311077) rotate(478.5957958977319)"><path class="outline" fill="#A5ABB6" stroke="none" d="M 25 0.5 L 67.4196771742468 0.5 L 67.4196771742468 -0.5 L 25 -0.5 Z M 124.9978021742468 0.5 L 167.4174793484936 0.5 L 167.4174793484936 3.5 L 174.4174793484936 0 L 167.4174793484936 -3.5 L 167.4174793484936 -0.5 L 124.9978021742468 -0.5 Z"/><text text-anchor="middle" pointer-events="none" font-size="8px" fill="#000000" x="96.2087396742468" y="3" transform="rotate(180 96.2087396742468 0)" font-family="sans-serif">subPropertyOf</text></g><g class="relationship" transform="translate(-199.86705146966852 352.2756998864495) rotate(227.6476352066665)"><path class="outline" fill="#A5ABB6" stroke="none" d="M 25 0.5 L 118.59033404869294 0.5 L 118.59033404869294 -0.5 L 25 -0.5 Z M 176.16845904869294 0.5 L 269.7587930973859 0.5 L 269.7587930973859 3.5 L 276.7587930973859 0 L 269.7587930973859 -3.5 L 269.7587930973859 -0.5 L 176.16845904869294 -0.5 Z"/><text text-anchor="middle" pointer-events="none" font-size="8px" fill="#000000" x="147.37939654869294" y="3" transform="rotate(180 147.37939654869294 0)" font-family="sans-serif">subPropertyOf</text></g><g class="relationship" transform="translate(-118.22376411667473 64.50070922708737) rotate(351.9038816385653)"><path class="outline" fill="#A5ABB6" stroke="none" d="M 25 0.5 L 77.81585531276677 0.5 L 77.81585531276677 -0.5 L 25 -0.5 Z M 110.05413656276677 0.5 L 162.86999187553354 0.5 L 162.86999187553354 3.5 L 169.86999187553354 0 L 162.86999187553354 -3.5 L 162.86999187553354 -0.5 L 110.05413656276677 -0.5 Z"/><text text-anchor="middle" pointer-events="none" font-size="8px" fill="#000000" x="93.93499593776677" y="3" font-family="sans-serif">domain</text></g><g class="relationship" transform="translate(205.26355694643547 160.3649212518545) rotate(223.36395952965535)"><path class="outline" fill="#A5ABB6" stroke="none" d="M 25 0.5 L 70.17339855735013 0.5 L 70.17339855735013 -0.5 L 25 -0.5 Z M 102.41167980735013 0.5 L 147.58507836470025 0.5 L 147.58507836470025 3.5 L 154.58507836470025 0 L 147.58507836470025 -3.5 L 147.58507836470025 -0.5 L 102.41167980735013 -0.5 Z"/><text text-anchor="middle" pointer-events="none" font-size="8px" fill="#000000" x="86.29253918235013" y="3" transform="rotate(180 86.29253918235013 0)" font-family="sans-serif">domain</text></g><g class="relationship" transform="translate(-134.89827589527908 122.02095560617306) rotate(538.4518451111849)"><path class="outline" fill="#A5ABB6" stroke="none" d="M 25 0.5 L 101.88997498811418 0.5 L 101.88997498811418 -0.5 L 25 -0.5 Z M 159.46809998811418 0.5 L 236.35807497622835 0.5 L 236.35807497622835 3.5 L 243.35807497622835 0 L 236.35807497622835 -3.5 L 236.35807497622835 -0.5 L 159.46809998811418 -0.5 Z"/><text text-anchor="middle" pointer-events="none" font-size="8px" fill="#000000" x="130.67903748811418" y="3" transform="rotate(180 130.67903748811418 0)" font-family="sans-serif">subPropertyOf</text></g><g class="relationship" transform="translate(70.42761891780479 -91.92214736487408) rotate(198.94257898560807)"><path class="outline" fill="#A5ABB6" stroke="none" d="M 25 0.5 L 156.178306366451 0.5 L 156.178306366451 -0.5 L 25 -0.5 Z M 188.416587616451 0.5 L 319.594893982902 0.5 L 319.594893982902 3.5 L 326.594893982902 0 L 319.594893982902 -3.5 L 319.594893982902 -0.5 L 188.416587616451 -0.5 Z"/><text text-anchor="middle" pointer-events="none" font-size="8px" fill="#000000" x="172.297446991451" y="3" transform="rotate(180 172.297446991451 0)" font-family="sans-serif">domain</text></g><g class="relationship" transform="translate(153.37136110994751 190.35584112729973) rotate(324.64316894249373)"><path class="outline" fill="#A5ABB6" stroke="none" d="M 25 0.5 L 42.5335284137889 0.5 L 42.5335284137889 -0.5 L 25 -0.5 Z M 100.1116534137889 0.5 L 117.6451818275778 0.5 L 117.6451818275778 3.5 L 124.6451818275778 0 L 117.6451818275778 -3.5 L 117.6451818275778 -0.5 L 100.1116534137889 -0.5 Z"/><text text-anchor="middle" pointer-events="none" font-size="8px" fill="#000000" x="71.3225909137889" y="3" font-family="sans-serif">subPropertyOf</text></g><g class="relationship" transform="translate(-394.928704508776 -66.70674465699882) rotate(452.40460464516843)"><path class="outline" fill="#A5ABB6" stroke="none" d="M 25 0.5 L 65.78627687203856 0.5 L 65.78627687203856 -0.5 L 25 -0.5 Z M 123.36440187203856 0.5 L 164.1506787440771 0.5 L 164.1506787440771 3.5 L 171.1506787440771 0 L 164.1506787440771 -3.5 L 164.1506787440771 -0.5 L 123.36440187203856 -0.5 Z"/><text text-anchor="middle" pointer-events="none" font-size="8px" fill="#000000" x="94.57533937203856" y="3" transform="rotate(180 94.57533937203856 0)" font-family="sans-serif">subPropertyOf</text></g><g class="relationship" transform="translate(-213.82766537246854 -106.19524856948351) rotate(346.4179979041621)"><path class="outline" fill="#A5ABB6" stroke="none" d="M 25 0.5 L 96.39995232059547 0.5 L 96.39995232059547 -0.5 L 25 -0.5 Z M 128.63823357059547 0.5 L 200.03818589119095 0.5 L 200.03818589119095 3.5 L 207.03818589119095 0 L 200.03818589119095 -3.5 L 200.03818589119095 -0.5 L 128.63823357059547 -0.5 Z"/><text text-anchor="middle" pointer-events="none" font-size="8px" fill="#000000" x="112.51909294559547" y="3" font-family="sans-serif">domain</text></g><g class="relationship" transform="translate(-353.19164603676745 -109.49015830922667) rotate(313.320482391381)"><path class="outline" fill="#A5ABB6" stroke="none" d="M 25 0.5 L 46.7473271462804 0.5 L 46.7473271462804 -0.5 L 25 -0.5 Z M 78.9856083962804 0.5 L 100.7329355425608 0.5 L 100.7329355425608 3.5 L 107.7329355425608 0 L 100.7329355425608 -3.5 L 100.7329355425608 -0.5 L 78.9856083962804 -0.5 Z"/><text text-anchor="middle" pointer-events="none" font-size="8px" fill="#000000" x="62.8664677712804" y="3" font-family="sans-serif">domain</text></g><g class="relationship" transform="translate(-187.52203215036906 174.73724974041775) rotate(191.90618843643927)"><path class="outline" fill="#A5ABB6" stroke="none" d="M 25 0.5 L 77.89963941394107 0.5 L 77.89963941394107 -0.5 L 25 -0.5 Z M 135.4777644139411 0.5 L 188.37740382788215 0.5 L 188.37740382788215 3.5 L 195.37740382788215 0 L 188.37740382788215 -3.5 L 188.37740382788215 -0.5 L 135.4777644139411 -0.5 Z"/><text text-anchor="middle" pointer-events="none" font-size="8px" fill="#000000" x="106.68870191394107" y="3" transform="rotate(180 106.68870191394107 0)" font-family="sans-serif">subPropertyOf</text></g><g class="relationship" transform="translate(-272.7070672281606 -94.21396082082703) rotate(480.2726883039403)"><path class="outline" fill="#A5ABB6" stroke="none" d="M 25 0.5 L 97.09715435352479 0.5 L 97.09715435352479 -0.5 L 25 -0.5 Z M 154.6752793535248 0.5 L 226.77243370704957 0.5 L 226.77243370704957 3.5 L 233.77243370704957 0 L 226.77243370704957 -3.5 L 226.77243370704957 -0.5 L 154.6752793535248 -0.5 Z"/><text text-anchor="middle" pointer-events="none" font-size="8px" fill="#000000" x="125.88621685352479" y="3" transform="rotate(180 125.88621685352479 0)" font-family="sans-serif">subPropertyOf</text></g><g class="relationship" transform="translate(-451.8013639210764 260.47711267474915) rotate(290.34164191927704)"><path class="outline" fill="#A5ABB6" stroke="none" d="M 25 0.5 L 37.67722587002109 0.5 L 37.67722587002109 -0.5 L 25 -0.5 Z M 95.25535087002109 0.5 L 107.93257674004218 0.5 L 107.93257674004218 3.5 L 114.93257674004218 0 L 107.93257674004218 -3.5 L 107.93257674004218 -0.5 L 95.25535087002109 -0.5 Z"/><text text-anchor="middle" pointer-events="none" font-size="8px" fill="#000000" x="66.46628837002109" y="3" font-family="sans-serif">subPropertyOf</text></g><g class="relationship" transform="translate(-70.06652543760336 105.80896175302996) rotate(535.9708667619989)"><path class="outline" fill="#A5ABB6" stroke="none" d="M 25 0.5 L 134.66951711943193 0.5 L 134.66951711943193 -0.5 L 25 -0.5 Z M 192.24764211943193 0.5 L 301.91715923886386 0.5 L 301.91715923886386 3.5 L 308.91715923886386 0 L 301.91715923886386 -3.5 L 301.91715923886386 -0.5 L 192.24764211943193 -0.5 Z"/><text text-anchor="middle" pointer-events="none" font-size="8px" fill="#000000" x="163.45857961943193" y="3" transform="rotate(180 163.45857961943193 0)" font-family="sans-serif">subPropertyOf</text></g><g class="relationship" transform="translate(-335.5223468085245 231.83655346927864) rotate(236.59740463116316)"><path class="outline" fill="#A5ABB6" stroke="none" d="M 25 0.5 L 29.14033426635919 0.5 L 29.14033426635919 -0.5 L 25 -0.5 Z M 86.71845926635919 0.5 L 90.85879353271838 0.5 L 90.85879353271838 3.5 L 97.85879353271838 0 L 90.85879353271838 -3.5 L 90.85879353271838 -0.5 L 86.71845926635919 -0.5 Z"/><text text-anchor="middle" pointer-events="none" font-size="8px" fill="#000000" x="57.92939676635919" y="3" transform="rotate(180 57.92939676635919 0)" font-family="sans-serif">subPropertyOf</text></g><g class="relationship" transform="translate(318.0070945145469 286.20948315503847) rotate(382.1862542356625)"><path class="outline" fill="#A5ABB6" stroke="none" d="M 25 0.5 L 42.28962926913027 0.5 L 42.28962926913027 -0.5 L 25 -0.5 Z M 68.75056676913027 0.5 L 86.04019603826055 0.5 L 86.04019603826055 3.5 L 93.04019603826055 0 L 86.04019603826055 -3.5 L 86.04019603826055 -0.5 L 68.75056676913027 -0.5 Z"/><text text-anchor="middle" pointer-events="none" font-size="8px" fill="#000000" x="55.52009801913027" y="3" font-family="sans-serif">range</text></g><g class="relationship" transform="translate(-165.0977190099392 277.1351545116946) rotate(389.1171000851168)"><path class="outline" fill="#A5ABB6" stroke="none" d="M 25 0.5 L 60.25364850152209 0.5 L 60.25364850152209 -0.5 L 25 -0.5 Z M 92.4919297515221 0.5 L 127.74557825304419 0.5 L 127.74557825304419 3.5 L 134.7455782530442 0 L 127.74557825304419 -3.5 L 127.74557825304419 -0.5 L 92.4919297515221 -0.5 Z"/><text text-anchor="middle" pointer-events="none" font-size="8px" fill="#000000" x="76.3727891265221" y="3" font-family="sans-serif">domain</text></g><g class="relationship" transform="translate(-352.00622772489487 289.43927140133366) rotate(252.28830733550905)"><path class="outline" fill="#A5ABB6" stroke="none" d="M 25 0.5 L 51.77988237795073 0.5 L 51.77988237795073 -0.5 L 25 -0.5 Z M 109.35800737795073 0.5 L 136.13788975590145 0.5 L 136.13788975590145 3.5 L 143.13788975590145 0 L 136.13788975590145 -3.5 L 136.13788975590145 -0.5 L 109.35800737795073 -0.5 Z"/><text text-anchor="middle" pointer-events="none" font-size="8px" fill="#000000" x="80.56894487795073" y="3" transform="rotate(180 80.56894487795073 0)" font-family="sans-serif">subPropertyOf</text></g><g class="relationship" transform="translate(-107.17265973661802 315.19046330114224) rotate(356.3071159757353)"><path class="outline" fill="#A5ABB6" stroke="none" d="M 25 0.5 L 79.77496097531964 0.5 L 79.77496097531964 -0.5 L 25 -0.5 Z M 112.01324222531964 0.5 L 166.7882032006393 0.5 L 166.7882032006393 3.5 L 173.7882032006393 0 L 166.7882032006393 -3.5 L 166.7882032006393 -0.5 L 112.01324222531964 -0.5 Z"/><text text-anchor="middle" pointer-events="none" font-size="8px" fill="#000000" x="95.89410160031964" y="3" font-family="sans-serif">domain</text></g><g class="relationship" transform="translate(-107.17265973661802 315.19046330114224) rotate(376.1243244208422)"><path class="outline" fill="#A5ABB6" stroke="none" d="M 25 0.5 L 98.65153008773254 0.5 L 98.65153008773254 -0.5 L 25 -0.5 Z M 130.88981133773254 0.5 L 204.54134142546508 0.5 L 204.54134142546508 3.5 L 211.54134142546508 0 L 204.54134142546508 -3.5 L 204.54134142546508 -0.5 L 130.88981133773254 -0.5 Z"/><text text-anchor="middle" pointer-events="none" font-size="8px" fill="#000000" x="114.77067071273254" y="3" font-family="sans-serif">domain</text></g><g class="relationship" transform="translate(-394.928704508776 -66.70674465699882) rotate(313.62172507442887)"><path class="outline" fill="#A5ABB6" stroke="none" d="M 25 0.5 L 76.62916207464366 0.5 L 76.62916207464366 -0.5 L 25 -0.5 Z M 108.86744332464366 0.5 L 160.49660539928732 0.5 L 160.49660539928732 3.5 L 167.49660539928732 0 L 160.49660539928732 -3.5 L 160.49660539928732 -0.5 L 108.86744332464366 -0.5 Z"/><text text-anchor="middle" pointer-events="none" font-size="8px" fill="#000000" x="92.74830269964366" y="3" font-family="sans-serif">domain</text></g><g class="relationship" transform="translate(242.16507635523317 -75.22643675581867) rotate(457.3199712128538)"><path class="outline" fill="#A5ABB6" stroke="none" d="M 25 0.5 L 56.00564406872674 0.5 L 56.00564406872674 -0.5 L 25 -0.5 Z M 88.24392531872674 0.5 L 119.24956938745348 0.5 L 119.24956938745348 3.5 L 126.24956938745348 0 L 119.24956938745348 -3.5 L 119.24956938745348 -0.5 L 88.24392531872674 -0.5 Z"/><text text-anchor="middle" pointer-events="none" font-size="8px" fill="#000000" x="72.12478469372674" y="3" transform="rotate(180 72.12478469372674 0)" font-family="sans-serif">domain</text></g><g class="relationship" transform="translate(205.26355694643547 160.3649212518545) rotate(488.76867596023885)"><path class="outline" fill="#A5ABB6" stroke="none" d="M 25 0.5 L 74.34653846166053 0.5 L 74.34653846166053 -0.5 L 25 -0.5 Z M 100.80747596166053 0.5 L 150.15401442332106 0.5 L 150.15401442332106 3.5 L 157.15401442332106 0 L 150.15401442332106 -3.5 L 150.15401442332106 -0.5 L 100.80747596166053 -0.5 Z"/><text text-anchor="middle" pointer-events="none" font-size="8px" fill="#000000" x="87.57700721166053" y="3" transform="rotate(180 87.57700721166053 0)" font-family="sans-serif">range</text></g><g class="relationship" transform="translate(70.42761891780479 -91.92214736487408) rotate(448.1010112157371)"><path class="outline" fill="#A5ABB6" stroke="none" d="M 25 0.5 L 47.794220626114694 0.5 L 47.794220626114694 -0.5 L 25 -0.5 Z M 74.2551581261147 0.5 L 97.04937875222939 0.5 L 97.04937875222939 3.5 L 104.04937875222939 0 L 97.04937875222939 -3.5 L 97.04937875222939 -0.5 L 74.2551581261147 -0.5 Z"/><text text-anchor="middle" pointer-events="none" font-size="8px" fill="#000000" x="61.024689376114694" y="3" font-family="sans-serif">range</text></g><g class="relationship" transform="translate(-452.9946539481693 -81.40017592320837) rotate(326.85127518528157)"><path class="outline" fill="#A5ABB6" stroke="none" d="M 25 0.5 L 94.36551472681278 0.5 L 94.36551472681278 -0.5 L 25 -0.5 Z M 126.60379597681278 0.5 L 195.96931070362555 0.5 L 195.96931070362555 3.5 L 202.96931070362555 0 L 195.96931070362555 -3.5 L 195.96931070362555 -0.5 L 126.60379597681278 -0.5 Z"/><text text-anchor="middle" pointer-events="none" font-size="8px" fill="#000000" x="110.48465535181278" y="3" font-family="sans-serif">domain</text></g><g class="relationship" transform="translate(-86.95721718528688 258.8589660839698) rotate(373.7294858358798)"><path class="outline" fill="#A5ABB6" stroke="none" d="M 25 0.5 L 72.08099842249928 0.5 L 72.08099842249928 -0.5 L 25 -0.5 Z M 104.31927967249928 0.5 L 151.40027809499855 0.5 L 151.40027809499855 3.5 L 158.40027809499855 0 L 151.40027809499855 -3.5 L 151.40027809499855 -0.5 L 104.31927967249928 -0.5 Z"/><text text-anchor="middle" pointer-events="none" font-size="8px" fill="#000000" x="88.20013904749928" y="3" font-family="sans-serif">domain</text></g><g class="relationship" transform="translate(-436.66317157037116 -23.839529908039022) rotate(313.76663806263684)"><path class="outline" fill="#A5ABB6" stroke="none" d="M 25 0.5 L 106.54175614955548 0.5 L 106.54175614955548 -0.5 L 25 -0.5 Z M 138.78003739955548 0.5 L 220.32179354911096 0.5 L 220.32179354911096 3.5 L 227.32179354911096 0 L 220.32179354911096 -3.5 L 220.32179354911096 -0.5 L 138.78003739955548 -0.5 Z"/><text text-anchor="middle" pointer-events="none" font-size="8px" fill="#000000" x="122.66089677455548" y="3" font-family="sans-serif">domain</text></g><g class="relationship" transform="translate(-409.99596895007215 303.7988783841676) rotate(383.96826676535625)"><path class="outline" fill="#A5ABB6" stroke="none" d="M 25 0.5 L 64.45808063879069 0.5 L 64.45808063879069 -0.5 L 25 -0.5 Z M 96.69636188879069 0.5 L 136.15444252758138 0.5 L 136.15444252758138 3.5 L 143.15444252758138 0 L 136.15444252758138 -3.5 L 136.15444252758138 -0.5 L 96.69636188879069 -0.5 Z"/><text text-anchor="middle" pointer-events="none" font-size="8px" fill="#000000" x="80.57722126379069" y="3" font-family="sans-serif">domain</text></g><g class="relationship" transform="translate(-342.5556137036825 2.81561995382308) rotate(343.94692492894967)"><path class="outline" fill="#A5ABB6" stroke="none" d="M 25 0.5 L 114.0794842017963 0.5 L 114.0794842017963 -0.5 L 25 -0.5 Z M 146.3177654517963 0.5 L 235.3972496535926 0.5 L 235.3972496535926 3.5 L 242.3972496535926 0 L 235.3972496535926 -3.5 L 235.3972496535926 -0.5 L 146.3177654517963 -0.5 Z"/><text text-anchor="middle" pointer-events="none" font-size="8px" fill="#000000" x="130.1986248267963" y="3" font-family="sans-serif">domain</text></g><g class="relationship" transform="translate(-223.6584935745284 15.06615585099358) rotate(328.0252098848961)"><path class="outline" fill="#A5ABB6" stroke="none" d="M 25 0.5 L 61.76497585370299 0.5 L 61.76497585370299 -0.5 L 25 -0.5 Z M 94.00325710370299 0.5 L 130.76823295740598 0.5 L 130.76823295740598 3.5 L 137.76823295740598 0 L 130.76823295740598 -3.5 L 130.76823295740598 -0.5 L 94.00325710370299 -0.5 Z"/><text text-anchor="middle" pointer-events="none" font-size="8px" fill="#000000" x="77.88411647870299" y="3" font-family="sans-serif">domain</text></g><g class="relationship" transform="translate(-468.0434240189858 318.08428059087214) rotate(374.3157314864463)"><path class="outline" fill="#A5ABB6" stroke="none" d="M 25 0.5 L 89.62411379351431 0.5 L 89.62411379351431 -0.5 L 25 -0.5 Z M 121.86239504351431 0.5 L 186.48650883702862 0.5 L 186.48650883702862 3.5 L 193.48650883702862 0 L 186.48650883702862 -3.5 L 186.48650883702862 -0.5 L 121.86239504351431 -0.5 Z"/><text text-anchor="middle" pointer-events="none" font-size="8px" fill="#000000" x="105.74325441851431" y="3" font-family="sans-serif">domain</text></g><g class="relationship" transform="translate(318.0070945145469 286.20948315503847) rotate(256.86025182660865)"><path class="outline" fill="#A5ABB6" stroke="none" d="M 25 0.5 L 61.387710858252575 0.5 L 61.387710858252575 -0.5 L 25 -0.5 Z M 118.96583585825258 0.5 L 155.35354671650515 0.5 L 155.35354671650515 3.5 L 162.35354671650515 0 L 155.35354671650515 -3.5 L 155.35354671650515 -0.5 L 118.96583585825258 -0.5 Z"/><text text-anchor="middle" pointer-events="none" font-size="8px" fill="#000000" x="90.17677335825258" y="3" transform="rotate(180 90.17677335825258 0)" font-family="sans-serif">subPropertyOf</text></g><g class="relationship" transform="translate(-266.6757693859332 257.4114524295235) rotate(223.19431593289244)"><path class="outline" fill="#A5ABB6" stroke="none" d="M 25 0.5 L 61.315727208182324 0.5 L 61.315727208182324 -0.5 L 25 -0.5 Z M 118.89385220818232 0.5 L 155.20957941636465 0.5 L 155.20957941636465 3.5 L 162.20957941636465 0 L 155.20957941636465 -3.5 L 155.20957941636465 -0.5 L 118.89385220818232 -0.5 Z"/><text text-anchor="middle" pointer-events="none" font-size="8px" fill="#000000" x="90.10478970818232" y="3" transform="rotate(180 90.10478970818232 0)" font-family="sans-serif">subPropertyOf</text></g><g class="relationship" transform="translate(-188.53630171136987 -51.91734041236927) rotate(499.82822770745236)"><path class="outline" fill="#A5ABB6" stroke="none" d="M 25 0.5 L 108.14947811006081 0.5 L 108.14947811006081 -0.5 L 25 -0.5 Z M 165.7276031100608 0.5 L 248.87708122012162 0.5 L 248.87708122012162 3.5 L 255.87708122012162 0 L 248.87708122012162 -3.5 L 248.87708122012162 -0.5 L 165.7276031100608 -0.5 Z"/><text text-anchor="middle" pointer-events="none" font-size="8px" fill="#000000" x="136.9385406100608" y="3" transform="rotate(180 136.9385406100608 0)" font-family="sans-serif">subPropertyOf</text></g><g class="relationship" transform="translate(-352.00622772489487 289.43927140133366) rotate(400.8320443067467)"><path class="outline" fill="#A5ABB6" stroke="none" d="M 25 0.5 L 43.59861888325184 0.5 L 43.59861888325184 -0.5 L 25 -0.5 Z M 75.83690013325185 0.5 L 94.43551901650368 0.5 L 94.43551901650368 3.5 L 101.43551901650368 0 L 94.43551901650368 -3.5 L 94.43551901650368 -0.5 L 75.83690013325185 -0.5 Z"/><text text-anchor="middle" pointer-events="none" font-size="8px" fill="#000000" x="59.71775950825184" y="3" font-family="sans-serif">domain</text></g><g class="relationship" transform="translate(258.19664432708583 -9.466400557371195) rotate(441.3525693873953)"><path class="outline" fill="#A5ABB6" stroke="none" d="M 25 0.5 L 25.198332011691967 0.5 L 25.198332011691967 -0.5 L 25 -0.5 Z M 82.33114451169197 0.5 L 82.52947652338393 0.5 L 82.52947652338393 3.5 L 89.52947652338393 0 L 82.52947652338393 -3.5 L 82.52947652338393 -0.5 L 82.33114451169197 -0.5 Z"/><text text-anchor="middle" pointer-events="none" font-size="8px" fill="#000000" x="53.76473826169197" y="3" font-family="sans-serif">subProperty…</text></g><g class="relationship" transform="translate(-221.57797655378087 296.65308092011367) rotate(222.67003885575565)"><path class="outline" fill="#A5ABB6" stroke="none" d="M 25 0.5 L 91.18981847396239 0.5 L 91.18981847396239 -0.5 L 25 -0.5 Z M 148.7679434739624 0.5 L 214.95776194792478 0.5 L 214.95776194792478 3.5 L 221.95776194792478 0 L 214.95776194792478 -3.5 L 214.95776194792478 -0.5 L 148.7679434739624 -0.5 Z"/><text text-anchor="middle" pointer-events="none" font-size="8px" fill="#000000" x="119.97888097396239" y="3" transform="rotate(180 119.97888097396239 0)" font-family="sans-serif">subPropertyOf</text></g><g class="relationship" transform="translate(-111.23547100657048 -14.333262916426026) rotate(513.8062270353053)"><path class="outline" fill="#A5ABB6" stroke="none" d="M 25 0.5 L 130.377189674202 0.5 L 130.377189674202 -0.5 L 25 -0.5 Z M 187.955314674202 0.5 L 293.332504348404 0.5 L 293.332504348404 3.5 L 300.332504348404 0 L 293.332504348404 -3.5 L 293.332504348404 -0.5 L 187.955314674202 -0.5 Z"/><text text-anchor="middle" pointer-events="none" font-size="8px" fill="#000000" x="159.166252174202" y="3" transform="rotate(180 159.166252174202 0)" font-family="sans-serif">subPropertyOf</text></g><g class="relationship" transform="translate(-283.05194780978377 8.795002809393825) rotate(337.96498583807215)"><path class="outline" fill="#A5ABB6" stroke="none" d="M 25 0.5 L 86.89451677012103 0.5 L 86.89451677012103 -0.5 L 25 -0.5 Z M 119.13279802012103 0.5 L 181.02731479024206 0.5 L 181.02731479024206 3.5 L 188.02731479024206 0 L 181.02731479024206 -3.5 L 181.02731479024206 -0.5 L 119.13279802012103 -0.5 Z"/><text text-anchor="middle" pointer-events="none" font-size="8px" fill="#000000" x="103.01365739512103" y="3" font-family="sans-serif">domain</text></g><g class="relationship" transform="translate(242.16507635523317 -75.22643675581867) rotate(439.47582376387106)"><path class="outline" fill="#A5ABB6" stroke="none" d="M 25 0.5 L 58.735952496253404 0.5 L 58.735952496253404 -0.5 L 25 -0.5 Z M 116.3140774962534 0.5 L 150.0500299925068 0.5 L 150.0500299925068 3.5 L 157.0500299925068 0 L 150.0500299925068 -3.5 L 150.0500299925068 -0.5 L 116.3140774962534 -0.5 Z"/><text text-anchor="middle" pointer-events="none" font-size="8px" fill="#000000" x="87.5250149962534" y="3" font-family="sans-serif">subPropertyOf</text></g><g class="relationship" transform="translate(-221.57797655378087 296.65308092011367) rotate(376.53880782620337)"><path class="outline" fill="#A5ABB6" stroke="none" d="M 25 0.5 L 82.63037041801996 0.5 L 82.63037041801996 -0.5 L 25 -0.5 Z M 114.86865166801996 0.5 L 172.49902208603993 0.5 L 172.49902208603993 3.5 L 179.49902208603993 0 L 172.49902208603993 -3.5 L 172.49902208603993 -0.5 L 114.86865166801996 -0.5 Z"/><text text-anchor="middle" pointer-events="none" font-size="8px" fill="#000000" x="98.74951104301996" y="3" font-family="sans-serif">domain</text></g><g class="relationship" transform="translate(150.41919794768248 -48.811614320505306) rotate(410.6734650588171)"><path class="outline" fill="#A5ABB6" stroke="none" d="M 25 0.5 L 66.3298894763929 0.5 L 66.3298894763929 -0.5 L 25 -0.5 Z M 123.9080144763929 0.5 L 165.2379039527858 0.5 L 165.2379039527858 3.5 L 172.2379039527858 0 L 165.2379039527858 -3.5 L 165.2379039527858 -0.5 L 123.9080144763929 -0.5 Z"/><text text-anchor="middle" pointer-events="none" font-size="8px" fill="#000000" x="95.1189519763929" y="3" font-family="sans-serif">subPropertyOf</text></g><g class="relationship" transform="translate(242.16507635523317 -75.22643675581867) rotate(200.347282390384)"><path class="outline" fill="#A5ABB6" stroke="none" d="M 25 0.5 L 106.15934462229391 0.5 L 106.15934462229391 -0.5 L 25 -0.5 Z M 132.62028212229393 0.5 L 213.77962674458783 0.5 L 213.77962674458783 3.5 L 220.77962674458783 0 L 213.77962674458783 -3.5 L 213.77962674458783 -0.5 L 132.62028212229393 -0.5 Z"/><text text-anchor="middle" pointer-events="none" font-size="8px" fill="#000000" x="119.38981337229391" y="3" transform="rotate(180 119.38981337229391 0)" font-family="sans-serif">range</text></g><g class="relationship" transform="translate(-70.06652543760336 105.80896175302996) rotate(353.9560788492046)"><path class="outline" fill="#A5ABB6" stroke="none" d="M 25 0.5 L 127.6800470454763 0.5 L 127.6800470454763 -0.5 L 25 -0.5 Z M 159.9183282954763 0.5 L 262.5983753409526 0.5 L 262.5983753409526 3.5 L 269.5983753409526 0 L 262.5983753409526 -3.5 L 262.5983753409526 -0.5 L 159.9183282954763 -0.5 Z"/><text text-anchor="middle" pointer-events="none" font-size="8px" fill="#000000" x="143.7991876704763" y="3" font-family="sans-serif">domain</text></g><g class="relationship" transform="translate(-176.28015227955513 78.77082670140108) rotate(350.5634944565726)"><path class="outline" fill="#A5ABB6" stroke="none" d="M 25 0.5 L 107.59440080885923 0.5 L 107.59440080885923 -0.5 L 25 -0.5 Z M 139.83268205885923 0.5 L 222.42708286771847 0.5 L 222.42708286771847 3.5 L 229.42708286771847 0 L 222.42708286771847 -3.5 L 222.42708286771847 -0.5 L 139.83268205885923 -0.5 Z"/><text text-anchor="middle" pointer-events="none" font-size="8px" fill="#000000" x="123.71354143385923" y="3" font-family="sans-serif">domain</text></g><g class="relationship" transform="translate(69.35635200280555 235.17015566714343) rotate(327.4734705965654)"><path class="outline" fill="#A5ABB6" stroke="none" d="M 25 0.5 L 89.9086782586512 0.5 L 89.9086782586512 -0.5 L 25 -0.5 Z M 147.4868032586512 0.5 L 212.3954815173024 0.5 L 212.3954815173024 3.5 L 219.3954815173024 0 L 212.3954815173024 -3.5 L 212.3954815173024 -0.5 L 147.4868032586512 -0.5 Z"/><text text-anchor="middle" pointer-events="none" font-size="8px" fill="#000000" x="118.6977407586512" y="3" font-family="sans-serif">subPropertyOf</text></g><g class="relationship" transform="translate(-107.17265973661802 315.19046330114224) rotate(212.13440242214034)"><path class="outline" fill="#A5ABB6" stroke="none" d="M 25 0.5 L 142.47758229820232 0.5 L 142.47758229820232 -0.5 L 25 -0.5 Z M 200.05570729820232 0.5 L 317.53328959640464 0.5 L 317.53328959640464 3.5 L 324.53328959640464 0 L 317.53328959640464 -3.5 L 317.53328959640464 -0.5 L 200.05570729820232 -0.5 Z"/><text text-anchor="middle" pointer-events="none" font-size="8px" fill="#000000" x="171.26664479820232" y="3" transform="rotate(180 171.26664479820232 0)" font-family="sans-serif">subPropertyOf</text></g><g class="relationship" transform="translate(69.35635200280555 235.17015566714343) rotate(288.51949792151424)"><path class="outline" fill="#A5ABB6" stroke="none" d="M 25 0.5 L 85.83178984704006 0.5 L 85.83178984704006 -0.5 L 25 -0.5 Z M 112.29272734704006 0.5 L 173.1245171940801 0.5 L 173.1245171940801 3.5 L 180.1245171940801 0 L 173.1245171940801 -3.5 L 173.1245171940801 -0.5 L 112.29272734704006 -0.5 Z"/><text text-anchor="middle" pointer-events="none" font-size="8px" fill="#000000" x="99.06225859704006" y="3" font-family="sans-serif">range</text></g><g class="relationship" transform="translate(-159.56888866498343 21.264650385868123) rotate(363.8563212358022)"><path class="outline" fill="#A5ABB6" stroke="none" d="M 25 0.5 L 97.78312013167508 0.5 L 97.78312013167508 -0.5 L 25 -0.5 Z M 130.02140138167508 0.5 L 202.80452151335015 0.5 L 202.80452151335015 3.5 L 209.80452151335015 0 L 202.80452151335015 -3.5 L 202.80452151335015 -0.5 L 130.02140138167508 -0.5 Z"/><text text-anchor="middle" pointer-events="none" font-size="8px" fill="#000000" x="113.90226075667508" y="3" font-family="sans-serif">domain</text></g><g class="relationship" transform="translate(318.0070945145469 286.20948315503847) rotate(514.4388232625831)"><path class="outline" fill="#A5ABB6" stroke="none" d="M 25 0.5 L 90.09049588147423 0.5 L 90.09049588147423 -0.5 L 25 -0.5 Z M 122.32877713147423 0.5 L 187.41927301294845 0.5 L 187.41927301294845 3.5 L 194.41927301294845 0 L 187.41927301294845 -3.5 L 187.41927301294845 -0.5 L 122.32877713147423 -0.5 Z"/><text text-anchor="middle" pointer-events="none" font-size="8px" fill="#000000" x="106.20963650647423" y="3" transform="rotate(180 106.20963650647423 0)" font-family="sans-serif">domain</text></g><g class="relationship" transform="translate(-393.752879146035 246.3039373692629) rotate(265.40521248308704)"><path class="outline" fill="#A5ABB6" stroke="none" d="M 25 0.5 L 26.415966212152206 0.5 L 26.415966212152206 -0.5 L 25 -0.5 Z M 83.9940912121522 0.5 L 85.41005742430441 0.5 L 85.41005742430441 3.5 L 92.41005742430441 0 L 85.41005742430441 -3.5 L 85.41005742430441 -0.5 L 83.9940912121522 -0.5 Z"/><text text-anchor="middle" pointer-events="none" font-size="8px" fill="#000000" x="55.205028712152206" y="3" transform="rotate(180 55.205028712152206 0)" font-family="sans-serif">subPropertyOf</text></g><g class="relationship" transform="translate(-248.11020455616156 -39.61709074101645) rotate(492.5535377234781)"><path class="outline" fill="#A5ABB6" stroke="none" d="M 25 0.5 L 82.34426672190541 0.5 L 82.34426672190541 -0.5 L 25 -0.5 Z M 139.9223917219054 0.5 L 197.26665844381083 0.5 L 197.26665844381083 3.5 L 204.26665844381083 0 L 197.26665844381083 -3.5 L 197.26665844381083 -0.5 L 139.9223917219054 -0.5 Z"/><text text-anchor="middle" pointer-events="none" font-size="8px" fill="#000000" x="111.13332922190541" y="3" transform="rotate(180 111.13332922190541 0)" font-family="sans-serif">subPropertyOf</text></g><g class="relationship" transform="translate(-140.63084359219874 222.21868119622835) rotate(379.0754052022768)"><path class="outline" fill="#A5ABB6" stroke="none" d="M 25 0.5 L 103.03256621438372 0.5 L 103.03256621438372 -0.5 L 25 -0.5 Z M 135.27084746438373 0.5 L 213.30341367876744 0.5 L 213.30341367876744 3.5 L 220.30341367876744 0 L 213.30341367876744 -3.5 L 213.30341367876744 -0.5 L 135.27084746438373 -0.5 Z"/><text text-anchor="middle" pointer-events="none" font-size="8px" fill="#000000" x="119.15170683938372" y="3" font-family="sans-serif">domain</text></g><g class="relationship" transform="translate(-272.7070672281606 -94.21396082082703) rotate(367.0335315566297)"><path class="outline" fill="#A5ABB6" stroke="none" d="M 25 0.5 L 74.65117649905199 0.5 L 74.65117649905199 -0.5 L 25 -0.5 Z M 106.88945774905199 0.5 L 156.54063424810397 0.5 L 156.54063424810397 3.5 L 163.54063424810397 0 L 156.54063424810397 -3.5 L 156.54063424810397 -0.5 L 106.88945774905199 -0.5 Z"/><text text-anchor="middle" pointer-events="none" font-size="8px" fill="#000000" x="90.77031712405199" y="3" font-family="sans-serif">domain</text></g><g class="relationship" transform="translate(-223.6584935745284 15.06615585099358) rotate(507.5338399426718)"><path class="outline" fill="#A5ABB6" stroke="none" d="M 25 0.5 L 74.08646267617738 0.5 L 74.08646267617738 -0.5 L 25 -0.5 Z M 131.66458767617738 0.5 L 180.75105035235475 0.5 L 180.75105035235475 3.5 L 187.75105035235475 0 L 180.75105035235475 -3.5 L 180.75105035235475 -0.5 L 131.66458767617738 -0.5 Z"/><text text-anchor="middle" pointer-events="none" font-size="8px" fill="#000000" x="102.87552517617738" y="3" transform="rotate(180 102.87552517617738 0)" font-family="sans-serif">subPropertyOf</text></g><g class="relationship" transform="translate(243.28308961252722 220.24188303103588) rotate(511.6246560336917)"><path class="outline" fill="#A5ABB6" stroke="none" d="M 25 0.5 L 66.8045438997476 0.5 L 66.8045438997476 -0.5 L 25 -0.5 Z M 99.0428251497476 0.5 L 140.8473690494952 0.5 L 140.8473690494952 3.5 L 147.8473690494952 0 L 140.8473690494952 -3.5 L 140.8473690494952 -0.5 L 99.0428251497476 -0.5 Z"/><text text-anchor="middle" pointer-events="none" font-size="8px" fill="#000000" x="82.9236845247476" y="3" transform="rotate(180 82.9236845247476 0)" font-family="sans-serif">domain</text></g><g class="relationship" transform="translate(153.37136110994751 190.35584112729973) rotate(301.030687869172)"><path class="outline" fill="#A5ABB6" stroke="none" d="M 25 0.5 L 47.81378562956611 0.5 L 47.81378562956611 -0.5 L 25 -0.5 Z M 80.05206687956611 0.5 L 102.86585250913222 0.5 L 102.86585250913222 3.5 L 109.86585250913222 0 L 102.86585250913222 -3.5 L 102.86585250913222 -0.5 L 80.05206687956611 -0.5 Z"/><text text-anchor="middle" pointer-events="none" font-size="8px" fill="#000000" x="63.93292625456611" y="3" font-family="sans-serif">domain</text></g><g class="relationship" transform="translate(-86.95721718528688 258.8589660839698) rotate(390.5164051559366)"><path class="outline" fill="#A5ABB6" stroke="none" d="M 25 0.5 L 100.53441154005029 0.5 L 100.53441154005029 -0.5 L 25 -0.5 Z M 132.7726927900503 0.5 L 208.30710433010057 0.5 L 208.30710433010057 3.5 L 215.30710433010057 0 L 208.30710433010057 -3.5 L 208.30710433010057 -0.5 L 132.7726927900503 -0.5 Z"/><text text-anchor="middle" pointer-events="none" font-size="8px" fill="#000000" x="116.65355216505029" y="3" font-family="sans-serif">domain</text></g><g class="relationship" transform="translate(150.41919794768248 -48.811614320505306) rotate(185.40156856342202)"><path class="outline" fill="#A5ABB6" stroke="none" d="M 25 0.5 L 101.79810237604448 0.5 L 101.79810237604448 -0.5 L 25 -0.5 Z M 128.25903987604448 0.5 L 205.05714225208897 0.5 L 205.05714225208897 3.5 L 212.05714225208897 0 L 205.05714225208897 -3.5 L 205.05714225208897 -0.5 L 128.25903987604448 -0.5 Z"/><text text-anchor="middle" pointer-events="none" font-size="8px" fill="#000000" x="115.02857112604448" y="3" transform="rotate(180 115.02857112604448 0)" font-family="sans-serif">range</text></g><g class="relationship" transform="translate(69.35635200280555 235.17015566714343) rotate(517.1958913805195)"><path class="outline" fill="#A5ABB6" stroke="none" d="M 25 0.5 L 157.03807544957408 0.5 L 157.03807544957408 -0.5 L 25 -0.5 Z M 189.27635669957408 0.5 L 321.31443214914816 0.5 L 321.31443214914816 3.5 L 328.31443214914816 0 L 321.31443214914816 -3.5 L 321.31443214914816 -0.5 L 189.27635669957408 -0.5 Z"/><text text-anchor="middle" pointer-events="none" font-size="8px" fill="#000000" x="173.15721607457408" y="3" transform="rotate(180 173.15721607457408 0)" font-family="sans-serif">domain</text></g><g class="relationship" transform="translate(-176.28015227955513 78.77082670140108) rotate(527.4512188377105)"><path class="outline" fill="#A5ABB6" stroke="none" d="M 25 0.5 L 83.92628197486006 0.5 L 83.92628197486006 -0.5 L 25 -0.5 Z M 141.50440697486005 0.5 L 200.43068894972012 0.5 L 200.43068894972012 3.5 L 207.43068894972012 0 L 200.43068894972012 -3.5 L 200.43068894972012 -0.5 L 141.50440697486005 -0.5 Z"/><text text-anchor="middle" pointer-events="none" font-size="8px" fill="#000000" x="112.71534447486006" y="3" transform="rotate(180 112.71534447486006 0)" font-family="sans-serif">subPropertyOf</text></g><g class="relationship" transform="translate(-368.48646581195686 346.96054828075916) rotate(372.6391245986309)"><path class="outline" fill="#A5ABB6" stroke="none" d="M 25 0.5 L 37.84591748026541 0.5 L 37.84591748026541 -0.5 L 25 -0.5 Z M 70.08419873026541 0.5 L 82.93011621053083 0.5 L 82.93011621053083 3.5 L 89.93011621053083 0 L 82.93011621053083 -3.5 L 82.93011621053083 -0.5 L 70.08419873026541 -0.5 Z"/><text text-anchor="middle" pointer-events="none" font-size="8px" fill="#000000" x="53.96505810526541" y="3" font-family="sans-serif">domain</text></g><g class="relationship" transform="translate(-187.52203215036906 174.73724974041775) rotate(363.62194920870485)"><path class="outline" fill="#A5ABB6" stroke="none" d="M 25 0.5 L 90.15824665561077 0.5 L 90.15824665561077 -0.5 L 25 -0.5 Z M 122.39652790561077 0.5 L 187.55477456122154 0.5 L 187.55477456122154 3.5 L 194.55477456122154 0 L 187.55477456122154 -3.5 L 187.55477456122154 -0.5 L 122.39652790561077 -0.5 Z"/><text text-anchor="middle" pointer-events="none" font-size="8px" fill="#000000" x="106.27738728061077" y="3" font-family="sans-serif">domain</text></g><g class="relationship" transform="translate(205.26355694643547 160.3649212518545) rotate(321.1012722205191)"><path class="outline" fill="#A5ABB6" stroke="none" d="M 25 0.5 L 25.453413632109815 0.5 L 25.453413632109815 -0.5 L 25 -0.5 Z M 57.687788632109815 0.5 L 58.14120226421963 0.5 L 58.14120226421963 3.5 L 65.14120226421963 0 L 58.14120226421963 -3.5 L 58.14120226421963 -0.5 L 57.687788632109815 -0.5 Z"/><text text-anchor="middle" pointer-events="none" font-size="8px" fill="#000000" x="41.570601132109815" y="3" font-family="sans-serif">subP…</text></g><g class="relationship" transform="translate(153.37136110994751 190.35584112729973) rotate(242.8348601775209)"><path class="outline" fill="#A5ABB6" stroke="none" d="M 25 0.5 L 66.53375501927226 0.5 L 66.53375501927226 -0.5 L 25 -0.5 Z M 98.77203626927226 0.5 L 140.30579128854453 0.5 L 140.30579128854453 3.5 L 147.30579128854453 0 L 140.30579128854453 -3.5 L 140.30579128854453 -0.5 L 98.77203626927226 -0.5 Z"/><text text-anchor="middle" pointer-events="none" font-size="8px" fill="#000000" x="82.65289564427226" y="3" transform="rotate(180 82.65289564427226 0)" font-family="sans-serif">domain</text></g><g class="relationship" transform="translate(-411.2088556102698 -124.279317232488) rotate(331.2534590565292)"><path class="outline" fill="#A5ABB6" stroke="none" d="M 25 0.5 L 65.40021205657929 0.5 L 65.40021205657929 -0.5 L 25 -0.5 Z M 97.63849330657929 0.5 L 138.03870536315858 0.5 L 138.03870536315858 3.5 L 145.03870536315858 0 L 138.03870536315858 -3.5 L 138.03870536315858 -0.5 L 97.63849330657929 -0.5 Z"/><text text-anchor="middle" pointer-events="none" font-size="8px" fill="#000000" x="81.51935268157929" y="3" font-family="sans-serif">domain</text></g><g class="relationship" transform="translate(-210.19197529396328 237.74205836072278) rotate(392.3868933795104)"><path class="outline" fill="#A5ABB6" stroke="none" d="M 25 0.5 L 89.71368446243454 0.5 L 89.71368446243454 -0.5 L 25 -0.5 Z M 121.95196571243454 0.5 L 186.66565017486909 0.5 L 186.66565017486909 3.5 L 193.66565017486909 0 L 186.66565017486909 -3.5 L 186.66565017486909 -0.5 L 121.95196571243454 -0.5 Z"/><text text-anchor="middle" pointer-events="none" font-size="8px" fill="#000000" x="105.83282508743454" y="3" font-family="sans-serif">domain</text></g><g class="relationship" transform="translate(-307.71171595440126 -45.82093992311077) rotate(353.5004912028269)"><path class="outline" fill="#A5ABB6" stroke="none" d="M 25 0.5 L 92.16252480905507 0.5 L 92.16252480905507 -0.5 L 25 -0.5 Z M 124.40080605905507 0.5 L 191.56333086811014 0.5 L 191.56333086811014 3.5 L 198.56333086811014 0 L 191.56333086811014 -3.5 L 191.56333086811014 -0.5 L 124.40080605905507 -0.5 Z"/><text text-anchor="middle" pointer-events="none" font-size="8px" fill="#000000" x="108.28166543405507" y="3" font-family="sans-serif">domain</text></g><g class="relationship" transform="translate(243.28308961252722 220.24188303103588) rotate(188.49936927139714)"><path class="outline" fill="#A5ABB6" stroke="none" d="M 25 0.5 L 90.28931994455967 0.5 L 90.28931994455967 -0.5 L 25 -0.5 Z M 116.75025744455967 0.5 L 182.03957738911933 0.5 L 182.03957738911933 3.5 L 189.03957738911933 0 L 182.03957738911933 -3.5 L 182.03957738911933 -0.5 L 116.75025744455967 -0.5 Z"/><text text-anchor="middle" pointer-events="none" font-size="8px" fill="#000000" x="103.51978869455967" y="3" transform="rotate(180 103.51978869455967 0)" font-family="sans-serif">range</text></g><g class="relationship" transform="translate(150.41919794768248 -48.811614320505306) rotate(491.40465502345864)"><path class="outline" fill="#A5ABB6" stroke="none" d="M 25 0.5 L 37.6217978322394 0.5 L 37.6217978322394 -0.5 L 25 -0.5 Z M 69.8600790822394 0.5 L 82.4818769144788 0.5 L 82.4818769144788 3.5 L 89.4818769144788 0 L 82.4818769144788 -3.5 L 82.4818769144788 -0.5 L 69.8600790822394 -0.5 Z"/><text text-anchor="middle" pointer-events="none" font-size="8px" fill="#000000" x="53.7409384572394" y="3" transform="rotate(180 53.7409384572394 0)" font-family="sans-serif">domain</text></g><g class="relationship" transform="translate(-199.86705146966852 352.2756998864495) rotate(360.8515271570757)"><path class="outline" fill="#A5ABB6" stroke="none" d="M 25 0.5 L 67.55418076559613 0.5 L 67.55418076559613 -0.5 L 25 -0.5 Z M 99.79246201559613 0.5 L 142.34664278119226 0.5 L 142.34664278119226 3.5 L 149.34664278119226 0 L 142.34664278119226 -3.5 L 142.34664278119226 -0.5 L 99.79246201559613 -0.5 Z"/><text text-anchor="middle" pointer-events="none" font-size="8px" fill="#000000" x="83.67332139059613" y="3" font-family="sans-serif">domain</text></g><g class="relationship" transform="translate(258.19664432708583 -9.466400557371195) rotate(525.7730105086079)"><path class="outline" fill="#A5ABB6" stroke="none" d="M 25 0.5 L 75.03010445321627 0.5 L 75.03010445321627 -0.5 L 25 -0.5 Z M 107.26838570321627 0.5 L 157.29849015643254 0.5 L 157.29849015643254 3.5 L 164.29849015643254 0 L 157.29849015643254 -3.5 L 157.29849015643254 -0.5 L 107.26838570321627 -0.5 Z"/><text text-anchor="middle" pointer-events="none" font-size="8px" fill="#000000" x="91.14924507821627" y="3" transform="rotate(180 91.14924507821627 0)" font-family="sans-serif">domain</text></g><g class="relationship" transform="translate(70.42761891780479 -91.92214736487408) rotate(403.6695341754324)"><path class="outline" fill="#A5ABB6" stroke="none" d="M 25 0.5 L 109.40817068902669 0.5 L 109.40817068902669 -0.5 L 25 -0.5 Z M 166.9862956890267 0.5 L 251.39446637805338 0.5 L 251.39446637805338 3.5 L 258.3944663780534 0 L 251.39446637805338 -3.5 L 251.39446637805338 -0.5 L 166.9862956890267 -0.5 Z"/><text text-anchor="middle" pointer-events="none" font-size="8px" fill="#000000" x="138.1972331890267" y="3" font-family="sans-serif">subPropertyOf</text></g><g class="relationship" transform="translate(-111.23547100657048 -14.333262916426026) rotate(372.6156842105487)"><path class="outline" fill="#A5ABB6" stroke="none" d="M 25 0.5 L 106.29325138124494 0.5 L 106.29325138124494 -0.5 L 25 -0.5 Z M 138.53153263124494 0.5 L 219.82478401248989 0.5 L 219.82478401248989 3.5 L 226.82478401248989 0 L 219.82478401248989 -3.5 L 219.82478401248989 -0.5 L 138.53153263124494 -0.5 Z"/><text text-anchor="middle" pointer-events="none" font-size="8px" fill="#000000" x="122.41239200624494" y="3" font-family="sans-serif">domain</text></g><g class="relationship" transform="translate(243.28308961252722 220.24188303103588) rotate(262.0205097362728)"><path class="outline" fill="#A5ABB6" stroke="none" d="M 25 0.5 L 53.81759700872982 0.5 L 53.81759700872982 -0.5 L 25 -0.5 Z M 86.05587825872982 0.5 L 114.87347526745964 0.5 L 114.87347526745964 3.5 L 121.87347526745964 0 L 114.87347526745964 -3.5 L 114.87347526745964 -0.5 L 86.05587825872982 -0.5 Z"/><text text-anchor="middle" pointer-events="none" font-size="8px" fill="#000000" x="69.93673763372982" y="3" transform="rotate(180 69.93673763372982 0)" font-family="sans-serif">domain</text></g></g><g class="layer nodes"><g class="node" transform="translate(70.42761891780479,-91.92214736487408)"><circle class="outline" cx="0" cy="0" r="25" fill="#57C7E3" stroke="#23b3d7" stroke-width="2px"/><text text-anchor="middle" pointer-events="none" font-family="sans-serif" dy="1.5625" font-size="25" fill="#2A2C34"/><text text-anchor="middle" pointer-events="none" x="0" y="5" font-size="10px" fill="#2A2C34" font-family="sans-serif"> optimizes</text></g><g class="node" transform="translate(-393.752879146035,246.3039373692629)"><circle class="outline" cx="0" cy="0" r="25" fill="#D9C8AE" stroke="#c0a378" stroke-width="2px"/><text text-anchor="middle" pointer-events="none" font-family="sans-serif" dy="1.5625" font-size="25" fill="#2A2C34"/><text text-anchor="middle" pointer-events="none" x="0" y="5" font-size="10px" fill="#2A2C34" font-family="sans-serif"> dataset…</text></g><g class="node" transform="translate(134.5095099150173,40.6678842969333)"><circle class="outline" cx="0" cy="0" r="25" fill="#F79767" stroke="#f36924" stroke-width="2px"/><text text-anchor="middle" pointer-events="none" font-family="sans-serif" dy="1.5625" font-size="25" fill="#FFFFFF"/><text text-anchor="middle" pointer-events="none" x="0" y="5" font-size="10px" fill="#FFFFFF" font-family="sans-serif"> Dataset…</text></g><g class="node" transform="translate(243.28308961252722,220.24188303103588)"><circle class="outline" cx="0" cy="0" r="25" fill="#57C7E3" stroke="#23b3d7" stroke-width="2px"/><text text-anchor="middle" pointer-events="none" font-family="sans-serif" dy="1.5625" font-size="25" fill="#2A2C34"/><text text-anchor="middle" pointer-events="none" x="0" y="5" font-size="10px" fill="#2A2C34" font-family="sans-serif"> builtBy</text></g><g class="node" transform="translate(31.59420393023447,188.6071494696166)"><circle class="outline" cx="0" cy="0" r="25" fill="#F79767" stroke="#f36924" stroke-width="2px"/><text text-anchor="middle" pointer-events="none" font-family="sans-serif" dy="1.5625" font-size="25" fill="#FFFFFF"/><text text-anchor="middle" pointer-events="none" x="0" y="5" font-size="10px" fill="#FFFFFF" font-family="sans-serif"> Framew…</text></g><g class="node" transform="translate(-277.8663190166,316.3518592656254)"><circle class="outline" cx="0" cy="0" r="25" fill="#D9C8AE" stroke="#c0a378" stroke-width="2px"/><text text-anchor="middle" pointer-events="none" font-family="sans-serif" dy="1.5625" font-size="25" fill="#2A2C34"/><text text-anchor="middle" pointer-events="none" x="0" y="5" font-size="10px" fill="#2A2C34" font-family="sans-serif"> taskName</text></g><g class="node" transform="translate(74.70399774461268,37.05635759027721)"><circle class="outline" cx="0" cy="0" r="25" fill="#F79767" stroke="#f36924" stroke-width="2px"/><text text-anchor="middle" pointer-events="none" font-family="sans-serif" dy="1.5625" font-size="25" fill="#FFFFFF"/><text text-anchor="middle" pointer-events="none" x="0" y="5" font-size="10px" fill="#FFFFFF" font-family="sans-serif"> Model</text></g><g class="node" transform="translate(-223.6584935745284,15.06615585099358)"><circle class="outline" cx="0" cy="0" r="25" fill="#D9C8AE" stroke="#c0a378" stroke-width="2px"/><text text-anchor="middle" pointer-events="none" font-family="sans-serif" dy="1.5625" font-size="25" fill="#2A2C34"/><text text-anchor="middle" pointer-events="none" x="0" y="5" font-size="10px" fill="#2A2C34" font-family="sans-serif"> optimalE…</text></g><g class="node" transform="translate(414.05601737306154,139.29177696691133)"><circle class="outline" cx="0" cy="0" r="25" fill="#A5ABB6" stroke="#9AA1AC" stroke-width="2px"/><text text-anchor="middle" pointer-events="none" font-family="sans-serif" dy="1.5625" font-size="25" fill="#FFFFFF"/><text text-anchor="middle" pointer-events="none" x="0" y="5" font-size="10px" fill="#FFFFFF" font-family="sans-serif"> -780</text></g><g class="node" transform="translate(-176.28015227955513,78.77082670140108)"><circle class="outline" cx="0" cy="0" r="25" fill="#D9C8AE" stroke="#c0a378" stroke-width="2px"/><text text-anchor="middle" pointer-events="none" font-family="sans-serif" dy="1.5625" font-size="25" fill="#2A2C34"/><text text-anchor="middle" pointer-events="none" x="0" y="5" font-size="10px" fill="#2A2C34" font-family="sans-serif"> modelM…</text></g><g class="node" transform="translate(-188.53630171136987,-51.91734041236927)"><circle class="outline" cx="0" cy="0" r="25" fill="#D9C8AE" stroke="#c0a378" stroke-width="2px"/><text text-anchor="middle" pointer-events="none" font-family="sans-serif" dy="1.5625" font-size="25" fill="#2A2C34"/><text text-anchor="middle" pointer-events="none" x="0" y="5" font-size="10px" fill="#2A2C34" font-family="sans-serif"> trainingT…</text></g><g class="node" transform="translate(275.41658688097823,103.7611339523981)"><circle class="outline" cx="0" cy="0" r="25" fill="#A5ABB6" stroke="#9AA1AC" stroke-width="2px"/><text text-anchor="middle" pointer-events="none" font-family="sans-serif" dy="1.5625" font-size="25" fill="#FFFFFF"/><text text-anchor="middle" pointer-events="none" x="0" y="5" font-size="10px" fill="#FFFFFF" font-family="sans-serif"> -783</text></g><g class="node" transform="translate(-210.19197529396328,237.74205836072278)"><circle class="outline" cx="0" cy="0" r="25" fill="#D9C8AE" stroke="#c0a378" stroke-width="2px"/><text text-anchor="middle" pointer-events="none" font-family="sans-serif" dy="1.5625" font-size="25" fill="#2A2C34"/><text text-anchor="middle" pointer-events="none" x="0" y="5" font-size="10px" fill="#2A2C34" font-family="sans-serif"> taskArea</text></g><g class="node" transform="translate(-256.34138506409903,372.10836083419144)"><circle class="outline" cx="0" cy="0" r="25" fill="#F79767" stroke="#f36924" stroke-width="2px"/><text text-anchor="middle" pointer-events="none" font-family="sans-serif" dy="1.5625" font-size="25" fill="#FFFFFF"/><text text-anchor="middle" pointer-events="none" x="0" y="5" font-size="10px" fill="#FFFFFF" font-family="sans-serif"> Dataset</text></g><g class="node" transform="translate(-258.80114408375425,63.527680599881855)"><circle class="outline" cx="0" cy="0" r="25" fill="#D9C8AE" stroke="#c0a378" stroke-width="2px"/><text text-anchor="middle" pointer-events="none" font-family="sans-serif" dy="1.5625" font-size="25" fill="#2A2C34"/><text text-anchor="middle" pointer-events="none" x="0" y="5" font-size="10px" fill="#2A2C34" font-family="sans-serif"> optimalL…</text></g><g class="node" transform="translate(258.19664432708583,-9.466400557371195)"><circle class="outline" cx="0" cy="0" r="25" fill="#57C7E3" stroke="#23b3d7" stroke-width="2px"/><text text-anchor="middle" pointer-events="none" font-family="sans-serif" dy="1.5625" font-size="25" fill="#2A2C34"/><text text-anchor="middle" pointer-events="none" x="0" y="5" font-size="10px" fill="#2A2C34" font-family="sans-serif"> takesInput</text></g><g class="node" transform="translate(423.91600955175977,20.64419480778045)"><circle class="outline" cx="0" cy="0" r="25" fill="#FFC454" stroke="#d7a013" stroke-width="2px"/><text text-anchor="middle" pointer-events="none" font-family="sans-serif" dy="1.5625" font-size="25" fill="#2A2C34"/><text text-anchor="middle" pointer-events="none" x="0" y="5" font-size="10px" fill="#2A2C34" font-family="sans-serif"> http://w…</text></g><g class="node" transform="translate(11.721529977600884,-160.68635049090827)"><circle class="outline" cx="0" cy="0" r="25" fill="#F79767" stroke="#f36924" stroke-width="2px"/><text text-anchor="middle" pointer-events="none" font-family="sans-serif" dy="1.5625" font-size="25" fill="#FFFFFF"/><text text-anchor="middle" pointer-events="none" x="0" y="5" font-size="10px" fill="#FFFFFF" font-family="sans-serif"> Time</text></g><g class="node" transform="translate(-213.82766537246854,-106.19524856948351)"><circle class="outline" cx="0" cy="0" r="25" fill="#D9C8AE" stroke="#c0a378" stroke-width="2px"/><text text-anchor="middle" pointer-events="none" font-family="sans-serif" dy="1.5625" font-size="25" fill="#2A2C34"/><text text-anchor="middle" pointer-events="none" x="0" y="5" font-size="10px" fill="#2A2C34" font-family="sans-serif"> inferenc…</text></g><g class="node" transform="translate(-248.11020455616156,-39.61709074101645)"><circle class="outline" cx="0" cy="0" r="25" fill="#D9C8AE" stroke="#c0a378" stroke-width="2px"/><text text-anchor="middle" pointer-events="none" font-family="sans-serif" dy="1.5625" font-size="25" fill="#2A2C34"/><text text-anchor="middle" pointer-events="none" x="0" y="5" font-size="10px" fill="#2A2C34" font-family="sans-serif"> normaliz…</text></g><g class="node" transform="translate(-436.66317157037116,-23.839529908039022)"><circle class="outline" cx="0" cy="0" r="25" fill="#D9C8AE" stroke="#c0a378" stroke-width="2px"/><text text-anchor="middle" pointer-events="none" font-family="sans-serif" dy="1.5625" font-size="25" fill="#2A2C34"/><text text-anchor="middle" pointer-events="none" x="0" y="5" font-size="10px" fill="#2A2C34" font-family="sans-serif"> optimize…</text></g><g class="node" transform="translate(-262.126435763191,-206.05702455005954)"><circle class="outline" cx="0" cy="0" r="25" fill="#F79767" stroke="#f36924" stroke-width="2px"/><text text-anchor="middle" pointer-events="none" font-family="sans-serif" dy="1.5625" font-size="25" fill="#FFFFFF"/><text text-anchor="middle" pointer-events="none" x="0" y="5" font-size="10px" fill="#FFFFFF" font-family="sans-serif"> Optimizer</text></g><g class="node" transform="translate(242.16507635523317,-75.22643675581867)"><circle class="outline" cx="0" cy="0" r="25" fill="#57C7E3" stroke="#23b3d7" stroke-width="2px"/><text text-anchor="middle" pointer-events="none" font-family="sans-serif" dy="1.5625" font-size="25" fill="#2A2C34"/><text text-anchor="middle" pointer-events="none" x="0" y="5" font-size="10px" fill="#2A2C34" font-family="sans-serif"> complet…</text></g><g class="node" transform="translate(205.26355694643547,160.3649212518545)"><circle class="outline" cx="0" cy="0" r="25" fill="#57C7E3" stroke="#23b3d7" stroke-width="2px"/><text text-anchor="middle" pointer-events="none" font-family="sans-serif" dy="1.5625" font-size="25" fill="#2A2C34"/><text text-anchor="middle" pointer-events="none" x="0" y="5" font-size="10px" fill="#2A2C34" font-family="sans-serif"> deploys</text></g><g class="node" transform="translate(-353.19164603676745,-109.49015830922667)"><circle class="outline" cx="0" cy="0" r="25" fill="#D9C8AE" stroke="#c0a378" stroke-width="2px"/><text text-anchor="middle" pointer-events="none" font-family="sans-serif" dy="1.5625" font-size="25" fill="#2A2C34"/><text text-anchor="middle" pointer-events="none" x="0" y="5" font-size="10px" fill="#2A2C34" font-family="sans-serif"> LRSche…</text></g><g class="node" transform="translate(318.0070945145469,286.20948315503847)"><circle class="outline" cx="0" cy="0" r="25" fill="#57C7E3" stroke="#23b3d7" stroke-width="2px"/><text text-anchor="middle" pointer-events="none" font-family="sans-serif" dy="1.5625" font-size="25" fill="#2A2C34"/><text text-anchor="middle" pointer-events="none" x="0" y="5" font-size="10px" fill="#2A2C34" font-family="sans-serif"> produced</text></g><g class="node" transform="translate(-452.9946539481693,-81.40017592320837)"><circle class="outline" cx="0" cy="0" r="25" fill="#D9C8AE" stroke="#c0a378" stroke-width="2px"/><text text-anchor="middle" pointer-events="none" font-family="sans-serif" dy="1.5625" font-size="25" fill="#2A2C34"/><text text-anchor="middle" pointer-events="none" x="0" y="5" font-size="10px" fill="#2A2C34" font-family="sans-serif"> LRDecay</text></g><g class="node" transform="translate(-107.17265973661802,315.19046330114224)"><circle class="outline" cx="0" cy="0" r="25" fill="#D9C8AE" stroke="#c0a378" stroke-width="2px"/><text text-anchor="middle" pointer-events="none" font-family="sans-serif" dy="1.5625" font-size="25" fill="#2A2C34"/><text text-anchor="middle" pointer-events="none" x="0" y="5" font-size="10px" fill="#2A2C34" font-family="sans-serif"> evalMetr…</text></g><g class="node" transform="translate(-86.95721718528688,258.8589660839698)"><circle class="outline" cx="0" cy="0" r="25" fill="#D9C8AE" stroke="#c0a378" stroke-width="2px"/><text text-anchor="middle" pointer-events="none" font-family="sans-serif" dy="1.5625" font-size="25" fill="#2A2C34"/><text text-anchor="middle" pointer-events="none" x="0" y="5" font-size="10px" fill="#2A2C34" font-family="sans-serif"> evalMetr…</text></g><g class="node" transform="translate(150.41919794768248,-48.811614320505306)"><circle class="outline" cx="0" cy="0" r="25" fill="#57C7E3" stroke="#23b3d7" stroke-width="2px"/><text text-anchor="middle" pointer-events="none" font-family="sans-serif" dy="1.5625" font-size="25" fill="#2A2C34"/><text text-anchor="middle" pointer-events="none" x="0" y="5" font-size="10px" fill="#2A2C34" font-family="sans-serif"> has</text></g><g class="node" transform="translate(-221.57797655378087,296.65308092011367)"><circle class="outline" cx="0" cy="0" r="25" fill="#D9C8AE" stroke="#c0a378" stroke-width="2px"/><text text-anchor="middle" pointer-events="none" font-family="sans-serif" dy="1.5625" font-size="25" fill="#2A2C34"/><text text-anchor="middle" pointer-events="none" x="0" y="5" font-size="10px" fill="#2A2C34" font-family="sans-serif"> taskCat…</text></g><g class="node" transform="translate(-352.00622772489487,289.43927140133366)"><circle class="outline" cx="0" cy="0" r="25" fill="#D9C8AE" stroke="#c0a378" stroke-width="2px"/><text text-anchor="middle" pointer-events="none" font-family="sans-serif" dy="1.5625" font-size="25" fill="#2A2C34"/><text text-anchor="middle" pointer-events="none" x="0" y="5" font-size="10px" fill="#2A2C34" font-family="sans-serif"> numOfC…</text></g><g class="node" transform="translate(-451.8013639210764,260.47711267474915)"><circle class="outline" cx="0" cy="0" r="25" fill="#D9C8AE" stroke="#c0a378" stroke-width="2px"/><text text-anchor="middle" pointer-events="none" font-family="sans-serif" dy="1.5625" font-size="25" fill="#2A2C34"/><text text-anchor="middle" pointer-events="none" x="0" y="5" font-size="10px" fill="#2A2C34" font-family="sans-serif"> dataset…</text></g><g class="node" transform="translate(-85.58526548176417,-71.12712314522452)"><circle class="outline" cx="0" cy="0" r="25" fill="#F79767" stroke="#f36924" stroke-width="2px"/><text text-anchor="middle" pointer-events="none" font-family="sans-serif" dy="1.5625" font-size="25" fill="#FFFFFF"/><text text-anchor="middle" pointer-events="none" x="0" y="5" font-size="10px" fill="#FFFFFF" font-family="sans-serif"> Hyperpa…</text></g><g class="node" transform="translate(-199.86705146966852,352.2756998864495)"><circle class="outline" cx="0" cy="0" r="25" fill="#D9C8AE" stroke="#c0a378" stroke-width="2px"/><text text-anchor="middle" pointer-events="none" font-family="sans-serif" dy="1.5625" font-size="25" fill="#2A2C34"/><text text-anchor="middle" pointer-events="none" x="0" y="5" font-size="10px" fill="#2A2C34" font-family="sans-serif"> taskMod…</text></g><g class="node" transform="translate(-159.56888866498343,21.264650385868123)"><circle class="outline" cx="0" cy="0" r="25" fill="#D9C8AE" stroke="#c0a378" stroke-width="2px"/><text text-anchor="middle" pointer-events="none" font-family="sans-serif" dy="1.5625" font-size="25" fill="#2A2C34"/><text text-anchor="middle" pointer-events="none" x="0" y="5" font-size="10px" fill="#2A2C34" font-family="sans-serif"> modelCl…</text></g><g class="node" transform="translate(-411.2088556102698,-124.279317232488)"><circle class="outline" cx="0" cy="0" r="25" fill="#D9C8AE" stroke="#c0a378" stroke-width="2px"/><text text-anchor="middle" pointer-events="none" font-family="sans-serif" dy="1.5625" font-size="25" fill="#2A2C34"/><text text-anchor="middle" pointer-events="none" x="0" y="5" font-size="10px" fill="#2A2C34" font-family="sans-serif"> LR</text></g><g class="node" transform="translate(-266.6757693859332,257.4114524295235)"><circle class="outline" cx="0" cy="0" r="25" fill="#D9C8AE" stroke="#c0a378" stroke-width="2px"/><text text-anchor="middle" pointer-events="none" font-family="sans-serif" dy="1.5625" font-size="25" fill="#2A2C34"/><text text-anchor="middle" pointer-events="none" x="0" y="5" font-size="10px" fill="#2A2C34" font-family="sans-serif"> taskPar…</text></g><g class="node" transform="translate(-394.928704508776,-66.70674465699882)"><circle class="outline" cx="0" cy="0" r="25" fill="#D9C8AE" stroke="#c0a378" stroke-width="2px"/><text text-anchor="middle" pointer-events="none" font-family="sans-serif" dy="1.5625" font-size="25" fill="#2A2C34"/><text text-anchor="middle" pointer-events="none" x="0" y="5" font-size="10px" fill="#2A2C34" font-family="sans-serif"> weightD…</text></g><g class="node" transform="translate(-426.51221169621573,361.3453958363726)"><circle class="outline" cx="0" cy="0" r="25" fill="#D9C8AE" stroke="#c0a378" stroke-width="2px"/><text text-anchor="middle" pointer-events="none" font-family="sans-serif" dy="1.5625" font-size="25" fill="#2A2C34"/><text text-anchor="middle" pointer-events="none" x="0" y="5" font-size="10px" fill="#2A2C34" font-family="sans-serif"> datasetID</text></g><g class="node" transform="translate(-272.7070672281606,-94.21396082082703)"><circle class="outline" cx="0" cy="0" r="25" fill="#D9C8AE" stroke="#c0a378" stroke-width="2px"/><text text-anchor="middle" pointer-events="none" font-family="sans-serif" dy="1.5625" font-size="25" fill="#2A2C34"/><text text-anchor="middle" pointer-events="none" x="0" y="5" font-size="10px" fill="#2A2C34" font-family="sans-serif"> lossFun…</text></g><g class="node" transform="translate(-283.05194780978377,8.795002809393825)"><circle class="outline" cx="0" cy="0" r="25" fill="#D9C8AE" stroke="#c0a378" stroke-width="2px"/><text text-anchor="middle" pointer-events="none" font-family="sans-serif" dy="1.5625" font-size="25" fill="#2A2C34"/><text text-anchor="middle" pointer-events="none" x="0" y="5" font-size="10px" fill="#2A2C34" font-family="sans-serif"> regulariz…</text></g><g class="node" transform="translate(69.35635200280555,235.17015566714343)"><circle class="outline" cx="0" cy="0" r="25" fill="#57C7E3" stroke="#23b3d7" stroke-width="2px"/><text text-anchor="middle" pointer-events="none" font-family="sans-serif" dy="1.5625" font-size="25" fill="#2A2C34"/><text text-anchor="middle" pointer-events="none" x="0" y="5" font-size="10px" fill="#2A2C34" font-family="sans-serif"> isInput</text></g><g class="node" transform="translate(-134.89827589527908,122.02095560617306)"><circle class="outline" cx="0" cy="0" r="25" fill="#D9C8AE" stroke="#c0a378" stroke-width="2px"/><text text-anchor="middle" pointer-events="none" font-family="sans-serif" dy="1.5625" font-size="25" fill="#2A2C34"/><text text-anchor="middle" pointer-events="none" x="0" y="5" font-size="10px" fill="#2A2C34" font-family="sans-serif"> architect…</text></g><g class="node" transform="translate(91.20278466985668,302.38683927228504)"><circle class="outline" cx="0" cy="0" r="25" fill="#F79767" stroke="#f36924" stroke-width="2px"/><text text-anchor="middle" pointer-events="none" font-family="sans-serif" dy="1.5625" font-size="25" fill="#FFFFFF"/><text text-anchor="middle" pointer-events="none" x="0" y="5" font-size="10px" fill="#FFFFFF" font-family="sans-serif"> Deploy…</text></g><g class="node" transform="translate(-111.23547100657048,-14.333262916426026)"><circle class="outline" cx="0" cy="0" r="25" fill="#D9C8AE" stroke="#c0a378" stroke-width="2px"/><text text-anchor="middle" pointer-events="none" font-family="sans-serif" dy="1.5625" font-size="25" fill="#2A2C34"/><text text-anchor="middle" pointer-events="none" x="0" y="5" font-size="10px" fill="#2A2C34" font-family="sans-serif"> dataPre…</text></g><g class="node" transform="translate(-118.22376411667473,64.50070922708737)"><circle class="outline" cx="0" cy="0" r="25" fill="#D9C8AE" stroke="#c0a378" stroke-width="2px"/><text text-anchor="middle" pointer-events="none" font-family="sans-serif" dy="1.5625" font-size="25" fill="#2A2C34"/><text text-anchor="middle" pointer-events="none" x="0" y="5" font-size="10px" fill="#2A2C34" font-family="sans-serif"> modelN…</text></g><g class="node" transform="translate(-165.0977190099392,277.1351545116946)"><circle class="outline" cx="0" cy="0" r="25" fill="#D9C8AE" stroke="#c0a378" stroke-width="2px"/><text text-anchor="middle" pointer-events="none" font-family="sans-serif" dy="1.5625" font-size="25" fill="#2A2C34"/><text text-anchor="middle" pointer-events="none" x="0" y="5" font-size="10px" fill="#2A2C34" font-family="sans-serif"> taskChil…</text></g><g class="node" transform="translate(-25.539662971039466,354.86673603454017)"><circle class="outline" cx="0" cy="0" r="25" fill="#F79767" stroke="#f36924" stroke-width="2px"/><text text-anchor="middle" pointer-events="none" font-family="sans-serif" dy="1.5625" font-size="25" fill="#FFFFFF"/><text text-anchor="middle" pointer-events="none" x="0" y="5" font-size="10px" fill="#FFFFFF" font-family="sans-serif"> Task</text></g><g class="node" transform="translate(-468.0434240189858,318.08428059087214)"><circle class="outline" cx="0" cy="0" r="25" fill="#D9C8AE" stroke="#c0a378" stroke-width="2px"/><text text-anchor="middle" pointer-events="none" font-family="sans-serif" dy="1.5625" font-size="25" fill="#2A2C34"/><text text-anchor="middle" pointer-events="none" x="0" y="5" font-size="10px" fill="#2A2C34" font-family="sans-serif"> labelTyp…</text></g><g class="node" transform="translate(-242.08087433094792,150.22773881690358)"><circle class="outline" cx="0" cy="0" r="25" fill="#D9C8AE" stroke="#c0a378" stroke-width="2px"/><text text-anchor="middle" pointer-events="none" font-family="sans-serif" dy="1.5625" font-size="25" fill="#2A2C34"/><text text-anchor="middle" pointer-events="none" x="0" y="5" font-size="10px" fill="#2A2C34" font-family="sans-serif"> framewo…</text></g><g class="node" transform="translate(-140.63084359219874,222.21868119622835)"><circle class="outline" cx="0" cy="0" r="25" fill="#D9C8AE" stroke="#c0a378" stroke-width="2px"/><text text-anchor="middle" pointer-events="none" font-family="sans-serif" dy="1.5625" font-size="25" fill="#2A2C34"/><text text-anchor="middle" pointer-events="none" x="0" y="5" font-size="10px" fill="#2A2C34" font-family="sans-serif"> modelDrift</text></g><g class="node" transform="translate(-342.5556137036825,2.81561995382308)"><circle class="outline" cx="0" cy="0" r="25" fill="#D9C8AE" stroke="#c0a378" stroke-width="2px"/><text text-anchor="middle" pointer-events="none" font-family="sans-serif" dy="1.5625" font-size="25" fill="#2A2C34"/><text text-anchor="middle" pointer-events="none" x="0" y="5" font-size="10px" fill="#2A2C34" font-family="sans-serif"> batchSize</text></g><g class="node" transform="translate(120.06346135374802,380.88332041029025)"><circle class="outline" cx="0" cy="0" r="25" fill="#F79767" stroke="#f36924" stroke-width="2px"/><text text-anchor="middle" pointer-events="none" font-family="sans-serif" dy="1.5625" font-size="25" fill="#FFFFFF"/><text text-anchor="middle" pointer-events="none" x="0" y="5" font-size="10px" fill="#FFFFFF" font-family="sans-serif"> Evaluati…</text></g><g class="node" transform="translate(427.3077367369367,330.783662794423)"><circle class="outline" cx="0" cy="0" r="25" fill="#F79767" stroke="#f36924" stroke-width="2px"/><text text-anchor="middle" pointer-events="none" font-family="sans-serif" dy="1.5625" font-size="25" fill="#FFFFFF"/><text text-anchor="middle" pointer-events="none" x="0" y="5" font-size="10px" fill="#FFFFFF" font-family="sans-serif"> Result</text></g><g class="node" transform="translate(222.89431744680502,74.7904625954989)"><circle class="outline" cx="0" cy="0" r="25" fill="#F79767" stroke="#f36924" stroke-width="2px"/><text text-anchor="middle" pointer-events="none" font-family="sans-serif" dy="1.5625" font-size="25" fill="#FFFFFF"/><text text-anchor="middle" pointer-events="none" x="0" y="5" font-size="10px" fill="#FFFFFF" font-family="sans-serif"> Pipeline</text></g><g class="node" transform="translate(200.81488679704816,302.53895577590185)"><circle class="outline" cx="0" cy="0" r="25" fill="#57C7E3" stroke="#23b3d7" stroke-width="2px"/><text text-anchor="middle" pointer-events="none" font-family="sans-serif" dy="1.5625" font-size="25" fill="#2A2C34"/><text text-anchor="middle" pointer-events="none" x="0" y="5" font-size="10px" fill="#2A2C34" font-family="sans-serif"> evaluate…</text></g><g class="node" transform="translate(-307.71171595440126,-45.82093992311077)"><circle class="outline" cx="0" cy="0" r="25" fill="#D9C8AE" stroke="#c0a378" stroke-width="2px"/><text text-anchor="middle" pointer-events="none" font-family="sans-serif" dy="1.5625" font-size="25" fill="#2A2C34"/><text text-anchor="middle" pointer-events="none" x="0" y="5" font-size="10px" fill="#2A2C34" font-family="sans-serif"> epoch</text></g><g class="node" transform="translate(-403.1583924448789,129.27121585957687)"><circle class="outline" cx="0" cy="0" r="25" fill="#A5ABB6" stroke="#9AA1AC" stroke-width="2px"/><text text-anchor="middle" pointer-events="none" font-family="sans-serif" dy="1.5625" font-size="25" fill="#FFFFFF"/><text text-anchor="middle" pointer-events="none" x="0" y="5" font-size="10px" fill="#FFFFFF" font-family="sans-serif"> -830</text></g><g class="node" transform="translate(-70.06652543760336,105.80896175302996)"><circle class="outline" cx="0" cy="0" r="25" fill="#D9C8AE" stroke="#c0a378" stroke-width="2px"/><text text-anchor="middle" pointer-events="none" font-family="sans-serif" dy="1.5625" font-size="25" fill="#2A2C34"/><text text-anchor="middle" pointer-events="none" x="0" y="5" font-size="10px" fill="#2A2C34" font-family="sans-serif"> totalExe…</text></g><g class="node" transform="translate(-368.48646581195686,346.96054828075916)"><circle class="outline" cx="0" cy="0" r="25" fill="#D9C8AE" stroke="#c0a378" stroke-width="2px"/><text text-anchor="middle" pointer-events="none" font-family="sans-serif" dy="1.5625" font-size="25" fill="#2A2C34"/><text text-anchor="middle" pointer-events="none" x="0" y="5" font-size="10px" fill="#2A2C34" font-family="sans-serif"> totalDat…</text></g><g class="node" transform="translate(153.37136110994751,190.35584112729973)"><circle class="outline" cx="0" cy="0" r="25" fill="#57C7E3" stroke="#23b3d7" stroke-width="2px"/><text text-anchor="middle" pointer-events="none" font-family="sans-serif" dy="1.5625" font-size="25" fill="#2A2C34"/><text text-anchor="middle" pointer-events="none" x="0" y="5" font-size="10px" fill="#2A2C34" font-family="sans-serif"> executes</text></g><g class="node" transform="translate(-409.99596895007215,303.7988783841676)"><circle class="outline" cx="0" cy="0" r="25" fill="#D9C8AE" stroke="#c0a378" stroke-width="2px"/><text text-anchor="middle" pointer-events="none" font-family="sans-serif" dy="1.5625" font-size="25" fill="#2A2C34"/><text text-anchor="middle" pointer-events="none" x="0" y="5" font-size="10px" fill="#2A2C34" font-family="sans-serif"> paperURL</text></g><g class="node" transform="translate(-335.5223468085245,231.83655346927864)"><circle class="outline" cx="0" cy="0" r="25" fill="#D9C8AE" stroke="#c0a378" stroke-width="2px"/><text text-anchor="middle" pointer-events="none" font-family="sans-serif" dy="1.5625" font-size="25" fill="#2A2C34"/><text text-anchor="middle" pointer-events="none" x="0" y="5" font-size="10px" fill="#2A2C34" font-family="sans-serif"> dataset…</text></g><g class="node" transform="translate(-187.52203215036906,174.73724974041775)"><circle class="outline" cx="0" cy="0" r="25" fill="#D9C8AE" stroke="#c0a378" stroke-width="2px"/><text text-anchor="middle" pointer-events="none" font-family="sans-serif" dy="1.5625" font-size="25" fill="#2A2C34"/><text text-anchor="middle" pointer-events="none" x="0" y="5" font-size="10px" fill="#2A2C34" font-family="sans-serif"> framewo…</text></g></g></svg>